<mxfile host="65bd71144e">
    <diagram id="y11X_hpEDdacMXzyrAUb" name="Page-1">
        <mxGraphModel dx="777" dy="1463" grid="1" gridSize="10" guides="1" tooltips="1" connect="1" arrows="1" fold="1" page="1" pageScale="1" pageWidth="850" pageHeight="1100" math="0" shadow="0">
            <root>
                <mxCell id="0"/>
                <mxCell id="1" parent="0"/>
                <mxCell id="2" value="" style="shape=image;verticalLabelPosition=bottom;labelBackgroundColor=default;verticalAlign=top;aspect=fixed;imageAspect=0;image=data:image/png,iVBORw0KGgoAAAANSUhEUgAAAvAAAAIXCAYAAAD652pAAAAAAXNSR0IArs4c6QAAAARnQU1BAACxjwv8YQUAAAAJcEhZcwAADsMAAA7DAcdvqGQAAP+lSURBVHhe7P13kKT5fd95vh+bPrO8b+9nunsMZjAABh4QQZEASYggYUSAAiiKpFank1biXijuNgRqNyRthC4uFBt3F9Ttrk52SYgkjitRlGgxHACD8T2mp820KdPl0/t87P1R9Tzz1FNZPT3Trrr7+5r4IjOffNJUdTX6k9/6Pr9H+fd/fsVHCCGEEEIIcU9Q4xuEEEIIIYQQu5fyv0sHXgghhBBCiHuGdOCFEEIIIYS4h0iAF0IIIYQQ4h6i/O/fkxEaIYQQQggh7hXSgRdCCCGEEOIeIgFeCCGEEEKIe4jyWzJCI4QQQgghxD1DOvBCCCGEEELcQyTACyGEEEIIcQ+RAC+EEEIIIcQ9RPmtZ67KDLwQQgghhBD3COnACyGEEEIIcQ+RAC+EEEIIIcQ9RAK8EEIIIYQQ9xDlt2UGXgghhBBCiHuGdOCFEEIIIYS4h0iAF0IIIYQQ4h4iAV4IIYQQQoh7iPIdmYEXQgghhBDiniEdeCEEAIbTYLTyPJrXI9u+ykDjrfguQgghhNgFlO/8hXTghRCQ7K3x2IV/yNlDf4/9S/+BVmoPl2d+Ib6bEEIIIe4y6cALIQDoJsa4PPN1Di/8a3rmELOTX4rvIoQQQohdQAK8EAKAbHuW47P/b87v/1VMu8b+5d+J7yKEEEKIXUBGaIQQACi+S7q7TCs1jWnX0N027eRUfDchhBBC3GXSgRdCAKB5HrqSRfV9LGNAwrsQQgixS0mAF0IAYLo99qy/gOG243cJIYQQYhdR/oOM0AghNp269M+4PPNV2snp+F1CCCGE2CWkAy/EfWaodoZkbz28fC86mQ+T77nxzUIIIYTYRZT/8OysdOCFuE9obo+Tl/4nWqk9ZDoLNDKHuTLztfhuO5qqXCFt1bg0/lj8LiGEEELsEtKBF+I+4moJ5id/BtW3qWeP0k2MxXe5rlJ2mFz1D+ObhRBCCLGLSIAX4r7ho+BRzZ+ildrHSOVFlkY/G9/pulzVRFWGMF0rfpcQQgghdgnld2SERoh7mu85JDSPpGphYlGovU6u9hZr6Yco5j+ApSRBNeIP60v1XI4tv8RafoZSTg5kFUIIIXYj6cALcY/yXQfVrjOWaHNoyOPwRJq9I0kOVl8ik5ogPXmCIaNO2lnH7VTxPS/+FNv4qko9oZBtnY3fJYQQQohdQgK8EPcY3/fx7Q45pcbhMZ294zly2TSapqGaaaqP/Sp6eoKJtdcZ9auMZFSG9BqGWwf/+ivM+Ch0dQPTrqP47x74hRBCCHHnSYAX4h7i+z5Op0KeEvvHs+QyKRRFwfc3JuEURcFPZmke/hD25CGGaleZqM8zllIZ0hvorWv49vVP1NRLHiTJFLprx+8SQgghxC4gAV6Ie4Xv43WrjJhtpscG0DQVz/M2OvKbAZ7NEK+qGu7QQVpHPouZSDK5+iaTvVkmspCnjGbX8Vxny9MHLCOF4qyieZ34XUIIIYTYBZTflYNYhdj1fN/HapUoKFWmJ0YwDANVVTfGZlQVVVVRFCWs6ON830fp1Ehf+a943S7FwVMUtRHKPQM/OQqqvuW1AB6+9H9ndvrLtFIz8buEEEIIcZdJgBfiHtCuFzE6i+ydGiWZTIbBXdO0LSE+GuQJRmp8f6NT73mojWXS82/R9TVWs9MU/SxtpQBGFiLBf0/xdQzXpm66VAqPkOouo7ltarmHIu9KCCGEEHeD8rvflwAvxG7WazexSpeZHsmQTqfQNA1d17eE93iQv1433rMtzOIcxupZaorKfPIYLX0U1xwAVQNgpLHM9NpzpBr/lbOHf519S/+BdmqaK3u+EXlnQgghhLgbZAZeiF3M9306lQXSmoXve/R6PWzbxrIsbNvGtm0cx9lSruvium7f2XhFUVANE2v8EK2jnyJt5jmw+irTrYv49Xmc3sYBrvVkFsVZZHbmFzi08K+xjEHmpn4+8s6EEEIIcbdoX/7W3/l2fKMQYneori3QXXubQiEXhvEgmO90OxC97ft+GOw7nQ7Ly8ssrhb5i/MLnL96lczSSySKL3LxWpWmA6nsINPNJWaW/jWvH/+/Mlx9kUxngUrh9JbXEEIIIcSdJyM0QuxSVq/D8vkfMZDySaVSGIaBruvbLoORGl3XUVU13KaqKr7v02q1WF5e5vLly1y8eBHDMHBdF0VR6HQ6qKqK6dtk1DYVO42t6EztOcJnR1WyE0PMj38K066huy3aSTk7qxBCCHG3SYAXYjfyfYrLV6nOvcpgIYdhGGH1C/HR0jQN13WZm5vj/PnzVKtVVlZWSCQS22bnozPynufheR6u6+I4DiN+hcN7plAe/avkh8a27CuEEEKIu0cCvBC7kN3rcuGlPybht0ilUpim+a4h3jAMAKrVKs899xxLS0t4nkcymQwfFz0Atl+AD8ZsHMfBsS1c20LLDDF18DTTBx8iNzAceZdCCCGEuBuU35MAL8Suc+3KW8y9/j0K+SymaW4L8PEwr+s6rVaLs2fPMj8/T6/XI5lMkkgkwsdGnyPahScyI+84TniArGVZYfV6PTIDYxx8+ClmDp3ETCTjb1kIIYQQd4gEeCF2Gc91eeWZ36dVmiOdTofhOxrEdV0Pb+u6zsrKCi+++CKWZZFIJEilUiQSibCiYT4oXdfDDrzrumFo73a79Ho9ut1ueL3X69HpdPB8hfGZg5x44tMMjEyiG2b87QshhBDiNlN+7wdzEuCF2EVq5XWe/6PfwrcaJBKJLQE+WkEnvVarsba2hm3bdDodFEUhlUqRTCZJpVKk0+lt14PHszk64zgO3W6XTqdDu93eUp1OZ0ugt22bTH6Q6YMPs/foYwyPz6BqG+vHCyGEEOL2kwAvxC6zcPks3/9P/4qE+U5wj3fPTdMMz7KaTqcZHh4ml9s42LVcLrO+vk632yWbzZJOp8lms2SzWTKZDOl0GtM00TQN3/exbZter0e73abZbNJoNGg0GjSbTVqt1pYQ3+v1sCwL3/cxDJN0rsCBhz7E1METZAtDKIqcWkIIIYS43ZTvSoAXYtfwPI83X/oeL//5d7fMufcL8YlEgqGhIcbGxsjn82QymXB0xrZtrl69SrPZZGhoiEKhQC6XI5vNhh14AMdx6PV6NJtN6vU6tVqNWq1GvV4PQ3y73Q6778FMvOu6GIaBqqp4nkducJxjH/gEE3uPkkik4l+WEEIIIW4h7Su/9HflRE5C7BK+53HlwmuszL8dLusYXd4xWL89l8sxOTnJ2NgYAwMDYac9mHlPpVJMTU2RzWYBmJycZHR0lIGBAQqFQjhio6pqOP8ejNAEFQ3swRlfo+9H07RwFMfutVm7dpny6jVS2TypTEGWnRRCCCFuE/l9txC7iOs6zF86i23b4WhLdP5cVVXGx8fZu3fvtvAeHKgaXRN+YmKCsbExAPL5PNlsNjzwVducW/c8b8trBOE9eO0gvLuui+d5W878qmkayWRyYyxHV6muzvLSn36Hi2e+T7NWjn11QgghhLgVJMALsYt4nktxdTGcNQ9WhnEch8HBQY4ePcr+/fvDbno2mw276ebmyjLxJSLz+Ty+71MqlXBdN3wtx3HodDo0Go1wfKZarYbjM61WK5x9D95DNMR7noeqqqRSqXA8J5PJoCk+V9/4Pq987/dYmX8bx7YiX6EQQgghbpYEeCF2GXtz3fUgOKuqyt69e3n44YeZmZlheHh4y8x7cKKmaHiPj68kk0kqlQpLS0vhyEy9XqdcLlMqlSgWixSLRcrl8pYQHz2AtV8nXtM0crkcw8PD4ax9JpMhmUzQbRR587k/4M3n/5hqcRl8OdxGCCGEuBVkBl6IXcR1bM6//jyV4ioA2WyWhx9+mIceeojx8fFtIzPBDHq/s6sGYy7RmfV6vQ5At9ulWCyyurrK6uoq6+vrlMtlKpVK2H0PxmiC4B4N757noes6g4ODzMzMMD4+TiqVCl9bURQURcFzbRrlZVYX3kY3UyTSOTTDQEHm44UQQoj3S/nuD2UVGiF2C9d1+Yv/8rv8yXf/JdPT0zz11FMcOHCAoaEh8vn8lln3eHAPRmaIhPcgcAdnWbVtm1KpRCqVol6vs76+TrFYpFKpUK/Xw7GZYHwnPvcelc1mOXLkCE8++SSjo6PUajWWlpYolUo0m81wzfjgdV3PZ2BsL4dOP83I5N5tvyUQQgghxI2RDrwQu4nvU1xZwOtU+PCHP8yhQ4cYGRkJR2aSyeSWzvtO4T2+ck3QQQ8C9bVr1yiVSlsCfK1W2zb3HhxMGzxPNNCn02mOHz8eBvhutxsG92DFmoCqquD7dJoVyqvzOLaNmcyQSKbDfYQQQghxY2QGXohdxO512DM1wcc//vEwvBcKhW1jM/0OViUS3vsFd2tztt7zPBKJBPPz86ytrYVz78HoTDD3HqxKE53HDwK9aZoMDg6yd+9epqenSaVSeJtndA0CvqIoqKoavk9d10kkEjjdJpfP/AWvfO/3WL56Ds9xtnwPhBBCCHF9yv9PRmiE2BV67QZLb79EUukxPDQYLvsYjMz067pHx1CCrns8wAehO1jTPVgq8vz581y5ciXsmged86CiozNBGFcUBU3TyGQynD59mq9+9ascO3aMpaUlzp07x7Vr16jVanQ6nS3z8vH3Fbw3VIOpgyfZd+zxjTO5Rj6MCCGEEKI/+ddSiLvM930qa9dYv/IqGc1ifGx0y8x7cHbVILz3W2kmHpDjXffoGu9Bdz2fz2PbdnjAaiqV2tZ979eBd10XXdeZnp5mfHw8nH2vVCp0u11830fX9fBsscHZZHVdxzAMEokE+Xye0dFRCrk063Nv8sozv8fClbNYVm/L90YIIYQQ20mAF+Iu8lyX0tJlatfeJGM4N7zSTCA+MuNuLhEZDe9BdTod2u027XabVquF53kYhhFuL5fL4X7RoB+sRBOEd0VRGBoa4sCBA3Q6Ha5evcry8jKNRgPP81AUZctvDIKRn0QiweTkJI888ghHjhxB13VqtRqlUomluUs8/8ff4Y3n/iu9bnvL90gIIYQQW8kIjRB3ietYrM2fp7F8nqnJyS3BPT4yE593jy8RudPMezTEB4E8GtBXVlZ47bXXaLfb24J6fI5d13WSySQjIyN87GMf41Of+hSe54Vz9N1uF9d1w/cY/VDRaDQ4cuQIhw4d4rXXXuPFF19kdXUVy7K2jOkkkik+8LGf4PGP/YSsUiOEEELsQPn9H85LgBfiDuu06hQX3kLplhgeGgwPVI2Oy8QPVA3GZqLhPR7c+4X3+PhMUO12m1qtxiuvvEKj0QiDfnQFGVVV0XU9DO+FQoGHHnqIz3zmMwwNDYUnfQqCeDAnH7w/Z/Nsr2+++Sa+7zM+Ps7FixfDURt/c2nK6PVsfpC//OVfY+bA8S3fMyGEEEJskBEaIe4g3/dpVNdZvfwKulVmbHRk27x7v1VmojPv0YAcnXe3bXtbYI+OzAQrzLRaLZrNJo1Gg2aziaZptNttms0mzWZzy1KSzubJmwBM02RkZIRDhw6haRqrq6uUSiU6nQ62bW850DV4z6Ojo3ziE5/g+PHjJJNJzpw5Q6fTCX9zEP0tQnC9Xi1x9cLrOI4d++4JIYQQAgnwQtw5vu9TXb/GysUfkTU35t0HBwfJ5XLhvHt0ZCZYaSYIxUGAj3fggwAfHGganWOPhvcguDebTer1OtVqlUqlEm5rNpt0Nk/iFAT3oBNvGAa5XI6JiQmSySTlcplisUij0aDb7W4J4Gx+yMjlchw/fpzZ2VnOnj3L8vLylvcf7B+/7XkelfVFXAnwQgghRF/K7z8nIzRC3G6u67A2f4FeZZ6BbHJLcE8kEiQSiS2hPdp5DwI8kYNWg3GZ+IGqwTKRQUVXlQm68UGAr9VqVCoVFhYWKBaLeJsHoEa76IlEgkwmw+DgINPT0xw8eJDh4WEURcGyLBRFQdd1UqnUlg8fiUSCAwcOsLKywne/+11KpVI4IhOE9Z2u+77P0ROn+Imv/W0S6VzkuyiEEEIIpAMvxO1nW13WZ8/SLV5hZCC75eRMwcy7ruvbOu7Rznu8Ax+E+OiKM9GQHnTbg7GZYGQmCO1BB31paYlyuYy/Ob8ef01N0zBNM/ztQLfbDR9br9dpNptbDpC1LAvXdSkUCiwtLfEHf/AH4YeDfh33oOLb52cv0+11499KIYQQQkiAF+L28X2fbrvB4oUX8ZrLTI6PMDw8TD6fJ5PJhCdo0nV9W1CPV/x5g1GT6PhMPMBHx2bi4X19fZ1r166xvr4edt7jpW2uPBPM31uWFS77WKlUqNfr4esF1el0UBSFVqvF9773PZaWlraF9OhlNLgHtz3Pw7ZtkN8NCiGEEH1JgBfiNqkVl7j0yp9h15cZKOTCsZlMJhMerKpuLrkYD8/x0B7cjod313W3rDYTdNujnffovHupVGJ1dZXFxUUqlUp4gGr0dZTIQajK5gGztm3TbrfD5wq679G5+tbmCaFc1+XMmTPMzs72DenBpal4HM+1OJhpbum+B/cLIYQQoj8J8ELcBtW1a1x8+U959flnePnll3n55ZdZWlpC2TzJUdB1JxLOr6dfwHUjJ20KxliiHfhGo9E3vC8vL9NqtbZ9UAiuR0d52FzPvdfrhc8ZPeg1+JAQlOM4rK6ucvHiRSzL2tZ1j15PqQ5/dd8Sjw7UtgT9jfC+8cFBCCGEENsp/4ccxCrELdXrdvnz//ivGc4o/OAHP8B13XAVl4ceeoiPfOQj7Nu3D9M0Idb1Di7jpShKGNqjK80Ewbler4cHpkY748H2SqUSrhizuroadriDy+A9RLvvuq6HZ1INKhip0XUd0zTDA3BN0ySVSjE0NMTa2hqLi4vhcwdBPHrp+z6fHi/j+T5Xmilmm8ktH1BOPvFxvvDVX8NMJDe/q0IIIYQIaF/963/32/GNQoj3b21plj//z7/N4sI87XY7HEOxLIvl5WWuXLmCZVkMDg6SSqX6dsKjFQi61NGTNUWXjAxm3aNhvlqtUi6X6XQ6TE5OMjMzg6IodDodfNfh9KjPiWGf2frW14x/gCA2vhPtlgfLTaqqiuu6LC8vb8ywXye8f3ikzTcPLuL68OmJMn+8PLQl8D/02Ec4cOz0lq9fCCGEEBskwAtxi60tzfPDP/19ut3uthDu+z6tVou5uTkWFxcxTZN8Po9hGOE+8ccEHwD6Bfju5nKRwXhLENqDKhaL7E9UmZqa5tiwj6Yb5EemGB8f58ODVX5yf4fvzSuUujvP4sdDdLRTHg30hmHQbrdpNBo7BncADZ+WrfIXa3neqqX5wVqeuqWG++QGRvjIZ36awZHxLa8rhBBCiA3aV3/5734bBaSkpG5NeZ7LxTdfptWoheE3COEBx3EolUpcvnyZTqfD8PAwpmmGB44GjyEWgoOOd7AGfHfzjKutViucdS+Xy5TLZSqVCkkdvvVQm5mcy8PpNXK6Tckd5LOjRR6eGON3Via5WrG3zcTHP0BE9QvwbJ7sqd1u4zjOln2i4R1gyPD4xGiHt+omqx2durXx4SF4nrHpfTz92Z9GN81t31spKSkpKSkp6cALccspisrFN19hbXlhx/AbXO/1eszPz7O0tMTCwgLj4+OkUqktj4mKd+Gj4zOlUoliscja2hrlchld1xkaGcNSU0wm2xSdHKaqccDwqPhJXrImMQvDTE1N4bourVYLx3G2vF7wwSP6AST+NXiRE0DZtr1lFCYQ3b/tgoHPalfF9rZ+INB0nU/+xFfYe+h4+FghhBBCbKX2CfVSUlI3UelMlkMnHkXVdGzbDs+aGpTruluq1+tRr9fJ5/PhSY+iFQ24bK4So+t6WJ7nYVkWjUaDYrFIqVQikUgwMDCAoihc6gyy0kvz6cI8w2qSkqfzSnuYrr9xcGw2m+Wpp57i6aefZmJiAiIfFIL3GLzv6PuPf12WZYXd9+j7Dq4Hl67n8UpVp+Vs3294fA8Hj57a9j2VkpKSkpKSeqdkGUkhboMTpz9AKp0JO+X9gnw00FcqFbrdLs888wy1Wi0MtPEgH3S6NU0jkUiQzWbJZDJ4nke1WmV9fR1N00gm31nV5VCqwql0hbI1wY+aA7zQGtjygcDfPAvrnj17+NSnPsWTTz5JPp/fFuDfrSzLCp83Ht7jFQ/unueh6waPf/jTDAyNxL+dQgghhIjQviYjNELccslUhuLKArOXL1x3jCa4bVkWly9fplqtsnfvXqamprbtG59PVzbPlppMJtF1nZWVFa5duxbO0quqStqAb03N0SXD75cPcM1Jhh8CguUpo5emaTI+Ps7evXspjEzR7Vk069Ut7yV4P/GvI3rip377vdv2PQeP8xM/90sYiUT4nEIIIYTYTgK8ELeBpunk8gOce+1HtNutcHs0vAaX0VCrKAoDAwOcOHGib/CPhvcgwAdrzB84cIB8Pk+lUqHdbqNpGpqmsW4N8VxzmKpnbAvs8RAfVCab4wNP/yU+9Omfol4tUSquYvV6O75vNg9i1TQtvD+w09ccvZ7ND/KTX/5lJmb2h48TQgghRH8S4IW4TXKFQXq9HpcvvIHrbhwcGg+zRFZfCbZPTU1x+vTpcP316H2BaNgOTqyUTqfZt28f+/btw3EcarUajudT9Q1cZaM7Hg3qwShO9PY794OqKBx//OM88fRnmN57CMd1WLk2h+e5fQN8cJKneDjvV9H7U5kcn/zJr/DoBz+x7WsWQgghxHba1/76f/vt7aPxUlJSN1uqqjE0Ms5br71ArVIM/9L1C7HBbVVV+chHPsKRI0fC/aOi+8I7YzTBWVIBUqkUMzMzJBIJ1tbWcF13x2779bYZiRQjU4cxE0mm9x3i1OMfZmJ6H9VKkUajhmNvzLwnEgn27t3LwMAAnU4nfJ/Ry+B6fLvneTzy5Cf4sZ/5OrphbvseSklJSUlJSW2vzQAvhLgdkqkMk9N7uHT2pR1PcBS9HBsb46d/+qcpFAqRZ9nO3xynCVaiabfbrK2tsby8TKlUotVqhQe4rq6u4m2eKTUe1HcK9oqioBsmw5MHMZMby1qaiST7Dh3n8Q9/kmy2wNVL5+h127iuy8zMDPv376dcLmPb9rawHr/N5pjR8dNP8VO/8DdJZ3KRr04IIYQQ1yMBXojbSFEUhsYmabeaXH37rXClFiIh3N9cicUwDD7/+c/zxBNPvOsoiaqqGIaB67qsra0xPz/P2toajUaDbrdLr9ej0+mgqiqWZVGv1/sG9fi2aKB3HYv80DjZgdHwdRVFIZlKc/DoSU4/8TQoCuX1VRavzbOwsIDjOFveezy0B5dDI+N8/iu/ytOf+SkKg7LqjBBCCPFeKP/p+YV3fscthLgt7F6HP/yd/5X/+vu/RbfbDQ8wVTfn0E3T5KMf/Si/8iu/8q7d9yC8W5bF8vIyKysrdDqdvss+WpZFsVjk3Llz4Yy6ruthUA8OPA3eR3AZXN9z7AkOPPwUqrYxnhPnuS5nzzzPM3/0+5x5/hnwXQqFwo4hXlVVCkOj/NjPfIMPPP0ZtB2eVwghhBA70772y9KBF+J203SDA0dPomsqs5fO0Yus6KJpGh/96Ef5+te/zujoO93ufoKRmUajwdWrV1lbW6Pdbm9bk93ZXH/esiy63S7lchk2w390TCbedY9eVxQFM5VlePIA6ubqMnGKqjI+NcPJxz/MoROn6XW7rC7P40cOzGVz1r0wNMojT32SH/8rf40Tjzwp4V0IIYR4n6QDL8Qd1O20+MPv/C/8/n/4V/ieRyqV4pOf/CR/42/8jfAsqP0om/PuqqpSrVaZm5vj2rVrJBIJbNvGdd3whEiu64YnjrJtG03TOHfuHJ1OJ+yuBx324ANBcDvegU9mCjz+6Z8jkcrG31Jf7VaT57/3n1lZWsD3XRRFRVEgXxjmxKNPsWf/EXTDiD9MCCGEEO+BBHgh7jDXsXnpB3/CH/7ev+GpD5zmq1/9KmNjY/HdQoqiYBgGvu9TLBZZWloKR2ZqtVrYcY+P0AQdeMuyWFhYCMN8PLCbptk3vGuahm4keOzTP0e28F7m1H1sy8bz3HCLbhjScRdCCCFuEeUPJMALcUf5gNVto3bXODCRJ5XaWOWln6BL7rouq6urLC4u0mw2w4AeHZkJwnvQgbdtm16vR7PZpFgs4vt+GN6jId0wjPB6PMTrusGRxz/N1IGH4m9NCCGEEHfJ9Ze6EELccprvMJrscWzv6HXDexCue70e8/Mbq7w0m80wnMer1+vheR69Xi+sbrdLp9PBcZwtSzkGghVwguvBZbSatXfWsBdCCCHE3ScBXog7yLcajCR7jA0k0LSd//oFs+nNZpO5ubmw8x6MxFiWFQb34DbAwMAArutuCe/dbhfX3Th7Kn3WZY+Kb/N9j1Z1fcs2IYQQQtxdyh+8ICM0QtxunueS1lyGzC6Z1M4HcQYHqyqKQqVSYXFxkUqlQq/X27K6TPR6cHtoaAjTNFlfX2dlZQXbtul0OjSbzXCd+egIzY2O0WTyw5z66E+Rzl1/eUshhBBC3Bk7twCF2KU0twv4KL67eX2X8z1StBjPOO8a3oODVdfW1pidnaVYLNLtdrd02+Od96DW19c5f/48y8vLYfe93W5jbZ48aqeuO31OtBTd33Us7F479gghhBBC3C0S4MU9RXcaPPzm/43xlT9iqPQjTr3+9zHsany3XcN3emRoMFXQMHUlfncoWA3Gtm2WlpaYm5ujWq1uC+z9wntw1tVWq4Wu62Sz2TDAdzqdcHymXzjvF+rjYb7XadFubKwjL4QQQoi7TwK8uLt8H/Ajl95GsXk7xtFzvH3k/0yucY7BystcPvTfYBsD8d12AR9d2RiZmRww0K8z7x6MsHQ6HRYWFpifn6fRaGwL7DuF92DeHcAwDIrF4rbuO7HgHtVv+9Z9fNqNKp7rRLYJIYQQ4m7ZOVUIcTt5DqrbRbVqpLw6WW+dgrtCxlpCq18hZa2Q8RuYfhsdG8V/JzyOrj+DlRillxhjdP3PUb2NAzh3E83tMKQ3GM6ZKEr/znswMqNpGrVajdnZ2XCN9yCsBxVf1z0e3lutFuVymUuXLlEqlWi32+EZWqPhPB7mA9EQH9/H932a1SKe+8667kIIIYS4e5T//MK17W1OIW4DHx/fsTD8DknVJqFapFOpMOBGL6Oh17Ideq5O2zWwbYeZhe9QHHkaR88ztvrHLOz9Kr5qhvvfTb7voVpVpodMksbOn4+D8A5QLpe5du0alUplS2CPVjTMR0N8NMgHYd6yLLrdbnjgqmmamKYZHsTa7+yr/bZFD2jVDZMPfu7rpDL5+JcihBBCiDtMAry4Y/xeg4zaJJfU0PWNcBiEddd1abfbaJoGwODgYLjyiqZpWJZFMpWm6yhUuho9PwH072zfLb7nkNW6DCQcUsmdP1CoqophGDiOw9raGktLSzQajR3Du2VZ1+3AR8N7EOBt20ZVVRKJxJYAfyMr0cTDexDgT3/sZxgcnY5/OUIIIYS4w3ZuEQpxq/g+fq9GTq0xmDUxzY2xEVXd+PFrt9tUKhUARkZGmJqa2hI6HcehVCrRbNTJpzTGMw5pze47I3/XuDZZ6ozllBsK771ej8XFRebn56nVamHo7tdpD67Hg3pQwcGq7XabZrNJvV6nt3lSp/hozI2MzgTbt9zveXQau/dgYSGEEOJBovznF6UDL26vbqNMxiszMTq4peve7XZpNpskk0my2SyapqEoCqqqYts2ruuGZds2nucxMTGBoii0OhZzZR8lkY2/3B2nej1GUi5Z0ws/lPQTdL5brRaLi4usr6+HHXPHccKvM9557xfioxVsbzab4VlXDcMgmUySSCTCLny0Ax/twgdd92AeP7ot2okfnTnCqad/Mv5lCSGEEOIO2zltCHELeK6D3VxnIJcKw6CiKKyvr7O6uoqu6yQSCTzPw3VdHMeh1+vhui6e56FsntjINE2Gh4fDx2dSJgMJC9fuxV/yDvIx6TGkNcgnN7rr/QTz7qqqhgerrqyshKvExOfco533nbruQee93W6TSCQYHh6m2WzS6/W2ddV3KmKrzcS77vFtvU4Tx7HD/YUQQghxdyh/KB14cRu9ffZllt9+iZ/5qc+TzWZRFIVarcba2hrj4+MkEomw8xuEXNu2w7l413VRN2e5dV0Pn9f3fd58802uFm0OPfTEloNe7wjfQ7OrjOVU0tcZmQnCu+/7lEolrl27Rq1WC8N6ENzjM+/xMB902rvdbhjqgwDvOE744SD40HO9Dnzw/Y4etBp03qNz8PEOfCY/zOmPfoFMfjD+ZQohhBDiDurfMhTiFlm88hajwxuBL3rAaqlUQt08eZFpmqTTaVKp1JYQ7/s+yWSSTCaDruvh44NwOTk5ieH38OxO/GVvL88hq7aZHtCvG96Dr89xHJaXl5mdnaVSqYRhPB7ig7AeBPZ+HfcgtLdaLdrtdni7Xq9veW3f9/vOwAf3BZfx69Ft8X2tbot2c+NYBSGEEELcPRLgxW3V6/UoFouUy+WwOzw4OMjg4CBzc3PUarWwm9xqtWg0GvR6vTDUm+bGOurx8n0f27YZSCnk/AqGU92yVvztouFQ0JuMZBUM453fCMQF3exutxuenKler28J7vEue78Z92hwj1ar1aLVauE4W7/m4HvTr4gF9bh++wXXARy7R7dZY1cdPCyEEEI8gCTAi9uq2WoxOzvL/Pw8lUolXJv8+PHjTE5O0mg0woDfarVQVZVMJoNpmuFMedB1Dy7Z/GAwNzdHq9Ukk9Qo6F0yXgXdbaD4Xuxd3Ao+qtthyOwwkjPR1J1HdoKDRJvNJnNzcywuLtJqtbYF93h4j47KRDvw0c57p9MJx2iCDnsgPkYUD/Dx8L7TtvhzRC9bjSquIyd0EkIIIe4mCfDitnIch8XFRd58803Onz/P+vo6lmWh6zqTk5McOnSIPXv2MD4+zsDAAKlUKgzr0eAe7bw3m02uXLnClStX6Ha7m/PeCXJJhYLWIu2V0Lwu3KIg73suCXqMZxxyyZ3/yiiKEn7wKJfLXL16lZWVFbrdbhjW3y28B8HcNM0wuHe73XDW/YknnuAjH/kI7uZZUYPQHg/vnudtqXcL6sG2+H7B9uCy06rheRLghRBCiLtp5zQixC2gaxurzLz11lu8/PLLvP7661y+fJlyuUyvt7GCTHTpQt/3twT2gOd5dLtd1tfXeeuttzhz5gzLy8sAGJtnG00mk2QzaQbSGgNag4RbBdcKn+P9UPBJKW2GEx3SiY1lLvtRNg8c9TyPtbU1ZmdnKRaL9Hq9bV33aJh3HAdd17EsC8/zSKVSW+bbg86767p89rOf5atf/SpTU1Pxl+8rHsivV/HH9LsOUFtfvMsr/wghhBBC+4W/8d9+O75RiFvl2pW3aFbXsW2bYrFIpVKhUqnQbDbDIOs4Dr7v0+v1OHv2LKlUCl3XsW2b7uZa8Wtra1y9epULFy7w9ttvs7a2hm3bjI+Pc+jQofDg16Brr6kKpupgtSvYjoev6ijqxlleb5TvWuT0LqNZlYS587x7cLCqbdusrKywsLAQnlk1urpMcDsI8crm8QCappHJZKhWq7RaLWq1GvV6Pey8T0xM8HM/93N8/OMfJ5VK0Wg0+P73vx9/G6EgbKuq2vesq9GK/5Yjfl90u6IoaJrO8NRBUpl8/GWFEEIIcYdIgBc3RfUs9l35X0BRmVj6P/C0JL3kWHj//Ntv0mtVGR8fJ5VKMT8/z9raGqurq6ytrbG0tMTq6iqVSoWrV6/yO7/zOxSLRUzTZH5+ntnZWS5fvsyFCxe4dOkSS0tLtFqtcCxkbGyM/fv3o22eBCoeRFMJA81p0aiVQU2g6juvGvMOH13xGTS7DKZ8dG3nX1QFB6t2Oh0WFxdZWlqi3W5vCe/x4B7cdl2XcrlMu91G0zRWVlaoVCrh3Hu322ViYoIvf/nLPProo2jaxgeQarXKs88+i+f1HxHyN3+LoW4u/9jvpE3R69GAzubXFP9ehrdVlXR2kIHRG/stgBBCCCFuPeW/vCTrwIub4Hvsnf03OHoa3Wnj6BmW9nwpvPvP/+O/Yf7i6yiKQjKZZHR0lFdffZVut4vv+5imSSqVIpfLkcvlsG2bUqnE/v37w+58EFSVzZM6qZujNo7jcOrUKT796U+Hs+dKbBWWYAa80+lQrLZoOiapwQk0zYh8EVtpbptB0yKXNsJQGxd9L/V6ncXFxS0jM9frvAdLSzabTTzPI5FIsLq6Sq1Wo91uhwH+scce40tf+hLj4+NbXrtarfLP/tk/4/z58+G26Jx78P0KTpIVrAcfXwu+X3f+3QK/pmmMTB3g0Y//dOQdCSGEEOJO2rm1KMSNUFTWJj5LqrOIYVeoD5zacrfv+czOzlIqlVhcXOT73/8+qqoyMTEBQKvVolwuc+3aNRqNBh/84AeZmppidnaW9fV1Go0G3W43HLOJzmQH4Tw44VNw9tZgHzbHSDRNI51OMzU2yEjKpleep9OobtmPzYNVDbfBeMYln9lYvrIfZXPeXVEUSqUSV69eZW1tjW63u+1A1aCCGfdgVCj4UKFuHvBaKpVotVp0Oh10XedjH/sYX//617eFdzY75Mlkcsu2oEMeXCcywx4N9/GKi3+Po9uDy16nRa/bDu8TQgghxJ0lAV7ctG5qmnrhJIrv0swd23Kfvxn61tfXqVY3RmlGRkZotVqY5sY4SxAO19fX+aM/+iMqlY2TBe0UMjVNC1dhCUJzNMT3C55Bx3xkeIiZ4RRu9Qpr8xfoddob+3gOOb3HWMYjae48K69uzru7rsvKygpXr14ND8iNh/f4CjPtdptarUa5XEZRFDRN49q1aywvL4dru6dSKX7iJ36CL3/5y+Tz/efMs9ksg4M3djbUILxHQzyxQB6tuH6PcWyLXqcV21MIIYQQd4oEeHFTVM9i/+V/Qbo1y5Ujfzt+92aE3+A4DvPz81y5coVkMsn4+Di5XG5jL9/HdV1arRbNZjPy+A1BCHVdl16vF4bJ4MDYYNymX5CPhlBFUUin0xw+sJfRtMPixReprV8jp7YYSfskzJ1Ha1RVxTAMer0ei4uLzM3NhSdnul54D6q7eUBup9OhXC6zvLwc3m632wwMDPALv/ALfOYzn9nWYY9SFIVsNtv3NwTRTnw8nMe/H8HtqJ3uiz6212nSrpe33C+EEEKIO0cCvLgpiq+gaftwEgfRvO1nQu2TEbEsi/n5ea5evUqv1wvnq4P59WCGO7geBPN4FxnAtm3q9XrYAY8G+fi+0duapjE5Mc7hPWPMDCgMZ3XUdzk5k2EYNBoNzp49y8LCAs1mc1twj4Z327bDtd17mydm8n2fdrsdHuza6XTo9Xrs3buXr3/965w6dQp182RV1/Poo4+SzWbjm7eIhvF49bt/p8dFtwN4rkO33dhynxBCCCHuHFVB/pP/3v9/nmayMPMpwGFm6WWGq/NonhveTyT4xQXhnM3OcRAYXdcNDwANRmXizxF0mh3HoV6vbwnDQYh3Ng+AjQfRoJO/scrLOGMjQzuG92DeXdM0qtUq586d48qVK+EymP0qHt6Dg1I7nU74G4R2u0273cayLE6dOsWv/dqv8dBDD91QeAdIp9PxTX078v67zMDHA3p8W3R79HqzVsJz3/lzlv/kP/lP/pP/5D/57879d2NpQYjrsPUES9M/RnH4GLnGEjOLPyTTWkLx/f4t+Bvgby6F2E90u+u6VKtVms0m3W53SwVBPujoB8E9eI58Pv+uoyqGYeD7fnhypmBdds/z+gb3oOKd96CClWaCM6v+pb/0l/jqV796wzPtgfHx8fAYguuJhvJ4kI/vE78d3RZsDzRrZTzH3nK/EEIIIe4MFQWkpG6+FJrZMeb3fIhaYYqJ9VcZK55Hv8kzob4b27Z3DPDdbndLR9627fAg1FQqhWFcf949erDq7Ows5XIZy7Ko1WrvGtyj7yHovkdraGiIL3zhC/zUT/0UAwMD8Zd/V8FSkP0Ev52IBvd4eI9XXPz+YJ/gstMo47pOn58DKSkpKSkpqdtd0oEXt5SvKNQKh5nf8xlU1yLZXI3vcssoioLneeGBr+12m1arta2CjncQPoMwuxNN0zBNk263y/z8PPPz8zuOzETDexDgg8sgvEdDfKvVYnx8nK997Wt87nOfQ9d3PsPr9RiGwVNPPRXe3um3FfEQ3q922i8uvm+9shbfRQghhBB3gAR4cVvYepKrhcOsavm+YfBG7RRMA4qiYNs27XabZrMZVjzABzPxwXx6dD4+Std1dF2n0WgwNzfH4uIirVZrS0iPBvfo9Rvpvp84cYK/+lf/KidOnEDbPLPq+6EoCoVCIb657/crGsrjnfjg/rh4WI9u3yiPVqMaeYQQQggh7hS1T1deSuqWlOe5uPbtmZMOgmpw0GcQ4OPBvdPpbOmIBx3yIHwHq9UE8+7BiZWuXr3K6uoq3W53W9c92n2PdtzjB6wG3feg+//II4/wjW98g8OHD8e+mvdO0zSmpqbim0PRIL9TcA/uCy7j26PbovcB+J5Hbf3atj9zKSkpKSkpqdtf0oEXt41CdBX42yNYfrLb7W4bmWm322HAjnbFoweYWpvz8aqq4kcOVi0Wi1vCexD442Mz/bru0RDfarUwDIPPf/7zfPOb32RoaCj+JbxvqVTqXVetiQbxeIiPV3T/4Hq/5wquW3JGViGEEOKuuP6//kLcBD/8n5vXbzSEzQDv+34YloPgHu+AB9uCcB0Eedu28X2fXuTkTNVqdVtgj14PAn8Q4uOhPRreBwYG+OpXv8qnPvUpUqlU/O3flKmpKY4ePRre7vc9iof0nSrYN/64+PXobcvq0mnWw+1CCCGEuDMkwIvbymdr+LtZ8ZDqeR69Xm/L7HtwMGtwGd0eDfLdbjdcl31xcZH5+XkajUbfwB4N8pqmhctI9uu8t9ttut0uIyMjfP3rX+fJJ5+8oSUf3ytN00gkElu2Rb8/wXX/Ot33QL/tO+0T6LbqNCq37yBlIYQQQvQnAV7cRu8/uMeDej/BPq7rhh3voOr1+nUPam2322FIX1tbY2lpiVarFXblgwoOfI1226vVKvV6PVypJtp1D8Z2Hn/8cX71V3+VY8eO3dDX8n6kUilyuVx8c9/X2ymcx0N5fP/gevy+QK9dB9fato8QQgghbh8J8OL22iHY9QuZgevd149lWVu668H1ZrNJo9HYchmE+E6ng+M4VKtVlpeXaTQaW+biox14y7LQdR1lc8WbXq9HOp2mXC5vGctpb6528/TTT/OlL32JmZmZd51RvxmGYZDJZOKbYfN7GO3A+5Eu/E7d+H5hPhrio/eFz9kukvXLmG4Nxd84SZYQQgghbq/bly6EuKke/DuCIBoP9oqi4LpuGMijXfhGo0G9Xg+r0WiEIT5Y073dbrO6ukq9Xg8PRO0X3q3Ng1Xb7TaGYVCv15mbm9vSdW+32yQSCb7whS/wcz/3c+/5zKrv14kTJ0in0/HNW0TDd7/wHuwT3z++T/y5AFZXV/HsDgXDIq/UMPwuyi35UxdCCCHETmQZSanbWreTv3nwaXw0JjpG06+CMZfV1VUuX75Ms9kMu+/Rsiwr7LpXKhV832d9fR3HcWi321Sr1TDEj46O8s1vfpMf+7EfI5lMxt/qbTM2NnZD68n779J5D/bZKaz3u4/NM+FufJ/AVB3yWpO0X8frNcH3tv08SElJSUlJSd18qdu2SEndqtpIeluC3/XEO+zvxvO8LR3w6HhMcFBps9mkXq9Tq9Wo1WrU6/XwMa7rMj09HR4IG+22B5eNRgPHccKufvDYTqcT7nfw4EG+9rWvcfLkyfd9ZtX3a3BwcNtr9vs+xgN7PIzHK35f9Hb8vlqtFm5T8UhrPYYSbdJqBwVn+8+FlJSUlJSU1E2VjNCI2yqIe7oCw6bHoOHF9ugfOG+UbdtbQnyn08HfXFYy6KR3Op0wyAfjMs1mk/X1dRYXF2lvrhoTjNFEu/DBiZ6y2Wx4sGzweslkks997nPhwap3Qzab3bEDH5+Df7cOfFR8e/x6UJ7nUSqVwvsChgppmmT9Grrbwvec+C5CCCGEeJ/UbZFeSuo9Vq76BoZVRbcbFMqvoHp25H6YTDp8bV+dL+8rke6fNW9KcBBrtAMfVNCJD4J8EPSDTnw0sEdDfLfbxfM8HMehWCyytLREqVQKn0PTND7+8Y/z2c9+tu9KMHeKruucOnUqvnmLeFiPV799AkHoj+4T5fs+5XIZz+v/wSyhueS1Fjm1heZb+L637edHSkpKSkpK6r2VdODFTdHcDjOz/5bR5T9koPQ803P/HlBQ8Enh8MnBBl/dV2O1p/Cbl0ZY7N74j9yNdOaDEzn1Ng8ybTabrK6u7hjie5GZ+X73Bbc7nQ61Wo319fVwv+BxmUyGL37xi/zYj/3Yux5AerupqsrMzEx4e6cDfukT0uPVb9/49fjt6Pd+J6oCSaVH1iuT9BrgWvFdhBBCCPEe3HiaEqIPV0tx+cR/R7o1R776GleP/m1AYbh0hf2zf4xbXuQ783n+63IO198aKvuFzPdKVVXyhQFOP/Yko+NT4brtwSozwVhNEMrb7TaNRiMcm+lXQfB3HGfLnH2r1WJwcJBvfOMbfPSjH91xdOVOUlWV4eHh+OZQ9Hvsb468XG+U5t3CelRwX/Bh590YukpW75GjiuE2ZdlJIYQQ4n1S/uSVpe0DsELcINWzOPTWP6FROIljDDA99++oD30cO32aueQEv/Wdf8nrr/wI3/e3zGSrqhqWpmnbLjVNwzCMbZe6rodrq3ueh2amOXDsUU5+4Gnq1TKvPPdnvPnai1w6/yaO42CaJoZhYBgGpmlimia5XI58Pr8lgAdh1PM8XNcNK+jMW5bFsWPH+MIXvsDBgwdvyYePW+WNN97gN37jN8Lb8TDueR6KoqDrOolEIqzo9yb4Huu6Hn7/FUUJtwXf935/bqqq8sQTT7zn4wB6nklPyWBjbP5KUAghhBA3QvvGr/y9b8c3CnHjFHqpaZzEDPnGAr6SYnXqM5SHj9H24NzrL7C2fG1jz0iAD64rioKqqtsuo0E+HhiD5/B9n0c/9FlOPfkJzESKbH6A4w8/wqc+9WmOHjnMm2+8TrWyMZ8dDea+72MYRng7eubVaFmbZ151HIcPfvCD/PzP/zzT09O7KrwHzp49u2MXPPrhKfiexr+3QUX/XK73ZxS/nk6nmZiYQH0PJ67SFRcDC6fXxkVFUY34LkIIIYToQ5aRlLq5wiffbDJanqOVO87Fk3+bZuEwnra5tOFt/v2OmUiiahqqqlDIGOwdyzM2Nsaxxz/J1//G32F6z1663W44ShMcwNpsNsPb0Xn5eNm2zWc+8xm+/OUvX3dU5W5KpVIMDAyEt4NQHb0d7cZHu/PEOvY7ie8bve77Pq1WC9d97yMxquJRSHoMGi0Mt4GqbB4MG/85k5KSkpKSkgrrxttlQvShKAqt3ATze56iOLp1hMJXwL9NCT4Mkfjk0wZ7R9MMZEzW6l3mV6t4vSof+cBD/A//6Df4xV/8RSYmJsIgH5yldafwHsy7j42N8a1vfYuf+qmfuusHq15PKpXquxJONMQHoqE7Hsbj90cfExffVi6XcZz3v1SkhktWa5GliupunARKCCGEEP1JgBc3xVNUavkpbCMVv4tkwiCZvLGxiH5hM6rf/elsjoP7JhjJJag0LebXGvRadVJOiQHTJmmojI+N8ZWvfIV/8k/+CV/84hcpFAp0u13K5fKWJSeDg1eDg1snJib4+Z//eT74wQ9iGDf2NdwthmGQSm3//rP5fQu+d0Ewj3fh4xWIb4/vE73uui6tVit87PuhKgoGNgWtSdqvgr3zyjZCCCHEg0wCvLhtkmmDsYmhvuH7VkhmkrhGgrm1Jo1mk6RTJqs0SJtbR0gARkdH+aVf+iW+/e1v8zM/8zPkcjlqtRqtVotut0uhUMDzPHK5HE8++SR/62/9LU6cOLHlOXazwcHBLQfl7iQI3fEQH9wX3aff46K34/dVq9Vw281QFYWUapPXmqRpoXh2fBchhBDigaZ941flIFZxe3i+i65bvPbiyzi2vaUbHFzf6eDI6EGr8QqeI5lOM3PgGAnfIqu2SOo+6nU+KyiKwvDwMI899hinT59G0zTGx8c5evQojz/+OIcOHeJnf/Zn7/rJmd4PXdd5/vnnsaz+a6wHgTv4vl7vQNbo91ndPCg1vj1eAKZpsnfv3i2vezM0BQwsVLcLioKHBrfpw6AQQghxL1H+9FVZRlLcHo5t0azP8s//x39Is97YEvaCMBgEyPhqM8HShf0qeI6ZfXv57F/6HEl9I4i+V7Zt4zhOGFSDQHsvmp+f5zd+4zfClWiCwB502oMzpb7XpSSjfyaGYWz7c4veHhoa4lOf+hTJZHLLe7sVPB96roal5bE9FTU4SFoIIYR4AMkIjbhtdMNE0XLM7D9wU6EuCOzR23uOHODk44+QSZjvO3QHs+PJZBLTfP/PsxuMjo6i6/1DbfSDU7/xmWgF+/Qbmem3T/R+27bpdrvhtltJVSClu2T9CqZbR+W9r3gjhBBC3C8kwIvbKpsd5Qtf+SX+0he/wJ6D+9FvwQGh0wf38tCpk+wZm4zf9UAbGxsLr8c/9ATigT0ewqO349vil9H7fd+n2WxSLBbD+24HTYW8aZN2iph+G+RsrkIIIR5AEuDFbaXpOsMj+3n48DG+8PlP8KnP/xhDI+9tPXVVVdF0nUwuy/TkAEf3TzGaKWDqN/9h4H5hmiZPPPFEfPO2IB8P7/GK7xN/3E63A9Vq9aaWk7xRpg5ZpUnaq6I6LW77CQeEEEKIXUQCvLjtNE3j4TGNY/oa5flLjO6ZIlPIMTw2ytjkOAPDQ4xMjDEwPBSOsSRSSXIDeQZGh3j4qcd47BNPsf/kUU6dmOHkeIpCvhB/mQfeTktJEgvy/uYYTXyUJrgvKn5fPLjH96/X6+/rhE7vj09SczZWq/FqaMhqNUIIIR4MqvLOSZ2kpG6iXFRcFN9Fwd9WrmNxaGaUzz91kJW5K1RqVQrjw+RGB0kP5kgN5EgWMvQcm2anTc9z0DIJ9EySl154kWf/7BnWVldpl1ZQncY7P8G+v1EPOE3TmJx895GiILxHw/j1Kvq46LZ+11VVpdPp0GhE/nzuAFWBpNojSx3TreNanT4/n1JSUlJSUvdR/dkZWYVG3JyUU8Zcf4GM3sNywEnvRdNNfN/H9TZ+vIqzr3B0XCVh6vzBDy/wW39xkWK5jue6qKqK5/sbK6EEq6KYOolkknQmQ9I0sKtrPHRgnC8+fYTlOuw9+Qk8z8Xr1AAf1xiARA5F7X8g54Pg0qVL/ON//I+p1+vhtmhYv5GVaKKr/QQrzUQvo9ujK9BomkYqlSKTyTA+Ps5jjz22bXznTvB9sDyVnpLG01L48ktGIYQQ9yHtF2UdeHETFN9juHeB8tzLWO0Gw2kY0Krk/XUy3ho5f52cv84f/8WLNFpdpkYHOL5vlPGRQbo9i7VqGzORIJHYWKXGMA2SqSSZTIZkwmTvxBCf+/Cj/LVPHeSJI2MsLJc4d+EqT+5TSNsrZKmSpYbWK+LaFq6WRtEezNl4Xde5cOECq6urW7ZHO+mwMU4ThO6g4stDBivXBNuDxwX3RfdRFAXDMEgmk6RSKUzTJJ/Pk0gktrzunaAooKs+utdFw8d2fFB1WT9eCCHEfUX5szPL0oEX75vnOlx9+Q9ZfeO/MDKYZf/0CBMjeWzbZXapSM928D2fs5eWWCnW2D89wmeeOsGBPWN0exYX5te5uFDmlcvrqKqKbhiYpsHhvWM8PJ1n/3ie4cmj9JQUF996jWefex5d8dkzMQRAPpNkZDBHqdak2baw1TQjh59iev+x+Fu977VaLf7n//l/5qWXXgq3RbvvwaWqqiQSCZLJ5LYOfNCF3yngB935aAfeMAwymQy5XI5sNotpmoyPjzMzMxOG/7vF9RUsJUPXM0E1JMgLIYS4L0iAFzfFdR2+95/+d370h/+KydECB2dGGBvKc3FulZVijXbXomc5jA/nMXWNK4tFMimTj3/gKA8fmmTPxBCD+QyapqJuhitvM3T2LJtSrcWF2VWaTopDpz6MAlxbXqZUabC8tMilC2/SbtYxdI100iSTMtm7/wh/+cu/TCqVjr/d+95v/uZv8sd//Mfh7ejsuu/7uK6Loijh+EywBn48wMdDfLRDHx2j0XWdVCpFPp8PA3wikUDTNPbt23fdA2vvFN/36Tlga3ksEnISKCGEEPc87Rd/9e/LCI1433zfY3Vxjguvv0C13qRUa9HqWrS7Frbt4PuQSZkcmB7hI48cpNuzmVsqs7Bc4eylJb734kX++Lm3uDi7QqvTY26pyJ+/eIH//OybvHh2lotza8wuFlldW6fdanD6g5/k9BNPc/T4wxw6epxarcr81cvoqophaJiGRiqd5dipJ8jl82ibZxC9E0sb7gazs7OcP38+nHffSRDEg1Aev4yOx0QrCPLBGE4ymSSbzZLL5cjn82SzWVKpFJqm0ev1yGQyd70LrygKuqZgKjaK28VXdHw06cYLIYS4Z0mAFzdFVVXwHM698izdThvLdhnMb3S+85kUn3ziKE+e3E+na/PMS29z6ug0kyMF6q0Oq6UGXcuhXGuzvF7j8sI652dXWVip0ulaWLZLz/bI5AY58chTPP7050hk8nS7XVKpFAMDg7gePPfc97F6PUxDJ5kwGBga4fEPfZKpqWkcx2FkZIRarRZ/6/clTdN4/vnnsSwr3KYoypYVYwjW1t9hTKZfRUN8sG8Q3gcGBhgYGKBQKJDL5TaOX0gmcV0Xy7JIpVIouyAsK4Ch+hj0UPDwFQ3fVyTICyGEuOdIgBc3rbQ8yyvP/gGu56GqCmODOTzPY6W4EZr3Tg4zPT7AgekRzs+uYLsuH3nkEI88dIhcfgDFSJNO6iRNjVTSJJ0wUVR4+PQTPPmxz/HYhz7JweOnSWVysBlCO53ORlfddxifnKJcLlGr1cilk4xNTnPs5BOk02l6vR6aptFsNmPv+v7UarV45pln6PV6W7ZHA7zv+xtd6T5jMtEgH++8B9d1XSeZTJLL5RgYGGBoaIjh4WEGBwcpFAphgDcMI/wgYRjGrgjxbB7oaigOqtel1+uhaCYod/e3BEIIIcR7ofy5zMCLkIdrdXA7NfRUHtXMbPYtr+/y2Rf41/+P/wuW7aBpKsf3T2A5DrNLFWzbppBN8bHHj/D0Y4ewbIezl5dYXK0yOpTl6SdPMzjzML3aEkq3CCgsrlZ45pXLfPlrv4gxdBBf2Ti5Uz+/8+//NxqNJk9//FOsLM5z5dzLjI5P8pM//8uYpsnMzAwLCwvY9oNxkp9Op8Pf+Tt/h1KpFG4LDl5lc1lJz/PC8ZcbWUoyGu51XSeTyVAoFBgaGmJkZITR0VGGh4fJ5XKYpomqqjiOg2VZtNtt6vU6yeTGykK7JcRHWb5B109tLjup3MBPvBBCCHF3aX/t1/7+t7evDi/1wBU+qdo59KU/Y/nCc2i1iwyYNhhZPD250baMP2azquuLvPbcH+N6PqqqMDKQRdVNjj72SbrNKtVanYtzq1xbrTBUyHB47xh7JgYpVpp874WzpPw6pw+NUsgkyWeSdC2bc5eXePpYHiU5gKtl4j+3oddffYHnvv8Mb75+hnxhgB///M8yOrmHsckZ0uk0nU6Hdrsdf9h9y3Ecnn322R1Hht6tAx/twsfHZgzDCA9YHRkZYWxsjImJCSYmJhgeHiaTyYQBPkpRFLrdLr7vh8+9m2iKh4GF71q4no+ibS472ednXUpKSkpKajfURoAXDzzftWi//Ud0a8ucvTjLn/3gVZz6ItPpDumEhq1mYYf11ctr1zjz3J/gbQb44YEsmmHwV77yizzy2JMoKFQqFRaX1zlz4RqlapOZ8SFOHZ0mn02SMA0mhnJo2kawm10scXVxnXTKxEmMkMyNxF8y9OaZl5mbvUqv12VtaYFWbY0Dh49y/OFHsG2bSqUSf8h9TVEUSqUS58+fj98FkVGaYCwm3mXvV/rmiZ+CzvvIyAjj4+NMTU0xOTnJ4OAgyWQSTdPwPA/Hcej1eqyurnLlyhUuXbrE8vIyly9fptFoMDAwgGH0/1m6WxQFDNXF8Hv4vo/j8UCfFEwIIcTuJgFeANDtdPjOv/p/MZxPcOLgJIf3jLFaqvMXz79G2l5hPG1hmikcLQ2xkZby2uKWAD8ykEXTdB7/0KcYHhnj+EOnOHTkOO1GhXKlwuJqmQuzK5iGzvBAFs/zcVwPTdXwPZ9Xzs2RTBgMDeQht4dsYecA/8ZrLzM/exUAQ9cwcLB6Xab2H6fVasV3v+/5vs/i4iJnzpyJ3xUKQny0+x7vxAeXpmmSTqfDg1WHh4eZmJhgamqKiYkJBgYGME0TANu2qVarnDt3jmeffZazZ89y7do11tbWKJVKVCoVVlZWuHbtGoZhkMvl0LSdx6PuBlUFQ7ExcPF88BVV5uOFEELsOhLgBQCuY/PCn32XZ198C8t2OTA9ysGZEUxD4+25VV57403G9XXGMj4YWRwttfl7nI0A/1oswKuaziMf/DimmUDVNIaGRzj12AcZGhqk1WiwsrrG2UtLvH5xkWqjQ6dn43oey8UanZ7Dkyf3s39mitzAyMYITZ85eMV3eOOVF5mfn4XNAF/IphgaGePwQ4/Hd38gKIpCvV7n+9///pZtQWgnMkajRdZ0j4Z3Xde3nFk1OFh1ZGSEyclJpqamGBsbI5/Po+t62HG/dOkSzz33HOfOnaPT6YQnj4p2833fp9lscunSJXq9HolEgnQ6vavGapRwrKaH4jl4qPiKdOOFEELsHto3f+3vf7vPaI3UA1aq4uO1K7x98RxXF9c5d2WZVMLg6P5xDu8ZwzR1/uKlC1y9dJ7pZIWhtI6rZcH3qS5f4pXnn9kMawojA5ktAT6g6zoze/Zx/OFHGBgepbi2Sq1WpdpoU6o2qTU6lKst9kwMYho6P3j5HKXVecbSDolUFk/dXC3EtTHsMtnOLK+//gpXr63BlgA/yrGHH38glwdUFIVarcYPfvADXNcNt8cDPJtLSUYPWA2Ce3CCp3Q6HYb30dFRJiYmmJycZHR0NFzfPRhTOnPmDGfPnqXRaIRz84Hgtro5Vx9crq2tMTc3B0Aul9tVK9XAxo+PrrhoXhc8B5+NZScVZeNAVykpKSkpqbtV0oEXAKiqzsieY2RzAzSbddZWlzl7eYlL82sMFjKcPDzFgekRStUmz5+5wOr8eQ4WehSSPpVqlRd+9INIgM+iqtsDPICiqKTTGfYfOMS+A4dYWpilXCrR7Fi0OxamqbNSqtPtWWTTCd64cI3Xzp4nrzYZK5i4rkuqu0DBXsDrVvnBqxe5trox527oGoVcitGhAicePr0R+B9AmqZx4cIFisVi/C7gnUCtbR6YahgGpmmGwT2VSoXhfXBwMJx5Hx8fZ2hoKFzX3bIsarUaZ86cYXZ2Fs/ztoX1nSq437Zt5ufnWV5exjRNstksur67ut3q5rKTitvFB1CNzf/7FEIIIe4OCfAiZJgJpg8e58jJD2LqCtVykbX1Em+8vUij1WVqbIDDe8bYMz7I5YU1zp5/G6+1it8t8dLrl94J8IUsiqbzaJ8AH1AUhaHhEZYWrjI3exXf9zENnYF8mrcuLzOQT/Oh0weZGiuQTSd45ewV1lfmGTXbjKRsjM2JmpfOzjK3VIZIgE+kc8wcfgQzmdr6og8Ix3F45ZVXWF5eDgNzXBDeTdPENE2SyeSW8J7P58OZ99HRUUZGRigUCiQSCXzfx7ZtyuUyb731Fmtra2ibZ28lOLlX5INC/D3Eg7yqqrRarTDIZ7PZXTdWA6CpG0Eep4uiGrj+xgdSIYQQ4k7T/trflGUkpd4pRVVJZ3McfOgJZg4ex7W6lIurXF1Y45Vz87S7Fof3jvHQoUl0TeWVt64ye22FlWIdAFV5Zwb+egE+cPa1l5mdvQJA0jQYG8rz5NOfZn65yutvvc3wQJaDM6MM5FJcW6nwwuuXKVabTI0OkE4meOWtea4ubnSaNwJ8msGhYY48/AGMd3nt+5VhGLzxxhvMzs6GwTl6qW4epBodlwnCeyaTIZfLUSgUGBwcZGhoiMHBwXCN9yC81+t1zp49S61WC8P79SrouAf63e95HrVajUuXLuF5HrlcjmQyGT5mN1AAffNsrp5j4SkaqPq2v0dSUlJSUlK3s6QDL/pSVJXBkXEOPfwE49P76bUbrK0uMbdc5uylJUxD5+FDUxzeM0anZ3NhdhXeR4B/47WXmNtcRSZpGkxNjPL0Rz+B1l5mdnGNF964ylq5wf6pYU4emSaTMpldKvEnPzpHLp3gymKRueVoBz7N9HCaJ09MYRuDD+QKIoqicPHiRS5evLhte3QOPThQNZh3z2QyZLNZ8vk8hUKBgYEBCoUC6XQ6XPbRtm0ajQZXrlyh1WqFq8jEA3m8rrdP9D2pmwe6rq6uMj8/j6Io4Xz8bqLgY6oehm/hOg6KZuKz8XUKIYQQt5sEeLEzzyOpWuwZL3D8+HF0XadSWqdcrXNhdoWl9SqDhTS6pvLG24sbIzRBgFc1Hj19Ej2RRVG3ryATePO1jXXc2QzwI4UMe/dMMzM+yLGZPLlMknNXlnnm5bfJpBIc2jPK0X3jOK7Hq+fnOXdlmWbHAgVMQ6eQSzM2lOXQZBo7vfeBXcvb931efvnlbWegDYJy0IGPjs0EAT6Xy5HP58nlcqTTaUzTRFEUHMeh0+lw8eJF2u32u3beo133+H3Xq+BxnU6Hq1evUq/XyWazpFKpXTdWoyo+puqi4eC6Hv4DetyFEEKIO0v7a7/269/e1peXeqDL91w0t0vCb5JUehiaSiaT4diJhzl09CFUTae0tsxKsUohm+LHPvww2bRJo9ml1bUYLGRQFJ+9eZfRrIZipPA1c/P5t3rj1ZeYn4uM0IwM8PhTTzM6kKa8tsxQIcOpI9MoisIPz1zm9bcXGR/Oc2z/BEf2jpFKmPQsh2a7i6JsnERqIJ9irWoxvO8khvFgBqp2u82zzz6LZVnhtmhAVjdXoOkX4DOZDJlMhmQyGR5Q6routm2ztLREvV5H13WU9xHOo+8heHz8OeId+UqlwtWrV2m1WuEcfvSxu4GKi4GF6tm4vroxVtPn75aUlJSUlNStKOnAiwgfnB66XSVFG1P1t6zEqCgqg4NDPHTyEaZnZkho8PFTUwzm03S7Nj/+0ZMkTINO12Igl+Li7DLnzp9nJtdlKJ/B9o1tZ3N949UXmZ97pwM/NpTlsb0JxrM+hWwSx/Ho9BymxwZZK9e5vLDOy2/NsbhW4ei+cfZPD/PwoSnSKZOltSrjwzl+/OmTjO49QWZ4L8ou69jeKaqq8qd/+qd0u91wWxCKgzXfozPwqVQqDPLpdJpEIhGGdM/zwrn3tbW1bV3wIEwHATx6facKBGH93cp1XZaXl7l27RqpVGpXrlYTLDupuh0UwHI8tB3OXiyEEELcDFkHXgrF91E8G81pkPTqJHUf7TrBV1VVxiam2XfgMC+89Arzi0vsmRhEVRU6XZvDe8d47NgexkfytDpdfvDyBSprC+zJuyQSJp6aBFUDp8MbZ15kfn4eNgP86GCWhw9Nks8mSZgGA/k0mqrwyrk51itNdDMBisbKepnXLy7SbPfYPz3Csf3jHN0/zlqpwaWFNSYGTIYz2sZIg57Y/EofHL7v8+yzz1Kr1baE5iAwR0N8NMAnEokwvKub8+iO49DtdllaWsJxnPhLhc8dD93xcB69TWy1muj1fs+lbL7nbrcbrlaj6zr5fH7bB4q7TVMVdN9GxwZFxfNAUbXtf++kpKSkpKTeZ2nflA78g833UdwWplslrTto6jsB690kkklcNJ750ev84OW3OHtpmXNXlnn+javUW132TQ5x/MAkg/k0l+ZXePXNi/itVaYGTZKaR7J1mdfPvBquIpM0DUaHcowN58FXSCYNrq2UefX8AgtrdSb2HOITn/0JTpx6nGq5yPp6kauLRc6cX8D34cjeMabHB9E1lT/6/us0KyuMJTtk0yaOkkLRdlfH9nZSFIVyucz58+e3heZ+XfigTNPcEt6D7nulUqFarYbP72+ezTX6elHRQH4jFewbhPzoY6PBX91craZerzM7O0utVmNgYIBkMhk+bjdQFNAUH83r4Du9jZNAKe8stSmEEELcDAnwDyrfB6eDZpVIa1a4rvp7oigMj01y8vTjPPrk0xw6dpK1Ypn1YoXL88u8fnERz/fZNzXM8f0TpBIGr5yb4+KlS4yleuSTLq+cm2d2qQSbAX4gn2ZqtEAyYfDDM5f54WuXaTkGx04/xeNPf46JPQeZmJrhxKlHSWVzVIrrVGt1Ls6tsrReZWQgw6E9YxzaM8ZKscYzz5/FtCuMpF0SiQSelnwgVqbxfZ/FxUXOnDnTNxAHIV7dnIU3TRPDMMLwDuB5Xth9X19fx7IsPM/bdlbX4Ha/cBoP6tHqF/Ljt3faFnzAWF9fZ3FxEcuyKBQKmObuOuZBURQMzUenh+/a+KrxQPz8CSGEuL0kwD9wfHBtNLtGWumQ0De6he+XoigkkimyuTyDw2OcOPkoY+MT1EqrFEsVLsyu8NrFa0wM5zkwM8rB6RFsx+HZVy5SLDdZXK2yUtpYQ35jBj7HYD7DC2fnKDVs9h97lA9/5mfYd/Q0ZmKjy6ooCqlUmiNHT3DsxEk8H6rVMovL67zx9iLdns3oYJ4je8dIJnUuzq3y6hvnGdIbjGRUFD2Fp93fYzWKolCr1fjBD36wLQTHu/CapqHrOrquhyvL+L4fHrhaqVQoFothWI9XIN6Rj75ufPuNVnQ8Jr4tuN7tdllYWKBUKmEYxq4cq1EVMFQX3euBouCj3dxfPCGEEA80CfAPEt9FdZok/QamaqPdhoxjGCZT03s4cfJRUpkstfVFKvUmb11ZYWGlzORIgeMHJtkzMcTCSoVXzy9g2Rtz1UnTIJdNUqp3mNj3EE994ic5cvIJUpl8/GVCuXyB4ydOsnfffjqNKsVymavX1jl/dYVMOsHRfeMc3jNGwtT5i5cucOnS24wl2wxkdHwthXefjjUoikKpVOKZZ54Jb8eDcTTERzvybHbfg/GZYrFIp9PZFtzjRSzEx8Xfw3ut6HMQmecPLmu1GgsLCzQaDTKZDOl0Otx3t1AVH9238O02luOiPYDHZwghhLh52rf+5t//tqJsNIOk7s/Cd8FpYboNUmoPTfVva7BRFIWkqfHwnjyPH8xj93osrlZYLtZ59fwCrY7F1NgAeycHWVqvsVZuwGaAHy5kePzxJ3nk6R9naHQS9Qbm1jVNY3RsgpOPPkE+l6fZbLK2tsbZy0u8PbfGYD7Dw4emODgzwrW1Ci++cYmlhavsKfikUyk8PXVfjjXYts2ZM2doNpvbwnA0sAdd9+jPhOd5uK5Lp9NhfX0dx3HCUO9vzsYHRSy4RwN99Dn7BfH4e4rf32/fftuCx7uuy+rqanjA7dDQ0O5brWbzbK5JzcH3bHxFg3DOf/vfXykpKSkpqXhp3/yb0oG/f/n4Tg/NqZNSOhiqFwag28V3bRJOhVznMjlvnZF8gsdO7GHf1DDFapNqo8PVxSIXrq5w/MAE6VSCpbUqnZ69OUKT5wMn9jA1NoynJjZmhm+QYZjsPXCQ4ycfIaGrVMoVVotl3ri0SL3VZWp0gKP7xtk3Oczla0XePH8Zt7nGeMZBM1IbK9bcZ0H+7NmzrKysbAm+0c51EOKDbdFw7rou9XqdWq2G67p9w3twe6dufDTYB88fDeJEOunBPterYN9+Ff26grGa9fV1VFXdnctOAhoOOhaObYPMxwshhLhBEuDvU55joTltTLdGSvdQY6HplvM9VKtCsvk2BXuehNJDVTbWkdc1jT0TQ3z4kYNkUwlqzTYJ0+AzTx3nxIEJRgezaKpCo9VlcjTPq29dwWmuMJF1SSZTeNqNd8gVZeOkU0dPnGTvgUM4Vo9iscjVa2u8em6eTm9jmcuTh6bRdYWXz17l6twcw2aHoXwaz8jf8Gvtdoqi8NprrzE/Px/+2fcLvdFQzGbw9jYPYC2Xy7Tb7TCMR8N7PNDHQ3w0yEffU/T6Tu9rp7rRfYOvq16vc+XKFSqVCtlslmw2Gz7PbqAoCio+puqg+c7GmXNVA+U++RkUQghxe0iAv8/4roPqdUm4dRJKF0O7A2HFaZPuzJHuznL18kXeurTISrHGYD5Nwnyn69ls9yhWm9RbXQ7vm2JyNE+7azE9PsjJI9MUcmkO7xnj8N5R3rq8zAtn3iLhVhhNe+jJHC7aDQcbRVEZHhnh2EOnmd6zn3a7xerqKnPLJc5eWsYwNB46NMWhPaMkEwbFcoV9Y1nc5Bhou2slk/dL0zRmZ2c5f/582PkOxDvZ8RAfhPJGo0Gv19sS0OOd9+uF+UD0djxAB7fjITz63thhacr4NnVzVZ10Ok02myWdTmMYBrVajaWlJWzbJp/P77rVatg8m6uOjYaH6/mRs7kKIYQQW0mAv1/4PngWul0j4Tcxte1B6fbwyfSWKDgLVKpVvvunZ/jTF87zo9evcHTfOJNjA3S6Fq+eX+AvXrnEhbl19h8+wcThx/n9P/wzLs0tU2t2uTi7Qrtr0enZ7Jsc5sTBCZrtLq9fmOfK1asU1AbDuQQY2Y2Z4esEm0QiwejoKJ1Ol5GRUQ4cOsyefQfQNI1KuUi5UuP87ArL61V6lsPEaAFT15lda5McOUAylY4/5T0rn8/z/e9/n16vF267XmCO3u+6LuVyGcdxwgDuum7f8B4P9f2KHcZq+l2Pf8DYqYJ9VVXFNE2Gh4fZv38/U1NTpNNpHMeh0+nQ7XZpNBrMzc1Rr9cZGhoind59f86qsjFWo3ldFHw8VFDezxqvQggh7mcS4O8Hno1i1Uj6TZK6F3Yl7wQFH6+5QtJvkE0lGMynGS5k+PAjBzm6b5yVYp1nX7nEmbdXSOTGeeKjn+PhD3yUiZkDjM8cZGGlzPJ6nUq9wdziGq+/vcil+TXy2RRH942zf3qYZtvih6+cp1FaYizVIWEY+Hp642yufXieRyaTASCdTtNutzEMk2MnTnL46AlU3aC0tsLiSokLc2vMLpWZXSxh+QaHH3rsvgrwmqbxwx/+kGKxuCUgR/UL72x+HyuVShi4+3Xh3y3Mxzvy0SC/k3hXPV7R+4OO+9DQEKdPn+bw4cOoqsr8/Dznz5/nypUrrKysUK1WaTabtNttVldXKZfLTExMhD8nu42qgI6N4rRRFBXHVzZ++7TDn6EQQogHiwT4e5nvobptDKdKSrPR1Dv/j7vrunz/R6/w/PPPk06ZpJImU2MDJBM6r55f4IevXcXyDU5+8LN84KM/xujkHjTDRFEUBgaHeeSxJ3nqQ0+RU5qcu3iFZrvHarnBaxcWWCnVmRob4MD0CAdmRnjtwgJvXriC21pjqqCi6wk8Pd23G2+aZthhbTQaeN7GAbwDg0M8dPI0MzN7aLU7lIrruK5PKmWyZ88MB48/hmEm4k93z9J1nZGREV599VVarVb8bthhBRnf97Ftm0ajsSV0R2unsB7d1u8xwfX4a0fFQ3u/UlWVRCLBvn37ePrppxkbG+P555/nmWee4a233mJtbY1Op4PjOLiui+u6OI6DZVmUSiU6nQ5Hjx5F0/p/ENwNNJWNk0A5XRRNx1d214G4Qggh7g7l2TdX+v8LKnYv38ezWhheC1P1bst67jfK8zxeeel5/v3/9zdJmwoJUyefSZJOJcjmBjh68gmOnHycbGEYdYeOebe6zOUX/yMvvv42+Wyaq2tdFq4t0et1yaYTnD46w09+7BQ922a93OTC7MaqKh95/AQHjp3GyezFNXJhkE+lUoyPj3Pt2jWGh4fxPI/19fX4y9JqNbly6W06rSaZdII9+/aTGxhFuc+6nJ7n8fu///v89m//NpVKJTzjanQZyeBkTsF9hmGgaRqLi4soihIuNRmMq/R7XPDY4Kyu0TJNc8vZXoPL6Amk4iviBH8O0cAffABgc1Tq8OHDnDx5klKpxB/90R9x7tw5Go1G+MGjXwXPWSgU+MpXvsKRI0fuiT9z1wNbSeLqWTxFvyfesxBCiNtD+5Z04O8hPngOilUlRZuEvvGr9rtJURTGJ6YYn5jEV3UGRiYYGZvm0LGTPPXxz3Ho4Q+QSGWue/Cp46v8H3/4PRSnxYGjp/jcF3+RiekZmo0a6+vrzC+XOT+7TCphcnT/OAemR+hZDs+88Bbzs1eYzHQZyKXp+QaqZuI4DtVqFc/zaLVatNvt+EvCZpd+fGKS6T37GJuY3nyfd/kbehsoisLBgwcZHR0NA2480BLrsLM5flOr1bbcHxXvsMe78NH7r9eV7/f80evRMB98mEilUhw/fpzTp08zOzvLd77zHV5++WVqtRq9Xm/b88df0/d9ut0uqVSKI0eO7OoufEBVQFccNL+Ha9twHy57KoQQ4sZIgL9XeC5+r07Sa2IqFtrdbLvHqKrK5PQejp04yUMnH+XIQ6fZd/A46fxAfNe+fNfm8rnXWFtb4fDBvew//igz+w5y4uHTDI2MUq2UWFlZ59zVZS7OrjI1WuChQ1OMDeewHZdnXniLytoC+wZVEokU6fwIqqbjOBtneBUbozT79+/nkUcewTRNLl26FB7Y2i/ksvkBp1qtbtknKh6I+4X0eKDvF+Cj23Z6LSIz78lkkiNHjnDkyBHeeOMNfvd3f5e3334b27a3PC99vqb4a1erVR5//HFSqVTs1XYvFR9DcVC9Hq4Himb0HSMTQghx/9K+9Td//dsb/+cvtSvLB89qYnpNkkoXXd16oOFuous6umGg6wbKeziQttvtcvXCa+hel4mhNFOHH0XRDFLpDPsPHub4iZMoqsLK8hKlSp2zl5dptLocmBrh4J5RhgsZ5paKvHjmLcaSLfbPTNJyzY2l+ERIURSGh4d59NFHmZmZCU921C9UszmiEj2INS66PfrYaFDvF9zj9/d77fhrBl140zSZnp7m4MGDvPXWW3z3u9/l6tWr4eo40cffyG3XdTl9+jSDg4NbXm+3UxTQFA8DG3wH11Mjy05KSUlJSd3vtRngxa7kdNHdBgnaGIqLerfnZW6TerXCc9//HhkTyvUuh099KDyQVFEUsrk8h4+dYP++ffR6PSrVKpfnl3n94iKe5zMzMcjB6WESpo6pq+RMF8sYvm/Wc7/VNE3jwIEDfOADH2BiYoJisUi9Xt/SwQ5GVaIjNHHxkB0Px/GQHg/z8WAffVz8Odn8gDg0NMTevXuZnZ3lD/7gD5ibmwvDe/S147fj90Wf9+jRo0xNTYW37yUK/sayk/TAc/EUXcZqhBDiASABfjfyHFS7genWMBUHTX1nBvh+pNgNLr7+PLOL6xzdP8n+449jmMkt++i6zujENA+dfozh0QmWl65RqVa5OLfKG28voioqruvhuB6zay2y40dI3kNjEXdDKpXi2LFjfPjDHyaZTHLhwgW63W4YcFVVpdVqbQm7UfHt8YDsXyfEv9v16HOw+UEunU4zNTVFpVLhT/7kT7h06VLf8H4j14NSVZVHH32UycnJ8Ou4F6n4aL6F6vXwPB/XV3c8aFwIIcS9T/ulv/nr397emJe6G4XnoDgdEl6TBN37PrgH6tUyC2+/zqGZYVLpLEMzx0mls/HdADAMk737DvDkh54mkUiwvrZGrdbg4vwq8ytlipUmqpni0InHJMDfgCAYHz9+nIcffphms0mlUtlcO98AwLKs+MNghwAfvx1UPKBHK74tHrIBDMNgaGgIgOeff55z586FvzGIvnb0Mf2ux28nk0meeOIJxsbGuNcpioKm+Oi+hY6HhwJsrujT5/9vpKSkpKTu3ZIO/K7g49s9VKtCghaG6j1Q52txXIXvff9HXLx0hSMnHuPwQ4+j9lkVRNM08vk8hUKBXC7P5Mw+Dh45htVpUC4W0TWNXDbDgSMnOHT8FJq+EUDFu9N1ncnJST70oQ9x4MABZmdnKRaLqKqKZVlh8I2LB2hFUbZt6xfMo7f7BfpoBR8y0uk0ly9f5vXXX6fdbm97nWD/622Ll2EYPPLII4yPj3O/UDbP5orVADxcX0VRZf14IYS4n0iAv4t83988i2od06uT0D2093Dw5/2i027w2ks/otWoc+jQQfYdPrHl1/9BgCsUCgDU63VarRaKojA4NMyJk4/w0KnHOXj0BI898TQnHvkgyfTuPMPmbmcYBnv27OGpp55iYGCAcrkczsfv9NugeEDutz16f7+u+07deDY/XGSzWer1OmfPnqVcLof39XuN6Gtdb7u/eRDrY489ds+P0PSjaerGsTNeB8/3Nw5ylfl4IYS4L0iAv2t8FKeFbldJ6/f/nPtOPM9jdfYcbuUKg4U0BycyjO47iaIZKIqCYRgUCgVSqRTNZpN6vY7rulueQzdMBoeGmZrZy9DI2H11JtW7QVEUstksJ0+e5NSpUySTSVZXV6nX6+H9AV2Fv/ZQCx9Iaj6/cKzBxYpBx3lnnyA8B9ejQX2ny+A6m6vhaJrG/Pw8165dC5cHfbdwDqArHuDj+dvv930fTdP48R//cfL5fPge7zeaAgYWiueAquGjbbTphRBC3LMkwN9pvofvdNCtMkmlh6G9E24eRIqisL62xnM//AtaXYtkIsH0kcfJZHObozI5ut0u1Wp1x1lscfsMDAxw8uRJHnnkEVZXVykWi7iuuzFXvRkC9+Q8Hhp2KJgbofv5FZO84WN77wRnrhO0g7De73aw7nu73WZhYYFOpxPeF3/O+GVB9/hbhxfYn2lwprxxTEX8tfP5PJ/+9KfvqXXg3y8NF83rYfc6uL6CqsmImRBC3KvUbVPxUrevPBvVqpDyayR1D1V5sMN7QNF0ul2HcrVF13IYHBxgcHAQz/NYX1+n0WiEIxPizjNNkxMnTvDtb3+bX/7lXyaXy4Uh2/V8zpZ0EqrHvpzNuYrBxycs/vrxFmnVxXEcXNfFdV08zwuvu+7GfbZtY1kWvV6PXq9Ht9ul2+3S6XTodDrYtk2322VtbS38OejXse93mdV7LHQ0vrsw1vd+z/M4efIkmcyDM26l4JExHLJqE9WuoeBt//8pKSkpKaldXzIQeSf4Llh1TLtEUumiSXAP2b02l8+dQVUVCrk0qqpgtyqUSiWq1eq2cRlx92SzWX76p3+ab37zm6RSKTzPI6V7fP14m0tVnbcrJv/jh+o8NmbzW2+bVLobITke2qO3rxfke70ejuOEK+M4jrMthMcr2D5sOPzkZJWFVoKv7Fvedr/neaiqyszMDInEgzdypfoOCb+JYZXwew1A/j9JCCHuJdq3/hsZobldfM8Fq4XhNEjSQ1M3VtQQ73C6TdZm3yCfUjk4M8bJIzNkkjpe6t5f1u9+pGkaBw8exPM8zp8/T8/xuVQzeXLc5ZFhn39zLst/uJyk3HunNxCE5+B6XL8A7m+uPpNIJOj1ejSbTdwdzrYaXH/n0mcy6TCabDFoWiy1TS7UNkZkoq8xMjLCj//4jzMwMBB5Nw+OjWUnPQzFBs/BdjxUXU5+JoQQ9wLlB2dXt/+LKm6Sj+/0UO0mptJDVbYe+CcifJ9WbR2vXWZibASr16EwdYyOo9DpdPBkdGZXWlpa4h/9o3/E8vxl/t7jNmcrBi+tG6x1ti//GaUoCqqqbql+2zRNI5VKUSgUsG172+w720L7O5eG4vNw1uFCU6W5cbxr+NigPM/jySef5Nd+7dfQdVli0ffBRcFVMzhqEkXOYiyEELua9kvSgb+lPMdCdVrodjDn/mCuLnPDFAUzmSE9MM7Y3qNUOuCrOplMhlQqFY5ciN0lk8mQTqd59vvfZ7Wt8/yqQdPe+We9X9c8fl/8tq7raJpGr9cLu+/B/dGKPsb3fVwfXN+n4YC7w+ozpmny5S9/+b5cPvL9UBRQFdCxwO0CCr6iy2o1QgixS8kM/C3iuQ6K08Z0KiT8JqYu//C9F5lMhl6vB0Cn06FUKtHpdBgeHqZQKEiXdJdRVZUPfOADPHzqES5UlRuaoI4G6PgcfL9yHCecg/c3u+Y7zb7Ha6WrYHv9w7vv+xw7doz9+/fH36IATNUj4dXRekVUr4fnbv4aQwghxK4hAf5m+T64PXSrQsKpYKouqnSt3jNVVbd02j3Po9Vqsbq6iq7rjIyMkM/nd+zwijsvl8vxxBNPkEgk8GNd9OsJgng8sMfLcRwsy8LdXMEmCN/RIB+/Ht22U6VSKT784Q+Ty+Xib01sUvBJqA6GXUa1qii+hHghhNhNlB++JTPw75fv2qh2E93voMtHoZsyMDCApmmUSqX4XbB5htB8Po9hGFSrVXq93nsKjeL2uHDhAv/9f//f02g0wnn2fh+y4h3wQLB/fCZe0zQSiQSJRAI1cnbi+J95cLvfZfS1orcfe+wxfuVXfkUC/HtgewqekcdVEyiKvrGMmRBCiLtGYuf74Xtgt9B7JRK0JbzfAbZtUyqVqNVqDAwMMDw8vOPyf4lEgomJCdLpNBMTE2ja9Q+sFO/fxMQEpmluC9bvxu/TKQ86757nhUtLBreD6ve46PboZVDR/aanp/nZn/1ZCe/vkaH6JNw6hlXBt2XZSSGEuNsker4Xvo/Xa6J01km4NUzN69ttFLdPp9NhfX2dbrdLoVCgUChsC+iWZWGaJo7jYJrmlg6uuLVSqRSPP/449OmO9xPvjAfBOjhY2XGc8Lrv+wwPD6Oq6pYwfr3r/UJ+sI+u63z0ox9l79698bclboiPodgkvQZqt4TiypmRhRDiblG3ndpJqm/5rgPdCkm/TlJzUZX4t1LcKa7r0mw2KZVKaJrG0NAQmUwm/DDl+z6VSoWBgQE6nQ6OI/O7t4umaezfv/+GwntcNHx7O8zEBx/AomE8Hsx3Cu/x+z/4wQ/y6U9/etsHPvHeqAokFIuEW0O1auB52/7/UkpKSkrq9pa0Jt+F77n43SoJp0yCNpoS30PcLa7rUi6XaTabpNPpLWM1wUy2ZVnvK1yKWyv+ZxCE62jgjgZ5x3HodDpcunQpXAM+HszjoT16Gd9/bGyML3zhC2Sz2S3vQ7x/im9jei1Mpwx2c2O0UAghxB0hAX4nvo/Xa2DYZZJ+Ew1HRjF2qU6nQ7FYpN1uMzg4yMjICJOTk9i2Ta1Wi+8ubrF3GyOLh/eoaNiOd99t28ayrG3BPR74d6pg/5GREb71rW/J6MxtoCig+RamU8Gwqzi9Jr6cfE0IIW47SaR9+E4X1aqQ9OoYWKgyL7Pr+b5Pu91mfX0dz/Podrs7rmgjbr338uE2HuivF+Kj68D367DHt0XL8zzGxsb45je/yalTp971g4Z4/zRVRfc7pP06htcET8bWhBDidrrxf3UfBJ6D0qtiWEVMv40m3517TjBWU6lU4neJ2+h64Xin+/oF7mB8JgjwlmXR6/XC++Jd9miIj28bGRnhr//1v87jjz/+nj5giPdPU3x0p45hFVGdlpwESgghbhPluXNrO/9++wHhew44PXSvje5bcvbwu+Dd1oEXu5Pruvyn//Sf+M3f/M1wTfd+gT0a0ncK3tF92Ozqq6pKKpUin89vOfjUj3Txg+u+76NpGo7jcPr0ab74xS/y8MMPS3i/S3wULE8Fs4CvJUCRPwchhLhVHvD/R/XxnR50ihsznEh4F+K9UBQFwzDim99VPORHw39wX9CN73a7tFotHMfZ1mmPfhDwfZ/JyUkGBwfZu3cvR48elfB+F22czdXFdCpodn3zbK4PfL9ICCFuiQfyXzff9/FdG79TQe+tk1QdNJlzF+J90XUdXdfjm/uKd+jjwV2JnZUVwHEcms0mjUYDy7LCUZro2E3wXJ1OB13XSSQS2z4kiLtDwcfw2ui9InaziO/a8V2EEEK8Rw9egPc93HYZvVckpXQwtP6/8hd3VvBnEA94YncLxlYGBwehT2e9n3hg7xfeNU1D13UMw0DXdTRNw/M8Op0OvV6PZrOJbdsoikIymSSbzTI4OIjv+xiGQTKZjL+suKt8NFxyuoXpVMFuSTdeCCFuwoMT4H0fz2qhtNdI0cZQZamz3SSTyTA8PMzhw4cZGRmJ3y12sXa7TTqdRtf1LbPpUTsF9X4VBPdEIkEqlSKbzZLP5xkYGAhrZGSEwcFBCoUC2Wx2S8fdMIywQy92H823MN0aSqeEZ3fidwshhLgBqkL83E73X+FaKN0SSbdGQnPRZHmZXceyLFqtFtVqVQ5kvYe4rstLL71Eo9EIT6IVFf2NSjy4a5q2pdNumiaJRIJEIkEymSSVSpFOp8MKtgcddl3Xt824JxIJXNfl/PnzdLvdLfeJ3UPFJ6H0SHl1lF4Vz+5t+/9tKSkpKamd675Osr7r4HWr6FYJky6qIh253crzPBKJBJZlMTY2Fr9b7FKu6zI/P0+tVmNwcJCBgYH4LtvER2WCbnsymQyDeyqVCsO8aZpomoaqquGHgX5M00RVVXq9HisrK9i2zFrvdorvYHpNEm4Nr9fA9zaOZxBCCHF992WA9z0Xr9dA6RYx3Tq64l33H35x9wUzzslkkl6vF79b7FLdbjc80dLS0hLtdpuhoaEb+vvWb6QmCOpBRbv31xN06IMlKBVFkZ+je4SiKGjYJL06mlUGR35zIoQQ7+Y+C/D+5llUq5jhuMw7a0eL3avX69FoNFhdXZWTMN1Drly5siUoO46D4zgMDQ2RzWa37HurKYqCaZoUCgVUVaXVaoVdd9/3mZ2djT9E7GKKAgYWhlNFcxr4joW/+YFMCCHEVvdNgPccC8VqoHaLmHRlWch7TLfbpd1uxzeLXcxxHJ577rltf26NRoNarUahUGB0dJR8Pv+uHfT3QlGUcOQmnU7TarW2vQfXdXn55ZdljOYepOKiO3WU7jrYDfAlxAshRJzy/Pn1e3ow3HMdfKsFdp2krsiJmIS4Q2q1Gv/8n/9zXnrpJTxvY0wtOvISdMgTiQSZTIZqtYplWei6TrfbDVeJURQFTdPCUZr4paqq4QGyuq6TyWRwXZder4eiKPi+v+V1g6Uk9+7dyze+8Q05puIe5qNg+xpKchAPHUWV36gKIQT3dID3fXy3B70aBhaqdNyFuKMuXbrEP/2n/5RSqYTjOBCZVe/XcQ8OSA1m1VVVpVgsMjk5iWEYYegPKuiqm6YZnrRJVVW63e62faOvq0TWhv/iF7/Io48+Gnsn4l7jKyqWZ+CbOVRd1vgXQoh7coTGd238bgWtVyKh2hLehbjDfN9neXmZSqUSLgfZL7RH9Xo96vU66+vrNBoNms0mqqrSaDSoVqvUajXq9Tq1Wo1arUav18OyLDqdDo1Gg3a7Tadz/XXDlc2uv2ma2LbNyspKeKZWce9SfI+E0sO0yzjtEoqM1QghHnD3VID3fQ+7VULprGH6LXT13vzlgRD3Os/zKJfLKJtjLsHZUm9UEMzZPBFUp9PZUt1uF9u2cRxn22oyO52gSVGUcD15XdcBqNfrEuDvIyoeaaWLbpXxrUb8biGEeGDcGwHe93F7DZTOGknamNo7M69CiDvP933m5+fD+fPghEy6rr/nv5vX23+nsB6nqmo4nmOaZvica2trWJYV313c03wUr4vh1FC7JXynC9zYz4kQQtwvdn2A910br1PCdGuYiiOrywixC9i2zWuvvRbeDrrwwVlVo2u4306KoqDrergqTSKRQNM0fN/H930WFxclwN+nVAV0v4PWXUe16ti9649XCSHE/WTXBnjX7uF2KhtnUfXbaLc/Cwgh3oOgOx6E5SBMByH+Rs6e+l4FrxMN7sGZW5PJ5Jbw7nkenufdcBdf3Jt0TUFzGyS8GorTkmUnhRAPhF0Y4DfHZbpFEl4DDQdV3YVvU4gHWLfbDcNxtIJxGsMwwgrm49/r2VWjgln74LmTyWQY3FOpFIlEAlVVw+Duum74/rpdObPn/U4BdBzUXgnNruLbHXwJ8kKI+5jywoXds4ykZ3dRnRaq20GTzC7ErnX58mX+4T/8h7RarS3hPAjowYfuIFBHL4Misuxj8Jj4ZbDCTVBBdz96GQ/uQTmOg+/7fOMb35ClJB8wHio2JmqyAKoRv1sIIe55uyImbywLWUXtrqN7bQnvQuxy0Q53tKJhHUDTtC1nTU2n02QyGbLZLLlcjmw2G1awPaj4/blcLtyWyWTCrns8uEdHZzzPC9eoFw8OFY8EXbRuEVXGaoQQ96G7GpV918HrNXCbyxhuE0N754QsQojdqdfrhQE9Htr7XRIJ8ul0eksYz+fz5PN5CoUChUJhy+3oZT6fJ5PJkEwmwyUigy57UEF4j14Gry8eTCouml2D9hpWqyJBXghx37hLAd7Hd7p47SKGUyNlqEhuF2J3c12X+fl5XnjhBc6ePYtlWds67vFOfBCyg+64HznY1TTNbZ35oNLpNKlUKlzTXVGU8Pls2w4r+tzxDnxQ0hR4wPkehuKQVtr4nRK4siqREOLed2cDvO/juzZuu4zaWd84i6r82yrEruf7PnNzc5w/f55iscjKysqOoT16O+iERzvljuOE4TvaPY92zuP7Wpa15dK27S37xUN88FwS3kVAwcfwu2hWGbddxvdktEoIce9Slc0j+G934XvYrTJKZ50kHXQZlxHinuD7PqVSieeee4719XV0XWdmZiYcZYkG93j3+91CfFCWZW2p6LZ4x71f8I93310ZnxF9KIqC6jskaaNbFdxODTx3279XUlJSUru9bnsH3vc9XKuF31ol4bcwVJlBFOJeYVkWly9f5plnnsEwDI4cOcLHPvYxHnvsMUzTDPfr14GPh/p+IT4e5Heq6H7x4B48d3Ap4V3cCNXrYXoNFKuK02uB/MwIIe4htzXA+66F3ylj2FVM1UWT5WWEuCd4nkepVOJHP/oRP/rRjxgeHuYjH/kIH/nIR9i7dy+VSgXbtsP942E9XkGw3im8x2/3q/hjgyAfDfTBh4jo13HlypXwthBRqgK618GwKyh2Hd9952daCCF2M+XF27AOvOc6+FYT3Wuj4sqojBD3kEajwcWLF5mbmyObzbJv3z7279/P4OAgrVaLCxcu8Nu//du8+OKL4d/t6GVQ0dvB9WCt+Oja7vE15OPP8W6u1233fZ+9e/fyD/7BP4jfJcQ2vmri6VkcDDRNR1ZXEELsVrc0wHuei2e1UZ0mmm+haVp8FyHELnb16lV+53d+h3a7zec+9zmOHz/O+Pg4nucxNzfHa6+9xoULF3j11VcpFovhCZviQb7ftiCUR0N89DJ4rus9Z7/b0W3x+3zf5+DBg/z6r//6lu1C7MT3oeeq6Okh0JPxu4UQYldQXrxYvAUB3sezeyh2E9Vto8nSMkLck/7lv/yXfPe73yWVSvGVr3yFL33pS5RKJc6ePcv58+eZnZ2lXC5TKpVoNBrvGrbj2+IhPl7B/UH1e3z0eYLb8fcR8H2fw4cP8/f+3t/bsl2Id+P5Cq6aREnk8VUdRZERUCHE7nHT/49k9zr43TpKZw3D70h4F7fNLfikKd7F0NAQpmnSbrf53d/9Xb7zne/wX/7Lf+GZZ57hzJkzaJrGT/zET/Doo4/GH7qj+AGt/Wbhb6SiM+5BCXG7qIqP4XdQOut47Qq+58Z3EUKIu+aml5H8sz/8PS68/hyu3Ys/txC3hA9UHIc/WV/nh9Uq7c31x8Wt98EPfpCxsTEAarUaf/qnf8oLL7xAuVzmk5/8JL/yK7/CT/7kT5LNZuMPfU/6HfAaXQYyuC1BXdxtmuJh+m2Uzhputw6+t+3fQSkpKak7XTfdgV9evMb/51/8C/7dv/t3LC0tyT+24pZqui4/bLX4F+fP82+feYbf/I//kd++cIFrvR7SD7v1xsbG+NKXvsTIyAiKorC+vs7+/fv51re+xRe/+EUmJiaoVqs0Go34Q2+ZW/3/Id1ul/X1dTz54CfeJ0UBHQfTa0CnjGd347sIIcQdpf2N/9N/9+34xvfizIs/4PLb51lYWOCNN97Atm1GR0dJJBLb5lGFuFGu73O+1+O3Fxb4szfeYHF5GZpNmJ9nbnaW1+p1WqbJYCpFVteRn7RbQ1VV9u7dy969e3Fdl7/yV/4Kn//855mensayLObn53nttdd48803KRaL2+bU38vf+fi8e3Smvd/lThXfLy46X59OpzEMI76LEDdEwUfFQXV7eJ4LMhsvhLhLbkmAX5i7gu/7tFot3n77bebn5/F9n/Hx8fBsjULcCB9YdRz+a7HI/3b2LMuzszjtNorvg21DvQ6OQ3tlhXNXr/K2puGnUkynUuh9wpt471RVZWpqig9/+MPs378fVVVZXV0ND2TtdrvMz89TLpe3Bez3Ih7ErxfI4/u82/5RmqZRKBQoFouUSiUMwyCdTssqWeJ9U/BRvB44XTzPx/UVVPl5EkLcQbcswAc8z2NtbY3z589z7do1RkdHyWaz4SoRQuyk6rq81Grxb8+f58z583jVKkp07CEI8JsUy6K6sMAbc3OsqiqZTIahROLm58JEqNPpcO7cOc6ePUu1WkVRFHq9HleuXKHRaGwL2O9FPIhfL5DH74vvH98nSlVVRkZGSCQSdDod1tbWaDab5HI5TNPs+xgh3o2iKKh4qJ6FioOvaCiqxsZ0qhBC3F63PMAHbNtmaWmJS5cu0W63KRQKpNNp+cdSbGP5Pm93Ovzb2Vn+84ULNJeW8Bwnvtu2AA9sBPxmk8WrV3m11aKcTjNsmuQNQ/4ZvQme57G8vMxrr73GlStX6PV6aJqGoig4jsPs7CzNZnNbqH4v4kG833PFt/Wr+P1xhmEwNjZGIpGAzZn4UqlEqVRC13VyuZw0GMT7piig+A6e3UJTVBwPVE1+8yyEuL2Ul9++uXXg/7f/5//ED5/5k+seeKZpGpOTk/zlv/yXeeSRR8hkMvFdxAPIBRYchz9ZXeXM5cvUymWUfsE90GrBwkJ86zsUBT+f58DRo3z6kUd4ZGSEQRnhek88z6PRaHDu3DlWVlawLAs2Q6+qqui6Tq/X49lnn2V5eXnL+uv9wvP1KLH14KMhPHje6GX0vvh+OwV43/dJJpOcOnWKdDqN53l0u12Wl5cZHBxkcnKSkZERHn74YfL5vIz8iZuk4PgKvpFFNTIoEuSFELeJ9it/++Y68JVykbkrb9Pr7nxUvu/71Ot1Xn31VZaWlhgYGKBQKMgM6gPKB1qexwuVCv/rxYtcOHuWXrO5dVymnz4d+Dil16O6tMSZpSVmHYfU0BAjuo72HsPlg+rq1avh39PLly+zuLhINpsNZ8aDpR7n5+dvqgMfDdw7VbDf9fbvd1/8dXRdZ2JiAk3T0HUd0zTJZDKsra1x7do1PM+jXC7jeR6jo6NbHi/Ee6UqPprXw3MsFM0ARdto0wshxC100wF+amYfRx86TafTolYpY9sbHbudrK6u8sYbb9DpdCgUCmQyGfn19QOk4/u82GjwWwsLfP/sWZpra/BuwT1wAwE+1GyyPjfH6+vrXFVVpgcGSCuKBPnraLVavPLKKzQaDf7/7P13cJxZeuf5fs/7prdIJLwhAcIQBB3oTRXJarKqu0xXdXdJLY2k6VHf6Zm5WmlHI2m1MRoTNzR795+N2YiZ2b2xGu1oZLatWt3lvWcVi8UiWaCFIQGS8B7ITJi0r7l/wDSRAGHIBAgQ5xPxRkczD4qEy/zl8z7nOdFolJs3bzI8PExBQQFOpxOmKuG6rtPe3s7ExMScEL1U6aF7vmt63VLX3/1xd7NareTn5+NwODBNEzHVBnTr1i0GBgZm+uPD4TAFBQU4HI70/4QkLZuCjtDjaKkEisU2GeQlSZIy5IEDvMViJZiTx47d+8nJL2JksI+xsciCLTWJRILW1lYuX76Mw+EgOzt7pj9VejQZwK1Egn/o7eW169cZam9HSyRggZ+TOZYT4AFhmmgjI/S0t9MQiZBwOCj2+bDPE/KkyTaZ9957j/7+fnJzc8nPzycQCDAxMYHL5ZrVrtLT00MkEpkTsJcqPXTPd02vW+r6uz/ubg6Hg6KiIhRFmTkYarovvrS0FI/HQ39/P8PDw+zYsUO2+EkZZKKiYaZi6LqGYrHLarwkSRnxwAF+mtVmo2RzOdt378NmdzA82E88Fk1fNkssFuPmzZu0trbidDoJBAKyB/UR1JtM8snICC81NtJ86xZifDx9ydIsM8BPE6kUE/39NPf2cimZJODxELDbscoX0lkSiQSnT5/m0qVLjI2N4Xa7cTqdpFIp3G43VqsVMdV3Hg6HGRgYgLSQvVTpoXu+a3pd+vr0/59+pfP5fBQWFs48Ph3iVVUlFovR0dFBV1cXNpuN/fv3ywAvZdz02ElTS5BKaahWGeQlSXowGQvwTL2ouj1ettbupKpmx1Rv6SDJRCJ96QxN0xgaGuLKlSvE43FycnLktJpHRFTX+TAa5ae3b/NlQwMTIyMI/QHOT73PAD9jYoKx9nau9PXRo6p4vF5y5LSaGYlEgi+//HKmut7V1UUqlSIQCMyZ1OJ2u+no6CCVSs0J20uRHrrnu6bXLXX93R83TVVVKisrZ1qAuGtPTnd3N3fu3CESmbxj6PP5OHDggAzw0ooQQqCgY0HDNFKkNAPVaktfJkmStCQZDfDThKIQCOZSu3Mv+UWlDA30Mj4WWfAoc13XaWtr4/r168RiMYLBIE6nc84LsrT2pYAbsRhvdHbybmMjkd5exNQ0kwfyoAEewDTRIhG6Ojupj8UYsdkocTpxqOqGD/JWqxWLxUJfXx8TExOkUilCoRB9fX3EYjFcLtfMCctWq3Xmzfd0u9xyflfTQ/d81/S6pa6/++OmPyYvL29W+0w0GqWnp4fbt28TCoXQdR1VVcnNzeXo0aNs27ZN7smRVpgJZgphJDENHQNFjp2UJGnZRH3r8DKakO9PJBzizMfv8OWZj+iaZ2Z8OiEE1dXVHDt2jIMHD8qjz9cJExjUNN4bGeFsSwsT/f2YC7xpW7bFxkgulxAofj9VO3ZwePdujvr9ODd4eDNNk6GhIT744ANef/11JiYmZh5zOBzU1tZSVlaG0+kkkUhw9uxZuru74QEC/HLHSE4/nh7cp69pHo+H7du3z7QBDQ0N0d7eTjwen3nTMd02c+rUKQoKCmR4l1adZioojiyE1QVC/vxJkrQ06v/7D/91xivw6RwOJ1uqathauwswCI+MEI/H0pfNMjw8zPXr1xkaGsLlcpGVlSVfXNcoExg1DD4KhfibGze42tKCNjKyvA2qS5GJCnwaMx5nuKuL5rY2bjoceJ1Osm22DTutRgiB2+2murqarVu3Eo1GGR0dJZlMomkag4ODDAwMzByAlJ2dTSgUIpFILLhxPV166J7vml631PV3f5zD4aC8vByPx0MoFKK1tXXWXHu73c6WLVt48cUXOXHiBIFAYOZjJWk1KcIEPY4wdUwUDPNXb1wlSZLuZVUq8HfTtBTN1y/zyXuvc/3yRZLJe/fHT/N4PBw6dIhTp05RWFiY/rD0EGmmSUMsxtsdHTT29MDISPqSzMl0BT6Nabejlpby9L59PF5aSpHdjrLBQ930aMlf/OIXdHR0zLTBqapKeXk51dXVqKpKc3Mzt2/fRl/iHoe7A3emK/B+v5/Nmzdjt9vp7e2lp6dn5t+lKAo5OTk89dRT7Nq1C6/XK4O7tGboBmjCjs0TBEW21UiSdG+rUoG/m6Ko5OYXUbtrL1mBIKHhQcbGRhes1iaTSdra2ujo6EBVVfx+vxw7+ZDppkmfpvGTnh7eunmTrrY2RHThqUMPbAUq8HcTuo45MkLrnTtcGx3Fmp2N32rd0P3xNpuN0tJS9u7dS1ZWFr29vcTjcQzDmOmPN02TTZs24XK5GBsbQ1voNN0p6aF7vmt63VLX22w2CgoKKC4uZmxsjDt37swc0MTUNJojR47wne98h9raWhwOx8x/X5LWAkWARegYyXFAwRQqQlbjJUmax6pX4Gcz6evp4uN3X+P85x8zGgkvehvearVSW1vLk08+ydatW2V//CozgbCu89HICBc6O+np6oJMbFBdihWuwM+iKOgFBVRWVfFre/ZQ43Jh2+AvpNMbzV977TU+//xzUqnUzGPBYJDy8nL8fj/t7e10d3cTi927Te7u4P2gFXir1UowGCQ3Nxdd1+nv76empobs7GzeffddXnzxRXRdp6SkhIqKCmw2OflDWvtMQMeK6swCiwM2bBlBkqT5iEsPNcBP0jSN2y1NfPbRO3x17lNii8yPZ6qatnPnTp599lny8vLk/PhVEDcMLo+N8crAAH1tbRiRSPqSlbWaAX6a1Ypn0ya279rFNyoqKLPbsWzwqm0sFuPKlSv88pe/pK2tbaavXFEUSktLKSsrw2q10tHRQV9fH/F4fGbNtPQwPl9An/5vTv/v3Y9brVbsdjs+n4+CggKEEAwPDzM4OIimaZSWlvKd73yH06dP8yd/8ifEYrFFiwOStBaZKCQNFasrgLBMToGSJElSf2+VW2jmoygKwdx8anfuoaCwhOGhASLhhXupE4kEnZ2d3LhxA03TKCwslJW1FXRL03i1u5t3GxsZbm/HjMfTl6y8FW6hmZdhkAyF6L51iy8TCexOJzluN3ZF2bD1MKvVSnFxMfv27SMrK4vx8XFGRkYwTZNIJEJ/fz+KorBlyxaqqqpmTlq2Wq0zVfnpEHJ3KE+/0h9XFAWv10tubu7MG4VgMMjw8DDt7e1EIpOjaoUQOBwOtm/fzve+9z0URVnwboAkrWUCE4swQE+i6ymEakXIaTWStOGtiQr83UzTZLC/h4vnPuOzj96mv7d70cqZ1Wpl06ZNfPvb36ayshKHw5G+RHoAY+Pj/P/u3OHLUAh3KIR6V+vEqnoYFfi7CYE9EKB4715OVFRwIBjEI9tq6Onp4aWXXuLixYuMTr3BEkIQCASoqqqiqKgIu91OKpUiGo0SiUTQNI1QKEQoFJoJ53cH9+nKu6qqFBQUzFTbp98ImKbJ8PDwzKFT07KysigvL+e73/0uO3fupKenh02bNjE8PMzY2NjMOklaj0wTUG0YFjeqzS3HTkrSBrbmAvw0wzDoar/Nx++9zrnPPlx07CRT02rq6uo4ceIEFRUVM2FAejCR0VH+489/zsehEI6aGgIOB85IZPUr0A87wE8TArFpE/v37eNkWRk1Lhdq+poNJpVK8dVXX/Hxxx9z+fJl4lN3aBRFIS8vj61bt1JYWIiq/uordfcb83g8js1mQwhBPB6fdXLq3b/HpmkSDofp6uqatUFVVVW2bNnC888/z/79+4nFYqRSKUzTRAixaBFAktYT3TBQrB404UC1u2be8EqStHGsiRaa+Qgh8Aey2Vq7m9LN5USjUULDgwue5ppMJuns7OTatWtMTExQWFgoJ01kQCKR4OyVK9xpbibZ3c1ELIZeUoJVUVCXODYwIx5GC829RCJ0t7XRMDBA3OUi2+XCbbGs/puaNUJVVYqLi9m9ezd5eXn09/czNjaGYRiMj4/T19dHKBTC7/djtVpnAodhGKRSKRRFwWq1IoTAMAw0TZtVmTdNk1gsxp07d2hvb2dsbGwmlOfm5nLy5Emef/55iouLsVqteL1eEonEgs8XkrReKUIgzBRCj0++vikW2VYjSRvMmg3w06xWK0Ulm9m+ay8Op4OB/l7ii2xyjcfj3L59m87OTkzTJD8/X25yfQCJRIKz165xp78fM5nEHB4mPjzMhNOJkpeHxTBQViPIr6UADwhNIz48TPPt27QAcZeLQpttw06rEUJgt9upqKhg//79mKbJyMgI0WgUXdeJRCL09fWhaRp+v38mpFutVlRVndns6nA4sFgs6LqOruukUin6+vq4ffs2IyMjMzPd3W43+/bt4zd+4zfYs2fPTNU+mUySSCSWPJNektYrIQAtjpGaDPIGAkXZ6PcDJWljUH/vX/3rP0cwOaFqDV8Op5OqrTvYXrcfgNDIMIkF2moMw2BgYIDm5ma6urpwu91kZWXNuoUvLc2sAD/9h9EoRk8PsaEhYvn5KFlZWDUNsZIVTyEmA/waa4cQqRTh7m4aOjsZ0HVcPh+BDXyaK1PheseOHdTW1jIyMkI4HEbTNJLJJIODg4yPj+PxePB4PCiKwvj4OJcuXeLGjRv4fD68Xu/M5tP29nZ6enpIJCYPfbNYLJSVlfHiiy9y/PhxsrOz59xlk5V3aaMQQqBgIPQ4RjIGqgpCRShizuuovOQlr0fnEpdurc0e+IVoqSS3bjbz3us/59rlr0ilFp9D7nQ6+frXv87hw4fJy8uTPYPLEBkd5T/+5Cd8dOUKxnzh2elEqa7GV1xMls2GNRrNbJAXApGTg6uqCqWri4mrVzH6+tJXrQ0WC7YtWziwZw9Pb97MJpsNkb5mg4nFYpw7d4533nmHmzdvzoRrh8NBWVkZW7duxWaz0dHRQSwWY8uWLdhsNrq7u+nr65s1uSY3N5fHHnuMo0eP4vF40v4maZphCP7hH4KEQnPvPBYWJvnWtxae8iWtXyYCw+JCdfhAkeekSNKjSlxehwGeqc1s0fExzp/9hA/ffY3e7k70RU6AVFWVwsJCnnnmGbZv347P55tTuZPmWjTAMxWy3W6s27bhKyrCp2lYkskHq5YrCni9OGtr8ZSWYnW7QdeJ9vUxcfo0qdu3YY1OFjG9XgJbt/L4rl08mZ9PlqKgbOCfNdM0GRgY4MKFC7z99tt0d09OlxJCkJOTw5YtW8jOzp6puvf19REOh2c+3u/3c+TIEQ4cOEBhYaH8vV1EPK7wb/7NZnp7fzVa9/ZtB6mUoK5ugr/5m5ZZ66VHjcAU6mSQt3sRsq1Gkh456zbATzNNg+HBAT4//QEfv/sq4dDilSVFUaiuruaFF16gsrJSnua6iCUF+GlCQFYWzgMH8LvdeONxxP2MnVRVLFu34qqqwh0IzAlshq4TbW0lduYMqTt3Jvvj1xohID+frTU1nNqxg71+P7YNHjx1XefWrVu89dZbfPHFFzPTaoQQWCwWXC4XTqdz1hjJmpoannjiCWpqauRelmXQ9V/9rEWjCr/zO9V0dtrZu3ec//7fW2etlR5dhrCBzTM1dnJjP/9I0qNksgd+HRNC4HJ7qKjeRlXNdmKxKJHwCKm0kx/vNj1DuqGhgb6+PoLB4EwvrjTXvD3wC4nH0bq6mBgdJZmTg2qzYTFNxGLhn8kWFFFQgP/wYbzV1Tjc7jnhHUAoCrZgEEdVFVavl+TIyOThUkv5O1bT+DjDHR1cHx7mjqJQ4vfjUtUN2x+vKArBYJCdO3dSXl5OIpFgcHAQXddnJtFYLJaZsZDPPfccTz75JJs2bZK/n8ukKJNXMqnwV39VwOef+ygtTfLHf9xLcfG9nx+lR4tABz2Olkqgm6Ba5IGHkvQoWPcBfpqqqgRz89lZt5/8ohISicTU2Ml7T6KIx+N0dnZy5coVHA4HwWAQu92evmzDW3aAB9B1iERIdnQQ9XrR8/KwCoF6rzYnISAvD8eOHXh278Y91U6xICFQ7HasmzZhqa6GZBItEll71XjTRBsZoffOHa5HIkzk5FBmt2Nd7PN7hNlsNkpLS6mrq8PpdM5Mq7HZbASDQU6dOsWLL74oD2bLgCtX3Pyv/2sppin4wQ8GePbZUPoS6REnAAUN1UyhJZOYKCiqvJslSevZIxPgp1mtNopLy9i2cw+qxcLwQN+iYydjsRg3b96ktbUVIQTBYFC21dzlvgL8NMPA6Osj3t9P3OuFYBCLac4aOymcTmzV1WTt34+7qAjbfXztLW43jspKHGVlpABjaAgyuZH2QVks6NnZ9Pt8jBoGh30+3DZZCbPb7dTU1LB3716qq6vZu3cvX//619m7dy8ul2veuy/S0nV22vnP/7mIri47Tz4Z5gc/6MfpXEO/F9LqMg3QEwgzha4bKKpVzo+XpHVKXLk9suxMtl6Ypknb7Zt8+PZrXL74BWOjv9oUdy92u539+/fzta99jfLy8sWrwBvAsnrgFyIEorQUV1UVWcEgrmgUpbAQX1UV7qKijPVnavE40atXiZ49Ozmt5kH+zRlguN1EKysZczpJDg6y1+Ph3504QY7Pl750Q5s+mEmG9swwTfhP/6mIH/4wD5fL4Mc/vkFZ2eQoTkkyTTBVB4rDh2L91cnHkiStD+r/8IhV4O8mhCCQnUPtrr1sLq9gLBImFBrGWOCAF13X6ezspKmpiUQiQXZ29oavBD5QBT5dJEKqs5O4aWLdvJnsgwfxZGcjMvhGSbFYsBcVYa+oQHi9GJEIZnThuzArwXQ4SBQVES4vZywWQ+vtRSSTFLrdHC8rwyXbtWYRQmzo37NM+/DDLP77f88H4J//8z6OHx8jg79m0jonBAhTAy0OmJgITCZPPpYkae17pAP8NIvFSkFRKXsOHMUfyGY0HCIcGk5fNks0GqW5uZn29nZ0XScvL2/DttVkMsALQDVNxPAwsfZ2IqEQanY2Lp8voyEeIVDdbhybN+MoLyep6xjDw5O9+StNCLSiIkYrKghbLCT6+mbeQAig0OORAV5aUVarn//5fy6lp8fC9u1R/v2/70IIME0BiEzd7JIeCSZocVKJCcBEtdgzdjdUkqSVsyEC/DSrzUbZlipqd+1FACPDg8SnDom5l+HhYRobGxkeHsbtduP3+zfcaa6ZCvCKEFgUBUVRJg83SibROzqItLczFo1iy8rC6nBktm1JCBSfD0dFBdZgED2RwAiHV6atRlHQvV4mamsZyc0lNjg45++SAV5aDU6njx/9yE8oJAiFrHz8sZ+XXgry0ktBmpqcnDgxmv4h0ganClDMJFoiimKxYiJkf7wkrWEbKsDD5PhBj9dH7a69bCqrIBGLMTw0gL5AZdYwDLq6urh8+TLhcJjc3Fw8Hs+GudX4oAFeTAV3VZn/9qwZChG/cYORO3eIWyx4c3NRM3y3Q7FYsBYW4qyuxlAUUqOjsMibt+UwVZX41q2E8/MZGxtD7++HeUaZygAvrYZYLIHH46amJsSJEwqFhaOUlSUoK0tQUZGgpmbpP/smJoY5ufE1/ffXMA0MDExMFBn2HgkKBmYqiqFrU9V4+X2VpLVowwX4aYqikpdfxPZdeykqKWN8LEJoeHBmI918kskkbW1tXLt2jVQqRW5uLna7fc6L2qPmfgO8gJngvugppIaBOTxMrKWFyPg4pqpi83onD+5Z7GOXQdjt2LdswVFVhW4YmGNjmPME7aUyrVZSBQVEtm8nEo+THBmBqcOJ5iMDvLQasrP9nDrl5sQJk8ceS1Fd3cP+/ePs3z++rPAO0Bxu5g/P/SH1w/Xsz9mPQ50c6xnX4/xl81/ynxv+M+cHz7M7ezceqyf9w6V1SACKmcJIRkkmE6hWu6zGS9Ias2EDPFPVJLvDQcnmcqq37UQIGBroI5lYeFLDxMQELS0tdHR04HK5CAaDj3Rbzf0E+Jl2GSEm22WWKpEgdfs2kZs3GY1GMbOzcbrdi78BWAYhBKrHg6u6GrW0lOToKGZombOxhUDLy2N82zbCbjexvj7M8fFFR1fKAC+thng8TigUYnR0lNHRB2uXMUyDT3o/4fP+z7k1eosjeUewq3b+a/N/5W9b/haLsPDHO/6YSl9l+odK65zAREXD1BPouoFqtU09i0mS9LCpv/+v/vWfi6lfyQ17CYHX66N25162btsJCAYHekgtcCCQYRgMDAzQ1NREb28vBQUFs46Af5QsJ8ArQqAu0C6zZBMTJG/dItLURMLpxOH3Y8303Q5FwRoIYN+6FeHzTU6rWcJprobTSayiglAwyMTICPoyNscKGeClVWAYVgzDghD3ODhtGTxWDxPaBBeGLtAb62V/zn4Q8F8a/gujqVGOFRzjH1f+4/QPkx4hwtQRWgJTT4GYPARKMFmckZe85PVwrg1dgU+nKArBnDx21u2nuGQzo6MRhgf705fNkkgk6Ozs5MaNG0SjUfLy8nA6H62ZuksJ8AJQp8J7xqrlpok5Okq0sZFQby9GVhY2p3NyGlCm/g4hUG02HCUlOKqqEC4XWm8v5jwnxppWK8nyckaLi4kIQWpgYN4+94UIGeClVRCLFZBI5GC3j6Q/dF+2+rcS1aJcGr7EpeFLXBy6SMtoC8cKjvHv6v4dTvXRes6T5hIChJFCT0wAoOkGqiWze5UkSVo6GeDnoaoqhSWb2L57L8GcPIYG+pgYH0tfNsvY2BgtLS00NTXNtNVYLI/GUdULBfhZwX16ukymaRp6by9jDQ1EBgex5+djc7kye7dDCBS3G/umTSibN6Mnkxijo6BpoKqkgkHGamuJCEFseBhzbGzRSv18ZICXVkMy6cUwbDgcmQnwFsVC0BHkg54PGIwP0hfrw6E6+N2q36Uuuy59ufQIUwSYegKM5GRfvGLJ7J1RSZKWRP0f/uhf//mcury8EELgdLnZUlXD1tpdmEBfTyfaPJXZaaZpEolEaG5uZnBwEJ/PRyAQWPdPbvcK8LPGQq7G5xiLkersZOT2bWKJBEpeHg6rNbPz4xUFa3Y2zooKlGAQLRZjPDeXkZISJkIhjJGRRfvcFyJkgJdWQSqV2QAPkOPIIZwMc2XkCgA7s3fypzv/dHV+96U1ZfJl0kBPTiBMA9MEoagIRcx5LZWXvOS1MtdkgJfuSQhBViCbbdvrKK/cyvj4KONjo6RS926dSCaTdHZ2cu3aNcbHxwkEAut67GR6gJ8eC7lqwf1upokZChFrbSXc1saEy4XT78eW4Wk1WCxoHg9DqRQjQ0Nog4MLTpdZKiEDvLQKViLAA5S6Szndf5qEnuDPdv8Zmz2b05dIG4giBBgpTC2Onkoi1OmCSgafiyVJmpcM8EtksVopKCph156D5OQWMNTfw/jY6IJjJ+PxOK2trVy7dg2n00kgEMC+DkPbdIBvGxhAgZk+94f6FK1pGAMDxG7dIjIyAm43Dp8vI9OA4tEovbducef8ecabmzETiftql5mPDPDSash0gJ9+o2632Hmp7SUmtAl+UP0DsmxZ6UulDUhgopgaRjKKEApCzeA+JUmS5qX+/h/JKTTLuex2B5vKKti+ay8mJqHhIRLxhecqT0xM0NzcTFdXF16vF+/0fPN1QtM0Wru6uNPbi2EYiPQFD1M0itbWxuiNG4wZBsLvx+lw3FdbjZZIMNrTw50rVxi+eBFjaCh9yQMTMsBLqyCTAd7hcLBp0yZ0XSe/MJ+/a/g7IokI3y3/rgzw0iwCE/QEeiI61VKjIqaKPfKSl7wye6m/LyvwyyaEwOvzs2P3PqpqthOLRRns713wNFdN0+jr66O+vp5YLEZubi4ul2v1W1Dug81mo6K4GIfdznAkQiyRQH+APvCMM03M8XESjY1E2tvR7Xasfj9Wm21JX1/TMIiEQnQ3NdF55gyJrq7JzasrQMgAL62CTAZ4TdOw2+1MTEyACj9t/imjiVF+rezXZICX5mEiMCAVQ08lEKoNoTz4nVFJkmYT1+6EMtMbsIFFJ8a5Uv8lb77yM7o72tG0e8+PZ2rKTX5+PseOHePIkSP4fL4lBc2HTdN1bnd38+H587x76RLh0VGMtRTkYfK2rceDY+9egkeOUFxWhsXlSl81yTSJj40R6uqi6/JlUsPDsMDs/0wQwN78fP7dE0+Q4/OlPyxJGTExUYSmufH7W9Ifui82m43c3FySqSRf3PoCwzCo8FWgChnMpHszTROhWklhw+bKQrXY0pdIknSf1N//oz+TFfgHZLXZKNlUTt2+Q3i8PkYjYUYj9z7Z0zRNxsbGaGxspK2tjWAwSFZWVkb6t1eSoigE/X52V1WxqbCQ8NgYkbExtLUW4pNJtI4Oxq5eJQoofj/OtE3EeiJBf18fnV9+yeBXX6GPjj7QdJmlkhV4aTVksgLP1MF1NpuNWDSGV3gJOoIoYvltatLGIoQA00A1U6CnMExQZH+8JGWE+vt//GdyjGQGLiEELreHiqptVG3bQXR8nHBomNQiB/0MDw/T0NBAb28vHo+HrKyszM43XwGqqrIpN5c9VVWUBIOMjI8THh9fe9X4RIL47duEb9xgXFGweb2oNhvRoSG6Ll2i5+JFkr29Sz5FNRPEGgjwQghUdbI3daFN2NL6lakArxs6DqeDkuISxsbGJttoJOl+mBqmFsM0UugGk4dACTl2Ul7yut9LVuAzTFFVsgJB6vYfJr+omEQ8wcjwIMYCITEej9PZ2UlDQwNjY2MUFRWt+dNchRB4nE4qS0vZWVmJ2+Ggd3iYRDK5tkKhrmOGw8QaGhju62NiaIjuxkbGbt2aHAu5yv9W8ZADvKIojI2NcfXqVbKysnA6nWvvjZf0wB40wJuYRJNRNEUjaSZJRVPEYgtv1pekxQiYHDuZimJiTh4CJfvjJem+yAC/QlSLheLSMrbv2ovP5yM8MrLo2MlYLMatW7dob29HCEEwGMRqXdtHVQshCHg87NiyharNm0mlUgyPjpJcoU2g903XMXt7iT/kOwUPK8ALIdA0jZ6eHi5evMjnn3/OuXPnUBSF4uJiVFVd8GdTWl8eJMDHtTgpUthcNkxMVE2Fh/crIz2ChAD0BKaeBCEwTDHZkiVbayRpydQ/+KM/k2MkV+oSAqfTReXW7WzfvQ/D0BkeGlxw7KRpmgwNDdHQ0MDw8DA2m43s7Ow131ZjUVWKg0Hqqqrwer2Mj48TmZhYW9NqAPx+eIh3N8QqB3ghBFarlba2Nurr62lubiYejzMyMkJfXx/Nzc309PSQnZ1NTk4Omqatiw3V0sLuJ8Drhs5YYgxhn2xrSEQT2LBhU+XGQ2mFGDpGKkoqHkW1WFFU69zXUXnJS17zXrICvwqmx05u37WHiqpthENDhEaGF2yr0XWdzs5Obty4gaZpeL3edXGaq8Nmo3bTJvZUV2O3WhmfmGA8Hn+oVe9ZNkiAn/45icfjfPHFF9y8eZOxsbGZx0OhEBMTExiGQV9fHw0NDXR1dVFeXr7m27ekxS0nwBumQVSLklJTeLweUokUDhy4rC5U2d4grTABqMLESMXQtcnTXBFizb/WSdLDJgP8KlJVC7n5hew9cJSsQDaj4RCR8MIvsLFYjObmZm7cuIEQgry8PGy2tV0RE0Lgc7upq6xkZ3k5cV2nPxRCS6V46E0aDzvAC7HiAX56mtG1a9f46quvGBoamnNGwXSAn5ZIJOju7qalpQVd1yktLV3zd32ke1tqgE9qSVJKCovDgjAFsYkYbotbBndp1QlMhJFCT0YxTSZHTsoQL0n3JAP8Q2C12SjbUs32XXvIys6hv7ebaHTh6Q6jo6M0NjbS1NREIBDA7/ev+dNcFUUhmJXF3qoqqoqLCY2PMzYxQXKBOw8r7iEGeFUIAk4ne4uLOVRaijXD3z8xVbW6desWX375JR0dHaTuMdc+PcBPGx0d5caNGzQ1NeHz+cjJyZH98evQYgE+oSWI6TFMm0lST5KKpXAIB06rU1Y+pYdKYIKRJBUfRzfNybYaObJUkuaQAf4hURQFj9dPRfU2NpVXkEjEGRrsm1MpvZthGIRCIa5du8bQ0BD5+fl4vd70ZWuOzWqlNC+PA7W1BL1e2oeGiMfjGA8jFD6kAO+0WjlaXMzv7N7Nt2trcWT4Lordbqevr4+rV6/S3NxMNBpNXzLLvQI8U/swwuEw9fX1DA4OUlBQgN/vlyF+HblXgDdNk1AshN1lx2KzYKQM3Iobp9Upq+7SGmKiYCCMJHoqCUKdnB8vSdIM0dAmT2JdC8ZGI1y78hWffPAWNxuv3rNyOm26neb48eMcPXoUv9+/LipnKU3jdm8v75w7x2dXrjAciazuRtdNmyA7O/1PV4QAVEWhODub56qq+Hp5OQGXK6PfJ1VViUajNDY20t7eTjweT18yr1u3btHf35/+x3MIIQgEAjz++OMcOHAAv9+fvkRag+Y7iTWuxUmSxOlyMjo2OlNxlwcySWudKVQUmweLwyfHTkrSFPUPZAV+TbDbHZRuLmdn3X4cDgcDfb3EYgtXUScmJmhpaaGjowPTNMnPz1/zbTWqopDj91O3dStl+fkohsFgOExitcZOrlIFXghBgcfDM5WV/O6+fRzfvBmXzZax8K4oCqlUio6ODi5fvkxnZyfaMr6GC1Xg08ViMW7evElDQwP5+fkEAgGsVqusyK9hd1fgk1qSSDKC6lCxWCxER6MEnAFs6hJ/Hk0TYRgI05zsSb77YwzjV4/JPRPSChGYoCcxjSRaSsMUypo/uVySVppoaJcV+LXG0HXa7rRy+oO3OPvph0SXELRcLhe1tbU899xzlJSUrPkgz9Tt/NHxcT69coWXPv2UzoEBUiu90XWFK/BCCLw2G9uKivjNbdvYnpuLM4PtMkIIFEVhaGiIy5cvMzw8vKzgPm2pFfh0LpeLLVu28NRTT7F582YsFsvamTAkzZiYKCKlObG7r4MVbDYbiWgCC5Zlj4V03LlD8f/2v2GJRAg/9RQD/+SfYFosKPE4+X/91/g++4xESQndf/qnpPLz0z9ckjLKMEGxulAdXlSrQ250lTYs9Q/+WFbg1xqhKASyc9ixax/FJZsYHY0wNLhw2EqlUvT09NDa2ko0GiUvL2/NjwMUQuCw26kuLWVXZSUum43Q6Chj8fjKVXdXsAJvUVW2BYP8xo4d/L/27KE8EMCawSqREILx8XGampr48ssvGX+AQ6mWU4G/WyqVYmBggEuXLiGEWDdvFjeaVMqDTdcQ3hCmbpKKpnBb72+6jBYI4GxpIevDD3Ffu0b4qafQs7JwXbtG6X/4D1iHhhh54QXGHnss/UMlKeOEmDzNVYtPoChiMtCr8jlI2nhkgF/DVFWlqGQzu/cdJDevgKHBfqITC4e2sbExWlpaaGpqmjkEaj2MnQx4veyqqGBbeTnhRILRsTGSK1GNX4EAryoKxT4fJ6qq+L39+zlQWoojg6FWTJ2i2tnZyblz5+ju7n7gNzj3G+Cn6brOrVu3aGhowGKxUFhYiMVieeB/l5QZgyPDVLo1ssYjGKaK1eFJX7IsidJSnK2t2Ds6sA4PkywspPC//lfsnZ1ETp6k/5/9M4wM/15J0kIUAaaWQE/GMCZTPMp9vEGVpPVKttCsE4ZhMNjXwycfvM3pD98iEg6nL5lDURR27tzJ008/TUVFBVbr+tjFH43H+fzaNd784guu3b696IbeZclgC40iBB6bjQPFxXxn+3a25eVhzWAf8HR/8tDQEBcvXiQSiSz45m057reFZj5CCGpqajh27Bj79+8nkUjIIP+QJZNxcsYmyHO7EYbBUDxOxOvFeIDnAFt3N5v/7b/FffUqpsWC0DRGjx2j4z/8B7RAIH25JK0qHSsOXxCh2mVbjbQhqP/jH//ZnwvmHtEqr7V1KULg8fqo2lpLeeVWxkYjjI1GSKWS6d/TGaZpMjAwwPXr15mYmCArKwu3273mD+ixWiyUFxVRV1mJarMxNjHBWDSamVCYgQq8mPo37i8s5J/W1fGt7dvZHAigZvhFY2JiggsXLtDU1MT4+HhmPv8pD1qBTzc0NMS1a9eIRCJkZ2eTlZWFrutL2yQpZZyqWkg4nYxPbUDNcTpxJpPomoYuBOZ9PAfoPh9qNIr3/HmEpmHY7Qz8k3/CRF1d+lJJWnUKBmYqhpZKoFpsKIo653VUXvJ6lC7ZQrPOWCxW8guLqdt3mPzCYoYH+hiNhBcMd/F4nNbWVi5fvozdbicnJwf7Cp0CmilCCLwuF3sqKti1ZQspw2AoHH7wtpoHDPBWRSHf5+PbO3bwT/fuZVt+Ps4HqGqmmw68N27c4OzZs4RCofvapLqYTAd4ptpq2tvbaWhoIJFIEAwG8Xq9GbtrIC2TEOiqyoTVSjQaxWOxkAPYdJ1EIoF+H611lnAY/5kzKIkEWk4Ow7/2a6QKC9OXSdLDYU6e5mokY+h6CtXikEUE6ZGl/sEf/5s/n5vr5bXWL5vdzqayLezYvQ+H08VAXy/xeCz9+ztLLBajpaWFlpYWnE4ngUBgzW9AVBSFoN/P7spKqouLSaVS9EUi6Pcbau8zwCtC4He7eWbLFr6/dy9fKy/HZ7dn7MVBVVV0Xaejo4P6+nra29tXJLhPW4kAP2167GRfXx9ut5usrCw58u0h0+x2xk2TuK7jEYKgw4EZi5ESAkNRltRyoMTj5P3wh7ivXgVAnZjA8HgYP3hQjpCU1hgDU0tgaAlSKR2LzT51muvc11J5yWu9XrICv46Jqbaamu27qKndRSw6QX9/D8YCp7mmUimGhoa4cuUKsViM3NxcXBk+XGgl2K1WSvPzqauqwu5yMRQOE4vHl38I1H0EeIfFwr7iYv7Rnj38em0tRX4/lgwGFqvVysDAAJcvX6axsZGJiYkVr1qvZICfNj3qcmBggEAgQDAYXPHPS7o3U1VJWK2MGwbmxAQ5ViteQBsfJ2lfuG9YaBoFf/mX5Pz856QKCxn6zd/E0d6O+/JlDJeL6M6dC368JK02IQSYOsKcPM1VUa0IZW0XrCRpOdQ/+JM/+/N5gr281tGlKArZwVx27jlAyaYyBgf6GR8dXTAs6bpOW1sbDQ0NxGIxsrOz10WQd9rt7Ny8mbrKSpxWK73hMIlkcsEWolmWEeBVVaUyGOQf7djBb+/eza68PCwZrCRbLBYikQjNzc1cunSJ4eHh9CUrZjUCPFObr3t7e7lx4wY2m41AILDmpyI96gyLhajDQVTTsCaTBF0uPOEwSUBX1TlB3OFwsPmVVwj8H/8Hwmpl9P/8P+l67jm07GyyPvgAT309qcJCYtXVsz5OktYGE1NPYuoJNC0FQkGxWOa8jspLXuvtkhX4R4UAq81GyaZy9h9+HJfbzVgkQiQcSl85wzRNxsbGaG5upr29HSEEhYWFa77dQVEUsn0+dldVUVZUBIZB7/Dw0qrxSwjwihBkOZ08s3Urv7tvH49v3owng3sGFEWZeQN1+fJlOjo6VrRdZj6rFeCnxWIxGhoauHHjBqqqsmnTJoQQS3/jJWWcZrUybrWSikRwut1kA5ZUiriqztrkKrq7CfzFX2Dt7WXs6FG6XnwRw25Hy8rCff06tt5elFSKscOH5ShJaU2arMYboE+OnRSKQCjWNV+wkqSFiMaOsHwFfQRpWorerk7ef+tlvjp/ltDI4tVdm83GwYMHOXbsGBUVFWs+yE8bi0b57No1Xv/sM1q7u0kk7z2ZZ6ExkkIIsu12avPzeWHbNuoKC7FneI+Apmnous7Vq1e5detW+sOrJpNjJJfLarWyefNmfv3Xf53i4mKEEAveLZJWnppMEkgmyVIUzFSKYWDM40FXVdRUik3j44RCIRwVFYy73YyPjwNgHRjAMjICQhCvrMRcJ88Z0gYnBIrNjWL3gGJFlQdBSeuQaJIB/pGmpVI0Xr/M+2+9wtVLF0kmE+lLZhFCEAgEOHz4MI8//jiF62TChGEYtA8M8MGFC7z35ZcM3mtm+j0CvN1iYVMgwG/V1nJ40ybcGdygereOjg6amprIz89nfHw8I4cy3Y+HGeCneb1e9u/fzzPPPIPL5ZJjJ9cAayJBjmGQpeuMKwohTSMVCJCVk8PQ0BAulwur1crIyEj6h0rSumOYYKoOHN4gqkW29knri/o/yhaaR5qiquQVFLFj9z6ygzkMD/YzPja6YGiMxWK0trbS0dGBqqr4/f51MXYy4PGwc8sWtm7eTErTGJ+YIJpejU9robEoCiVeL6eqq/mn+/axp6gIh3Xlbq0ODg7y0ksv0d7eTnFxMcXFxRiGQSKx8BurTFvtFpr5JJPJmbGT0WiU8vJyVFVd8GdTWlmGxcKEqjJumrhNk2yXC3N8nEFNwzAMkskksdjC064kab0QAhRTIxUfRwiBUCyIDA4okKSVJAP8BiCEwO5wsKWqhh11+zF0nZGhQeLxePrSWUZGRrh27RpdXV14PB6ys7PX/CFQqqpSGAyyf+tWNufl0T8+zuj4ONr0ZJ6pAC8At8PB8fJy/sWePXy9spJclwtlhYL7tJGREerr6wmHw9y8eZORkRHKysooLi5mdHQUfYEJQpm0FgL8tLGxMW7fvk1PTw9Wq5Xi4mJZjX+YhECzWBgTgmQ0isvjIW6zrdrPpiStNkWAmYqTSsZQVAuKapnaKShJa5cM8BuIEAKvz8/23Xup3rYTgN7ujgVfmA3DoL+/nxs3bqBpGj6fD6fTueaDvM1qZVNBAfuqq8nxeBiMRJiIxzG9Xlw+H7V5efxg716+U1tLaSCAukqfz3SAT6VSmKZJJBKhpaUFh8NBVVUVTqeTaDQ6f/tPBq2lAM/Uz1lfXx/Nzc309vaSl5eHz+dLXyatIlNRSNjtRBMJtFX6/ZCkh0mYOkYqTjw2MTN2UhYSpLVKBvgNSFUt5Obls33XHoK5+YRHhgmHFu5pjcViNDc309zcjKZpFBYWrvlxgEIIvE4nNeXl7NyyBc00CVut/MbevXx/zx52FBTgyPAm1cXcHeCnGYZBZ2cnra2tBAIBtmzZgmmaK9aq4PF42Lx5M93d3bP+HWtBKpWiq6uLixcvzpwa7HQ6V/wNjXRvxir/jkjSw2WioGNoCbRUEot1+hAoSVpbRHOn3MS6kZmmSV9PF+e/+IyP3nuDgb7eRXuQLRYLmzdv5lvf+hZVVVU4HI70JWtSNB5nMB6nxOdbtYp7utbWVv7qr/6KaDSa/hBMjZgsKChg//795Obm0t7eTiwWW/R7shRut5vy8nIef/xxgsEg169f5xe/+AVNTU0zU0XWElVVKSoq4vnnn2fr1q2oqiqDvCRJq8Y0QbHaUR0+rHYXyCAvrSHq//gnsgK/kU231VRt3UZ1TS2KotDT3bngXHLDMAiFQly7do3BwUF8Ph+BQGDN32q0WixkORwr3ue+kPkq8Hebns1/+/ZtUqkUW7duxe/3E4lE7jvECyEoKSnhmWee4dixY+Tk5GC32yktLeXw4cNs2rSJrq4uwuFw+oc+VKZpMjo6Sn19Pf39/RQUFOD3+9OXSZIkrQghAEPHTCUw9BRJTUe1rNyQA0laDhngJZg+HCknj2076ti8eQvRaJSRoYEFK57JZJLOzk6uXbvG+Pg4BQUFOBwO+eS2gMUC/LTpvQdtbW3ous6ePXvQdZ1EIrHkIK8oysxI0GeffZZNmzZhSWuHcDgcbNmyhQMHDuDz+ejq6lqx1p37ZZomfX19XL9+naGhIfLz87Gv0JhPSZKkuSZPczW0OIpgalqNPPNAerhkgJdmsVqtFG8qY2fdPhxOJwN9vUQX2ewYj8e5c+cOXV1dmKZJfn7+nKAoTVpqgJ8Wj8fp7e1lYGCAgoICysrKSCQSi46dVFWVQ4cO8cwzz7Br1y5cLlf6khlCCHw+Hzt27GDnzp1Eo1Ha29vTlz10sViMjo4Orl27Rm5uLnl5eelLJEmSVowA9GQMLRHDRIBQUGSQlx4SGeCleTmcTrZu28HOuv0IRTA8PEhigbGThmEwMDBAc3PzzNjJrKysdXOa62pZboCfFolEaG1tZXBwkJqaGnJycohGo3NanWw2G2VlZTz//PMcPnwYv9+/5IlBqqqSn5/PgQMHqKysZGBggMi9DsR6iGKxGP39/Xg8HoLBIIqiyGq8JEmrQgiBwMBIxdESMRRVBUWVG12lVScDvHRPQlHwZwXYsWsv1TXbGY2EGRrsXzDQpVIpenp6qK+vxzAMsrKycLlcMmBNud8Az1QrSSQSoa2tDa/XS3FxMQ6HY6blJSsri1OnTnHy5EmKioru+82TzWajvLycxx57DI/Hw+jo6Jo5eVNVVfbs2cOxY8eIRqP09fVRUFCw5DcpkiRJmSAAgYGejKJrGopqnQzzkrRKZICXFqWqKjm5+ezes5+cvAIGB/qITowvGOQ1TaO1tZWmpiYcDgfBYHDNj51cDQ8S4Kclk0na2tro7OwkJyeHzZs3U1FRwTPPPMO2bdsysg9BCIHT6aS2tnamrWZwcJBk+sm2q6iiooJjx45RXFxMX18fAwMDZGVlUVhYeN9vViRJkh6EADA0tOTk+R2KxSar8dKqkAFeWhIxdZpreUUVdfsO4fb66OlsJx6/94bH6Skily9fpquri6ysLPx+/4YOW5kI8NNisRi3b9+mr6+P3bt3U1ZWhsfjSV/2QBRFITs7m8OHD1NcXEwymWRwcHDBw78ySQiB3+/na1/7Grt37yYcDtPX1zezByArK+uB7jZIkiRlgsDA1OLoyclWU9VimxpjI0krQ9zojCxtpIUk3SWVStJ6s4l3Xn+J61e+Ynx8LH3JLNNBbOfOnTz11FMbNnQtNgf+frndbrZv385v/MZvUFFRQTAYTF/ywEzTJBwO89FHH/GLX/yC3t7eBe/CPCiv10tNTQ3V1dVomjazSfpuZWVl7Nu3D6vVOuvPJUmSHh4BFgeq3YvdmdmiiiRNU//ln/wbWYGXlk1VVXLzCti99wBFJaUM9PUwGgnPCVh3i8fjdHZ2cuXKlZlTNu12e/qyR1omK/B3S6VSdHd38+mnnxKNRsnLy8Pn82W0N3y6rWbbtm0cPnx4phofX2Bz8/0QQlBVVcXJkycpLCyko6ODcHj+ny1ZgZckaU0yNDCS6JqGapOnuUqZp/7L/+nf/PnUbgx5yWvZl9Vmo2RTObvq9uN0uRno6yUeW7i6HIvFaGlpoaWlBSEEwWBww1RQVyrAT9M0jZaWFi5evEgymSQ/Px+Hw5HxIO/z+dizZw+7d+9GVVU6OjrmTMRZLkVRyM/P58iRI9TV1TE4OEhXV9eC7ToywEuStGaZBoYWx9SSaIaOoloRijLndVRe8rqfS1bgpQcmhMDj9VG7s47anbvRdJ2R4UESiXtXZlOpFENDQzQ0NDAyMoLP5yMrK+uBN1+udSsd4Llr78GlS5doamoiNzeX7OxsLBZLRr++VquV/Px89uzZQ0FBAYODg/c9rUZVVY4dO8ahQ4fQNI2Ojo4lHSglA7wkSWuZEALT0DBSMfRUEhMF1WqdSmGSdP/UP/yTf/Pn8wR7eclr+ZcQBLJz2FW3j7ItlYxGRgiNjCxYQdV1nY6ODpqbm0kkEmRnZz/SYydXI8BPM02TwcFB6uvraWtrw+/3EwwGMx52rVYrlZWV7Nmzh7y8PHp6ehgbW3hPxLTpk2BfeOEFgsEgt2/fZmxsbN52mfnIAC9J0nogmGyrMVJxwESgoKiWua+j8pLXEi9ZgZcySgAWi5WCohL2H36crECASDhEaGQ4feks0WiU5uZm2tvbMQyDvLy8R7KtZjUD/LRYLMadO3e4cOECIyMjbNq0KeNvkqY3KW/bto2qqioURaG7u/uen6cQgpycHJ577jlKSkro7e2lt7d3wTd785EBXpKk9cXESMVJJaIIoUy21WTwuVjaOGSAl1aEEGLyQKCKanbs3osQMDw0QHyRtojh4WGuX7/OyMgIbrf7kRs7+TAC/LRoNEpTUxM3b95E0zSCwSB2uz2j/fGKolBYWMjevXspLS0lGo3S398/q6Lu9/s5ePAgBw8eZGRkhP7+/vueLy8DvCRJ65HARE/GSCaiKBbrZE0+g8/F0qNPBnhpRSmKgtfnZ8fufZRtqSIem2BocGDBSqthGHR1dXH58mXC4TC5ubl4vd70ZevSwwzwTLXV9PX1cfHiRW7duoXD4ViRAGy1WikvL+fgwYNYLBaGhoZIpVLs37+fQ4cO4fF46OrqeuBxmjLAS5K0nglTR0tE0VIJLDYHQpHPZdLSyAAvrQpVVckvKGJn3T6KS8sZG4swMjS4YK/z9ImjHR0dqKqKz+fDbrev69uNDzvAT9N1ne7ubq5du0YsFsNut5OdnY0QImNfXzE1dnL37t1s3bqV/Px83G43/f39DA8PZ2SGvAzwkiStdwITYWhoiSjJRHwqyMtqvLQwGeClVSOEwO5wsql8CzW1uxBCMDjQt+BprkyF3mvXrtHR0YHT6SQ3N3fd3mpcKwF+WjQa5dq1a1y/fh3TNMnLy8tof7ymaYyPj9PY2EhbWxu9vb0PPG7ybjLAS5L0yDCNySCfjGMYBhabfWpnmSTNJW52y5NYpYdD0zRabjTyyQfv8OWZj5fUTuHz+dixYwff/OY3yc3NxWKxpC9Z027dusV/+2//bUmf62qzWq1s2bKF3/3d36Wurg6P5/5PEDQMYya419fX09PTk9HgPk2exCpJ0qPIRKDaXNjcWagWG2SoqCI9OiYPcpKkh0BRFHLz8tlZt5eiklLGx8cYHOhLXzZLIpGgs7OT5ubmmRNHnU5n+rI1SwjB+Pg44XD4vjdurhTDMBgeHubChQv09PRQWFiI0+lc9vz4ZDLJ7du3+eSTT/jss88Ih8MZaZeZj6zAS5L0KBKAqacwtAS6rqEZJharLX2ZtIGJFlmBl9YA0zQZGR7i3Oef8N6br9Lb07VgfzxTffXFxcU8++yz7N69G4fDkb5kTUokEjQ1NfHBBx+sWGX6QQkhKCoq4qmnnuKFF14gEAgsGpJ1XWdoaIhLly5RX1/P6Oho+pKMkxV4SZIedSYgFCt2TwCL3YUQ67OFVMos9Q9lBV5aA4QQuFxuKqtrqN2xG8Mw6enuXDDcmqZJJBKhubmZwcFBfD4fgUBgWdXih8FisZCfn8+uXbtwuVyMjY0t+eCj1TQ2NkZDQwM3btxA0zSKioqwWCxz9h9Mfx+uX7/O22+/TWNjI/H4vU/hzSRZgZck6VEnmOyPT8XGJk91NUFVl3dnVHr0yAAvrSlCKGQFgmzfVUdF1VbGx8YYHY2QSt273SSZTNLZ2cn169cZGxsjEAjg8XjW9JObEAK73c6mTZuoqqrCZrMxMjJCIpFIX/pQGYZBb28vV65cobW1leLiYnw+H6qqzrQDtba28s4771BfX084HF70zkkmyQAvSdJGIYSYbKtJxSZb4hUVIZQ1/VonrRzR0j26eq+2krRMo6NhLn55ljdf/nu6OidPaV2IEILc3Fyef/55du/evW7mx2uaxq1bt/j8889pbGxcc/3x0zZv3szjjz/OqVOncDgc1NfXc/HiRVKp1KoG92myhUaSpI3KMBXsnmysDjeKur4GOkgPTgZ4ac0zDIPe7k7eeeNlvjx7mnBoZNGw6HK52Lp1K0899RSVlZXrJuBNTExw+fJlzpw5Q09Pz6Kf58OgqipFRUXU1NSQSCQWbHNaaTLAS5K0oQkFU1hweLKx2J2yP34DkS000ponhMDnz2JX3T62bttBPB6jr7d7wWp8KpWir6+P+vp6dF0nEAhkdL75SrHZbJSWllJdXY2iKIRCoTXXVmOaJhMTE/j9/jn98KtNttBIkrSxmQhTR09G0ZIJVItNVuM3CNEqK/DSOhOdGKf+4pe8+suf0NnRhrbIoUiqqpKfn8+xY8c4cuQIPp9vzQd5pqa6tLW1ce7cuTV1+BNTX9O6ujrsdnv6Q6tKVuAlSZImmaaJYrFhKnacnoAcO/mIkxV4ad2x2myUbi5j74HDeLw+ujrbiMfufZqraZqMjY3R1NTE7du3ycnJISsra81XbRVFITs7m+rqarKzs2fmx68FiqJQUFDw0A/SkhV4SZKkSUIIMA0wkpObXWEqxK/9gpW0fKK1R1bgpfUrlUrScqOJd994mSv1FxgfX3gcoxCCrKwsamtrOX78OBUVFesi/JmmycjICJcvX+aLL75gaGhowRailbYWKvBCCCoqKqirq3vobyQkSZLWHCFQ7Z7JE10d7nVx51laOlmBl9Y1VVXJzStg74EjFBYXE4/FGR4exND19KUz4vE4XV1dNDQ0MD4+TkFBwZo/zXVyTr6LsrIyqqqqME2T/v5+9AU+z5X0sCvwTqeTsrIyKisrcTqd8oVJkiRpHqaWJBWfwDQNhFBlf/wjRAZ46ZFgsVgo3VTOrrq9+Hx+Bvr7mFikGh+Lxbh16xYdHR0IIQgGg2u+l1oIgdfrpaKigk2bNhGLxQiHw6tejX9YAd5isZCXl8fevXvZsmXLutiYLEmS9DAJAYaWwNASCEUgFIucVvMIkAFeemQIIXA6XVRv20HN9p2YpsnQ4ACJxL1PBTVNk6GhIRoaGhgZGcFms5Gdnf3Qp6ssZjrIbt26FZfLxdDQELEF9gFk2moHeCEEgUCA2tpaamtr18QEHEmSpPXENHRSiQm0VAKhqKgWi+yPX8dkgJceOUIIAtk57KrbT3XNdsKhIUaGhxdsN9F1nY6ODm7cuIGmafh8vjV/miuA3W6nrKyMmpoaLBYLIyMjq3II1GoG+Ol2md27d1NQULDm75JIkiStVQLA0EjFo2haElW1gRBr/rVOmkvckptYpUfcxPg4n37yHh+99xZ3brUsejiSoigUFRVx8uRJDh06hMvlSl+yJqVSKdrb2zl9+jRNTU0rGuRXYxOrxWKhqKiIrVu3kp2dLV9gJEmSMswUKlaHF6c3INtq1hn1X8kKvPSIs9lsbKmoZmfdPrKDOfT2dhOdGE9fNsM0TUZHR2loaGB4eBi3243H41mVavODUFWV7Oxstm7dSk5ODiMjI0Sj0UXfsNyPlazAK4pCMBiktraWmpoavF6vDO+SJEkrQGBi6kliE6MYgGqxyiC/TohbvbICL20cmqbReP0K777xCvUXzpFMLnzKqRACt9tNXV0dzzzzDEVFRelL1iTTNIlEIpw7d44vvviCUCiUvuSBrFQF3ul0smXLFqqqqrDb7TK4S5IkrRIhVITFjt2ThdW+tiezSTLASxvU6GiESxe/5KN33+RG0/VFTzkVQpCfn89jjz3GsWPH1s1prpqm0dnZyenTp2lubiYajaYvuS+ZDvAOh4OSkhLKy8sJBAJyg6okSdJDIhQVi9OLw52FUNb+OSkblfqv/lS20Egbj93uoKxsCzt378HlcjPQ38vEAm01AOPj47S2ttLR0YHT6SQ3N3fNB01FUWamt+Tn52ds7GSmWmiEEOTl5bFjxw6qq6txu+VhI5IkSQ+VaU6NnUyS0jRQ1HVx4OFGI27LCry0wRmGzp3WFj58/y0+/fh9ohMT6Uvm8Pv9VFdX8+yzz1JSUvLAQXY1TLfVnD17li+//JJwOHzf/fGZqMD7/X7Ky8vZtGmTPIxJkiRpDTIBi92F3ZWF1eaYHCovrQmyAi9teEIoZAdz2Fm3j9JNZYxGIgwO9KUvmyWRSNDT00NrayvRaJS8vLx1cZqrw+GgsrKS6upqNE0jHA7f17SaB6nA2+12tmzZwu7duykuLsZms8nwLkmStAYJwNRTJGKTByOaUxtdpYdP3O4du78SnCQ9gkzTZGR4kC/OfML777xBb3cnmqalL5tFVVVKSkp46qmnqKurw+12py9ZkxKJBG1tbZw+fZobN24sug/gbvdTgbdYLOTm5lJdXU1eXp68JStJkrTOCNU2OXLS4sAig/xDJQO8JM3D0HX6+nr54N3X+fj9t4iEw+lL5lBVle3bt/PMM89QUVGxbg4cisVi1NfXc+7cOdrb29MfntdyA3x2djZbtmyhpKQEh8OR/rAkSZK0TpimCaoNtz8Xi80hx04+JOq/+tN/K1toJCmNUBS8Ph/VNduprN7G6GiE0UiEVOre7SamaTIwMEBDQwNjY2MEg8F1cZqr1WqltLSUqqoqrFYroVCIeDyevmyWpbTQCCFwuVwz7TKFhYULrpckSZLWPiEEwjTQklFSyQQWq31qoMPafq171IjbfbICL0mLGRsbpf78OV5/+e9pu9266BQXIQS5ubk8//zz7N69G6/Xm75kTdI0jVu3bvH555/T2Nh4z/74xSrwQgg2b95MVVWVHAspSZL0CBOqBdXmxuXLlmMnV5EM8JK0RKZp0t/bw8cfvMOH775BaGR40SkuLpeLzZs38+STT1JbW7tu2kcmJiZobGzk7Nmz3L59e87nea8Ar6oqWVlZVFZWzmxQlSRJkh5tpmmi2pwIqxO3N4CQRZsVJ1toJGmJhBB4vD5qt+9i+87dRKNR+nq6FqzGp1IphoaGuHLlCtFolNzcXFwu15pvq7HZbBQVFVFRUYGiKIRCIRKJX51aO18LjcPhoLa2lh07dpCbmyvbZSRJkjYIIQSmoYGWREslUVUriipfA1aSuCMr8JJ0XyYmxqm/cI5Xf/kz2ttuoy0yxUVVVfLz8zl27BhHjx7F6/Wu+SAPoOs6bW1tfPnll1y9epVoNDqrAm+z2SguLqaiooLs7GzZLiNJkrSBmaaJarWj2lzYHB6s9vVx53m9kQFekh6AaZpEwiE+fO8tPvvkQ9rvtKYvmUNRFCorKzl27BiHDh1aN9NqkskkN27c4NNPP6W1tZW9e/dSXFxMdXX1nGq8JEmSJKFYsLuzsLu8KLI/PqNkgJekDNBSKTo723nn9Zc4d/ZTRiOR9CVz2Gw2Dhw4wPHjx6moqFgXc9FN02R0dJQbN26Qk5NDYWHhmj/ASpIkSXqYBFanB5vTNzV2cu3feV4PZICXpAxKJhJcPH+Wj95/m6uXvyJ1jyku04QQBAIBDh8+zOOPP05hYWH6kjVpelOrfCKWJEmSlsJEYHf5sbt8qFY54OBBiTYZ4CUpo6bbas6e+YS3X3+Z7q6OBTe6MhWEKysreeKJJ9ixYwc+ny99iSRJkiSteyYKTm82NocbRbXIQtB9kgFeklaIaZr0dHfxxis/59znnxIKjaQvmcNqtVJbW8uTTz5JTU2N7CuXJEmSHkECFAtuXw42pzv9QWkJZICXpBWWTCZovdnMh++/zWcff0Ay+atxjPcSCAT42te+xv79++VIRkmSJOnRJBQsNhcuX/ZUNV5OMVsq0dYvA7wkrYboxARnPv2I9956jdabzekPz6EoCoWFhTz22GOcOHECl8uVvkSSJEmS1j3FYkWxOnFPBXlpcTLAS9Iqmmyr6eTc55/x/juv09/bM+eU03QWi4XNmzfzwgsvsHXr1jmnn0qSJEnSemcCFqsDu9uPzemW1fhFyAAvSQ+Brum0tjTx4Xtv8+nH7xOPxdKXzOH1eqmrq+Ppp5+mqKgo/WFJkiRJWveEomK1uxFWBw6XRx4OeA+irX9cBnhJekii0Qkuf3We9995g+tX6kktcpqrEIL8/Hz27t3LqVOnCAQCcge/JEmS9MgxETg9AWwuH6plfRx4uJpkgJekh84kHArx/tuv8f67bzLQ15u+YA6LxUJNTQ2HDx/mwIED2Gxypq4kSZL0aDFNE8Viw+7OwupwY5FBfoZolwFektYEXde5c+smH773Nl+cOU04PLJof7zL5aK2tpZTp05RUVGB1Sqf3CRJkqRHjBBY7W4c7ixUqw1FWfsnl680GeAlaY1JJpO03Gji5z/9Oy5/dT794Xk5nU6efPJJjh49Sl5enuwZlCRJkh45hgk2pxeHOwub3ZH+8IYi2gdkgJektcY0TcKhEc59/ilvvf4yPV2daNrC/fGqqlJYWMjTTz9NXV0dbrc8HEOSJEl6xAgBQsXu8uH0+Dfs2EkZ4CVpDTMMg4G+Xk5//AFvv/5LQiOLn+aqqirbt2/nmWeekW01kiRJ0iNr+hAo1ebYcAMdZICXpHUglUpys7mRN1/9JVfqLzI+Ppa+ZBYhBFlZWWzfvp2vf/3rFBUVoaqyZ1CSJEl6tCiqBVOx4nD7cbq96Q8/skSHDPCStG5MTIxTf+EcL/3DT7hzqxXDMNKXzCKEIBAI8M1vfpP9+/fj9W6cJzdJkiRp41AsVix29+Rprhtgk6sM8JK0zpimSV9vNx9/8C7vv/MGI8NDS5pWU1ZWxqlTp6itrcXh2NibfyRJkqRHj2ma2BxuVLsLp8v7SPfHywAvSeuUYRjcudXCm6+9xIUvzxIJh9KXzGG329m/fz8nTpygoqJCTquRJEmSHkkWmwur04vT7X0k++NlgJekdS4Wi3HtSj2v/fJnNDVeX/Q0V4Dc3FyOHTvGkSNHCAaDj+STmyRJkrTBCRWXd+oQKKs9/dF1TQZ4SXoEmKZJJBzi4w/e4ZMP3+fO7Zb0JXMoikJlZSVHjhzh4MGDuFyu9CWSJEmStP4pFty+bGxO7yNz51l0ygAvSY8MXdfo6e7mnTdf4bPTHxEaGU5fMofFYuHAgQMcP35cjp2U1qxQKISqqvh8vvSHJEmSFicEQrHiDeShWqyo67w/XgZ4SXoEpVIprl+9xJuvvcSlry6QTCbSl8wihMDj8XDw4EFOnTpFYWFh+hJJeiiSySRffvklb7zxBqqq8pu/+Zts27YNm82WvhQAq9WKw+FgYmJi0SlNkiRtQEJBtTrwTQX59UoGeEl6RJmmyWgkTP1X53nv7ddpvH510UAjhKCyspKvfe1r1NbW4vP5ZH+89FAkk0k6Ojr40Y9+RENDA+Pj4wghCAaDPPbYYzz99NOUlJRgsUxW0SwWC36/n2AwiM1mIxqNMjAwQDQaXfTnXpKkjUaAUHD5srE7PeuyGi86B2WAl6RHmWma9PZ089ZrL/HpJx8s6TRXm81GdXU1J0+eZOfOnTMhSZJWQzgc5tVXX+X06dP09fXNGZM6HeR/8zd/k+PHj1NSUkIwGMTrnd3fmkqlCIfD9Pf3k0ql5JtRSZJmEUKgWO1YHW7c3sC6eo6QAV6SNghN07jR1MBH77/DmdMfEo1G05fM4ff7qa2t5fnnnyc3N1cGeWnFmKZJNBrl/Pnz/P3f/z2dnZ0LVs6zsrI4ceIEf/AHf8C2bdvu+bNpmibxeJxQKMTQ0NCC/01JkjYqgc3pxukNYLHa10WQF52DEzLAS9IGEotFuXjuc959+w2uXLqY/vC8iouLOXr0KE888YScViNlnGmaXLp0iffee4+LFy8yMTGRvmSWmpoa/uW//Jd87Wtfw+/3L2mqhGEYRCIRQqEQkUhkXbxAS5K0ulSrDavdjWpz4XS6YA0/T8gAL0kbkGmaDA8NcvazT3j7jZfp7uqc06aQzmq1UlpaylNPPcWePXuw2x+tmbrS6jMMg/7+fl5++WXOnDlDKHTvw8hUVSU/P58XXniB3/7t32bLli2o6vKPS9c0jUgkwtDQEPF4fNGfe0mSNhYTUFQrLm82DpcXsYQCwcMgA7wkbWCGrtPedpu3Xn+ZTz56j3gslr5kDo/HQ11dHcePH6eqqir9YUlakmg0ykcffcTp06dpbGxcsLVFURSef/55/tk/+2fs3LkzI28eU6kUw8PDhEIhEomFpzRJkrTxGIaBw+3D5vRid7jXXJAXXTLAS9KGF41OcOnied59+3WamxqIToynL5lFCEEgEODw4cOcOnWKQGB9bf6RHp5YLEZTUxO//OUvaWxsJB6Ppy+Z4XK52LZtGz/4wQ84ceJExn/OTNMkHA5z+/btyc1sa+wFWpKkNUAouLyByWk1FltGn4MehAzwkiRNMRmNRDj3xRn+/sd/S39fb/qCOSwWCzU1NRw6dIjdu3fj9XrTl0gSALqu09XVxWuvvcZ7772HpmnpS2YJBoP8/u//Pi+88AJFRUUrEq4jkQhnzpxhcHCQ2trae86WlyRJMkyBJysHu9ODZQ3MjxddQzLAS5L0K7qu09nexrtvvcZnpz8iEg4t2ifscrmorq7m6aefZsuWLfI0V2mGaZoMDQ1x7tw5Xn75Zfr7+xdslwkEApw8eZLvfe977NmzJ+Oh2jRNYrEYN27c4JNPPmFwcJCCggIOHz4883cpirLgv1GSpI1JCAUUC96sHGwO10Ntq5EBXpKkeSWTCW42N/HqL3/GxfPnSKVS6UvmcDqdPPnkkxw9epS8vLwVqZpK60cikeDatWv85Cc/oaWlZcGqu9Pp5PHHH+e3fuu3eOyxx/D5fOlLHphpmjQ1NXHx4kVu3bo10/teVFQ0E+BtNhs5OTmkUilCodCC/2ZJkjYmIRTsbh8ubxaqJbNFhqWSAV6SpHszTUZHI1yuv8gv//7HdLTfWTTIT08Lefzxx3nsscfwer1rpmdQWh2pVIqWlhZeffVVrl27tuh0meLiYr7//e/z67/+6wSDwYXf+BkGxMagvx1MA/w5ECiABU5SNAyDoaEhzpw5w/Xr1+ecgVBUVMSxY8fIyckhGAzidDoBGB8fZ3h4mHA4PGu9JEmSEAJFtYJqx5uVjdX24Jvrl0N0ywAvSdIiTNNgcKCfTz58n9de+YclneaqKApVVVV861vforKyUrbVbBChUIj333+fX/7yl4yPjy/YipKfn8+zzz7L9773Paqqqu55GNOMRAzuXAK7F3JLweaA7hbQNCgoA28g/SOIxWJcvHiRy5cv09vbO+ffY7fbOXToEEeOHJl3prymaQwNDTE6Ojon+EuSJAFY7S4cLh8O9+oVrGSAlyRpyVKpJDeaGnnz9Zepv/Al4+Nj6UtmEUKQlZXF9u3beeqppyguLr6v2d3S2jc+Pk59fT2vvvoqt2/fXnC6jNfrZceOHfzhH/4hBw8eXPxwsFQChrphdAT8AcgrA2Xq58g0YTwMwz2QjENJNbi8JBIJ7ty5w5kzZ2hvb59z58hms1FcXMyhQ4eoqanB4XDMejxdIpGYqcYnk8n0hyVJ2uiEwGZ3Y3d5cbg8Kx7kZYCXJGnZEokE5784w/vvvsXVK/WkFgk002Mnjxw5wsmTJ8nOzk5fIq1Tuq5z8eJF3nvvPc6fP79gz7gQgrq6On7nd36HZ599lqysrEVe5MzJVpnIMHizIa/03q0yhg4DnZgTYSLRCT6+2cvF+kvoup6+kpycHI4cOcKuXbvweJb+Qmua5kxbzejo6JxqviRJkonA6fZjd3mxOybb8VaCDPCSJN0X0zQJjQzz0Qfv8O5br9Pb073otBpFUdi6dSuPP/44dXV1i1depTXLMAw6Ozv55JNPePvtt4lEIulL5lAUhaNHj/K7v/u7HD9+fOGNqpEhCPVPVtqDheD2AfcO2qZpEolEuFZ/gZHPf4kvGaJJy6XTdGMiEELgdrupqanh6NGjFBQUzGmXWSpd1wmHwwwMDMhDoCRJmpdqteP0ZGF3ulHvVXh4ADLAS5L0QEzT4PatVt587SXOnT1DJHzvDYvT7HY7Bw4c4Pjx41RUVNx3kJIejng8zttvv80HH3xAe3v7vFXu+Qgh2LRpE16vl+PHj3Pq1CkOHDgwe39EKgGdNyAagZIa8AdBLPzzkUgkaGlp4dNPP6W7uxtT1ygV41QpI8QZp8msJLd6N0ePHqW8vDxj+zFSqRSDg4OEQqE5LTqSJEkgsNqdUwdBuRYsQiyX6B6WAV6SpAcXj8e40dTIL372I65fu0JyCZXJ3Nxcjh07xoEDB8jPz19yK4P0cESjUZqamnjvvfc4c+bMsltIbCr8L08Y9Gt+Sl0xIvZSbAf+GadOnaK0IB9lIgyRQXBnQXY+LDKeLZVK0dXVxaeffkp7e/ucTaY+i8mufIU9VbvwV+/GXVqBsM4zKaL5Fbj1Hjz9n+HN34fq56HmW+mr5pVMJunq6lp0w64kSRuYULA53bh82dgyNK1GBnhJkjJqfGyMTz56j/fffpPWlhvpD8+hKApFRUV87Wtf4/Dhw7KtZo1qbW3ltdde4+zZs8RisfsKq0IIXtjloy43SWPES61/jJ91buL41nz+xZN1+Coew7d9P9idi1aqwuEw58+f59y5c8RisTntWy6Xi8OHD1NXV0deMBuGeyEyAFn5kFsyay1aDC7+JSQnwBmAvf8c1MWr9KOjo3z22Wc0NDRw+PDhhVuCJEnasHRdp62tDX+wgJoduzNy11n0DEdlgJckKaN0XaO3p5s3X3uJTz/5iNDIcPqSOaxWK/v27ePEiROUl5djt2emSiE9mKGhoVnTZR6EEIKqsmK+vTlMrX+MlztLqPYk2eKZ4OPhfLJ2nuSFb3+Hbdu23fONXDQapbm5mbNnz9Lf3z+ndcXhcLBlyxaOHDlCeXn57NGU0TEI9cJ4CIqrwe2fbM+JdMJXfwmVT0PrO3D0fwLH3JGUTPXaR6NRLl++zPnz5xkcHATg6aefngnwKSBkGOQoCg/+Mi1J0nql6zqhUIjz58/T3t7O1556lmNPPJmRAK/+T//63/15+h9KkiQ9CEVR8Pmz2L1nP1XVNcTjMfr7ehfslTYMg+7ubq5cucLg4CB5eXmyovkQJZNJPv/8c/7mb/6GN998k+Hhxd+ELUYIgccXINtpciSQoMiu0hW38rOuIN1RlfaODr744gu6u7spLCycNa3IMAyam5tn2ncikcisuwCqqrJ582ZOnjzJiRMnyM/Pn/siabWDLwh2Nwx2wHhkMsT3fQV6CrY+D/1XQbWDf9Psj73rJNcPP/yQixcvEolEME0TIQSVlZXY7XZ6dZ0f6zo/Tiaxmya5uo5Djk6VpA0nFotx4cIFzp49S09PD5qmUbV1G5vLtmSkXVRW4CVJWnGjkQgXL5zjvbffoPH6VTRt4Q1/QggKCgo4cuTIzLSSTDzhSYtLJpN0dHTwox/9iIaGBsbHx9OX3DebCv/lySRVAYOvhot4q89PX9xCejOOEIKSkhJOnTrFCy+8QCqVmjmMaWJiYs5an8/HgQMH2Ldv3xJGU04xdBgdhlAfZBVAVs49N8tOn+T6+eefc/369Tn/BkVR2P/kk9zyenlZUWgATF3Ho2nsAH7bZqNWVbEt5d8lSdK6lkgk6Ozs5Pz58wwNDc0qXD3z/IsZq8DLAC9J0qowTZPBwX4+fPdt3n/3Tfp6e9KXzGGxWKipqeHkyZPs3Llz8ZM6pQcSDod55ZVX+PTTT+nt7U1/+IHZVPi3R118OZZLW9SKZi4caC0WC3v37qW4uJjBwcE5ffd2u50dO3Zw8OBBiouL7+/nIxmHgc7JGfO2uYc5hcNhrl27xpUrV+jp6Znzb9BVlfaCArp27uSm10tyOqRr2uQFuAyDb1utfFNVKVJVFBnkJemR1N7eTkNDA+3t7fMeZicDvCRJ65au69xuvcn7777Jxx+8O6eaOR+/309VVRXPPfccJSUl9xfUpHlN93SfP3+en//853R0dMwJqZmiCMH2LaXElaXvb/B6vezcuXPWn1mtVoqLi3n88ceprKxc9BTV+zF9kuvp06fp6uqa02tvKAqhrCxaysq4VlRE1GJBURQUVZ28A3BXgAewACXAM0LwDbudgKIssk1XkqT1wDAMRkdHuXLlCjdu3FjwNU0GeEmS1r1kMsHFL8/yxqsvc/nSxfSH51VUVMShQ4c4duwYgcD8mwylpTMMg8uXL/Pee+9x8eLFBV94MmF6DrzNtvB4yLulB3hVVamrq+Mb3/gGXq93ae0yy2AYBj09PXz55ZdcunRp3pNl404nDZs301hWxqjTiSEEuq5jmiaKoqBaLCiGMSvAT1OBWtPkB3Y7OywWlv6VkCRprdE0jcbGRpqamujr61u0+PHM8y9y/IknEZkI8L0ywEuS9JCYpsnQ0CCff/ox77z1Gt1dXYv2x6uqSklJCd/4xjfYu3evnFZzH6xW68wboJ/85Cf8xV/8xZwZ6ishEwFe13Wi0ShPP/00x48fx+/3z1p/vwzDIBKJcP36dc6ePUs4HJ4zmjJps9GRn89XFRUMZWVh3PUiPB3gmfo8FcNAmQr06QSQKwR7TZPnhGC7w4Elw29EJElaOZqm0dPTw6VLl+js7Jxzhy6dEAKPx8szz3+HvfsPIe6x32Y51D+VU2gkSXpIxNTx9lVbt7Fv/yGsNiu3b7XMW/WcZpomkUiEGzduMDg4iNPpxO/3o8pJH4tSFAW/309xcTHZ2dn4fD727NlDWVkZY2NjdHR0pH9IRgkhlv29stvt5Ofnz/x/Xde5c+cOn376KTdu3CAYDJKTk7Os/2a6ZDJJQ0MDr7zyClevXp33zcxgbi7ntm/nUmUlo243ZlrgTg/7pq5jTv0cCyHm3CmYAG4BF4BxXadUVXHLEC9Ja5ppmgwPD3PhwgU+++wzRkZGFpyuxtTz7rbtO3n+29+lemstqpqZFlDROyIr8JIkrQ2xaJSrVy7x+iu/oKnxOtFFWjqEEGRlZXHo0CGOHz9OQUHBnKAkTb6AOBwO8vLy8Hg8c/YQmKZJf38/77zzDn/7t39La2vroi9K9yMTFfhUKkVLSwvhcBghBMFgkBMnTvD888+zadOmOZ/bQlKpFN3d3Xz66ae0tbXNCe6mEEy43TSWltK8eTORe8ymJ60CD7M3sSqKgqqqKPO9ydA0lFCIU6Oj/PudO2VfvCStUdFolNbWVurr6+eMsZ2PxWIhNy+fo8eeoHZHHR6vN33JA5EBXpKkNScSCXP+i7O8/Iuf0t52Z9EnSiEEubm5PP/88+zevRtvhp8o1zOr1Upubi6BQACrdeHTRXVd5+bNm/z0pz/lpz/9aUZHSLICAX6aoigEg0F+67d+i1OnTi1pf0Q4HObChQucO3eOaDQ6p4Kesli4uWkTN8rL6fX5MBZ5Y7hQgJ+mqiqqqv6q/zUahevX4fZttns8/F/f/a58AypJa4ymaXR2dvLVV1/R09OzpOKG1+fj0NHj7Nl3kOxgzrytdA9KBnhJktYkwzDo7e7i4w/f4+03XyU0MjInZKVzuVyUlZVx6tQpamtrV2Q6yXphsVjw+/0Eg0GcTueygmE0GuWzzz7jhz/8IefOncvY5lYxNd99Od+XpQT4aW63m6qqKl588UUOHjw472muY2NjXL9+nfr6evr6+ub0ruoWCwPZ2VysrKQnJ4fkEiv6SwnwTPW/K5qG2teHuHoVwmEwTbbn5fF//cZvLOv7JEnSytF1ncHBQerr6+ns7Jxzh24+TqeLyuoajj1xipJNZQ/U2rcYGeAlSVrTNE2jteUGr/7y53z+2SdzAtd87HY7x44d49SpU+Tl5a1I9WOtEkLg9XoJBoN4vd4H+txDoRBvv/02//f//X9z48aN9IeXbXrPg9frxe12LymsLifAT7Pb7Rw/fpxvfvOb7N69G0VRMAyDmzdvcu7cOVpaWuatoo36fDRs2UJLcTGRJWyOVjA4FOrmi0AJum4sKcDT3w/XryP6+lB1feYFXgZ4SVo7JiYmaGpq4tKlS0xMTCxaPBJCULJpM4+fOEV1TS0ulzt9ScbJAC9J0rowMT7OVxfO8Yuf/4S227cWDfKqqlJQUMBjjz3GY489tiIjB9eaZDJJQUEBRUVFy+oFX4hhGNy+fZtXX32VH/7wh/MeqLRcqqridDrJzs7GZrMt+H25nwA/LS8vj2effZZDhw5x586dmRfjWYRgwm7nTmkpV8rLCc2zQTVdbmqCPD3FNm0UXTHZFB7iI1cBlzy/2mw7K8AbBoyOQmMjdHXBXa1J0/3xOwoK+AsZ4CXpoUokErS3t3Pp0iUGBwcXfZ0RQuDzZ3Hw8GPsO3CYrOzgqv0Oiz4Z4CVJWidM0yQUGuH9d97kk48/4M6t1vQlcyiKQmVlJY8//jiHDx9etA98vQqFQnz44Yfk5OTw4osvUlJS8kDV93TJZJLr16/z13/917zzzjtzg/B9sFqteL1e/H7/Pd9wPEiAZ+r7X15eTmFh4Zw3Hpqq0lNQwMWKCvoCAfRFbncrpsGvD5zBbsnnujufRrsXv0VnLCk4NNaH3UzxhSuPEdXxqwCfTMLNm3D7NgwPwzyVPCEEFX4//+lb3yIvNzf9YUmSVphpmnR1dXHlyhXu3Lmz4CS0aW63h52793Dk8RPkFxSiKAs/f2SaHCMpSdK6IYTA6XSxtaaWHTt3YxgGAwN9JBKJ9KUzpsd+NTQ0MDg4iMfjISsrK6Ph9mEaHx/n3Llz/Lf/9t+4fPkybW1t1NfXMzo6OjN1JhMVIVVVKSws5LHHHmPXrl10dHQQCoXmbUVZKsMwiMfjRKNRFEXBarXO+bemj5E0DIORkZF5jymfj2ma+Hy+WRubTUVhxO+nfvt2LlZVMez1Yi7y81CUnGBvIkwSwcdZVbRZXZgCHKZGyLTQYXNjInhsvI/qSBetVj9GdzecPw8tLbDIG56JoSEa33oLu92e0TsokiTd22RRKMSlS5f44osvlnQYk9Vmo6xsC09/89sceewEWYHsjMx1Xy4Z4CVJWndUVSWQHWTP/gMUF5cQi8UZGhxYMEzquk5XVxcNDQ1MTExQUFCA0+lMX7Zu6LrOhQsX+PGPf8wvfvEL+vv7URQFl8tFJBLh6tWrNDU1AVBWlrnNVA6Hg4qKCp544glisRjNzc1LqlYtZPpwpmQyiaqqs+6SpAd4TdMYHBwkmUzO/NlisrKy8Pl8M/+/K5nkg9paOsrKFt2kmp+I8O1IK8WpFJe8+Vx1FRAXymRPrGng0BJMYMFAMGxxcNPuxzkS5msNb+K6dp6u4dS8Vfd0IhYj1tBAQ0MDfX19uFwusrOzM/Z9kyRpNk3TuHbtGmfPnqW1tXXBQtC0/IJCjp04xdPf/BbFJcsbW5tp6p/+2b/7c8TU1nh5yUte8lpHl8ViYVNZOXv37Scvv4Denm7Gx8YW3HAUi8VobW2lo6Nj5mCj9XSaq2EYdHR08Prrr/PDH/6Q1tbWmYqR3W6f2RxqmiYDAwNcvHiR7u5ufD4fOTkPPs7MMAzC4TBfffUVra2t3LhxY9E+0aUwTZNkMkksFkPTNKxWK6qqzgR4wzAIhUK0tLQwOjq6rM8jPcDfGhykv7V18uvk82HO8/23mTq5eoL9iTCN9izO+IoYFSrm1NfAMAwEJk5TIyqskyF9YgKamun/4iKJ7h4qjRAn7X0M42DUsGEi0v+aGUoigb2nh0Qiwe3bt7l8+TLDw8Pk5ubi8/nm3JmQJOn+JJNJurq6+OKLL7hy5Qpji7xmAPizAhw4dJRnX3iRbTt2YndMTfaa53Vpta7JAC9JkrROTbfVVG2tYd+BQxiGwdDAALFYLH3pDNM0GRoa4tq1a3R3d+PxeMjOzl5WKHwY4vE4b7zxBj/84Q85e/bsnM/x7gA/Tdd1bt++zcWLFxkdHSUnJ4esrKxZH7dUiUSCc+fO8fbbb9Pc3Mzw8PCS+0WXarqtJh6PY5omHo8Hn89HY2Mj9fX1DAwM4Ha7l1X5ujvA+8Q4B5R6BntH+EeRT+m4FSZqc2MEAjD1/T8caWNbMkZA1/jck0eP1YNhTv7cGLo+U1FXBJMBXgPR1oby6aeIxkaIxxk27NzUfAyaDp61d7PFMUFDKuueIT5fifEvAq3ciVjYlZtid1aYV87d5sKFi3g8HnJycpY1flOSpLmGhoY4d+4cX375JQMDA4u2y6gWC9Vbt/Hct17kwOHH8Pn8D6VdZj6iPxRb+G2HJEnSOpJIxGluauTvf/x3XLt2heQSbosGAgGeeOIJDh48SE5OzrLC4WqIRqM0NTXx3nvvcebMmXu+6Hi93gXHZgohqK2t5dvf/jYHDhwgOzs7fcm8kskkra2tXLhwgRs3bsz8/YODg3z88ccA7Nq1ix/84AcMDw/z4x//mMbGxnv+O5dKURS8Xi8ej4eenh5M08RqtVJYWLisuyabN2+muLgYACspnlU/4P97zcbvFPbwV92ltCh5pA4cwLunFrffz454mM89BQyqkwdOmaaJYaSNiQSseopAfydD9Y2I7m64R1++IuCEvZ/jjn4+1Eu4lMhm1Jy9mdo7Eebf6qep77dSG9RoCam80zYZ2N1uN9u2beO73/0uVVVV67r1S5IehrGxMdrb27l8+TKDg4PpD88hhGBzeQWHjjxOzbbtuD1rb4qZDPCSJD2SxsZG+ez0x7z9xqvcvDHZC74QRVEoLCzk6NGjPPHEE/MeArTaTNPk1q1bvPrqq3zxxRfEYrEFQ/FiAX6azWZj3759fOc732Hfvn0LTuYZHBzk888/58qVKzNV8WlDQ0MMDg7yzW9+k29961vk5OQghKC9vZ2/+Zu/4bXXXqOvr2/Wf+9+TLcEMTW55kECPIAneh010owiTH7aW8SopvB8wRgWZxFnK/bRfPgESbfnnsEdgLEx/DcbcDdcpj+cXFKfu1vR+I6rE5dq8vN4GcPGrz4HSyTCc31nOVyQJGXAj5pcDMVmfx/tdjunTp3iO9/5DkVFRYt+nyVpo9N1nfb2dr766it6e3sX3Cc1zef3s//gEQ4dPU4gEFgzFfd0MsBLkvTIMk2T7q5OPj9zmnfefI3enu75w9hdrFYrmzZt4vnnn6empmZZQTGThoaGqK+v55VXXuHOnTvpD89rqQF+WiAQYN++fXz/+9+nsLBwVpAPhUI0NTVx8eJFenp6Zn0cU6febtmyhUOHDlFeXj7nrkUikeDy5cv86Ec/4q233lrSKYZLYbFYlr0BOT3AX+7t4XG+IKHDzYkAp/I0PhtxUj/mZlQ30QoKGDt2DK2qam5/fDyOaGtDXLlCYHQQh5miLy1oL6bEEuU5WxcJh513o0V06S4qzWH+T8fH/H/OejlRkiTHYfAfv/LMeV+gqirFxcWcOnWKp556iqysrDVXGZSkh03TNMLhMOfPn6e9vX1JU6scDic7dtVx8MjjbNpcvuY3kMsAL0nSI0/TNFpuNPHuO2/yyYfvzekdn4/X66Wuro5vfOMbs8LfSksmk5w7d4433niDpqamZfWXLzfATysrK+PrX/863/rWt7Db7TQ2NvL555/T09Mzp2JlsVgoKyvj6NGjVFVVLVi9Z+rW9RtvvMHPfvYzzp8/n/7wfXE4HNTU1JBKpZY0jebuAO8V4xRHv2BkdJRhYzMjSYP3B02SxmSVP55IkEgk0Ox2zJ07MU+dwiwpAcNAdHQgrl1DtLeDrpNlM3Go5rIDPIAVg6OOIbbZRkkIlVf7s7DWXyOhTbbcWBWTuH7vYK4oCjU1Nfzjf/yP2b59OzbbZLuPJG10sViMS5cu0dzczOjo6KJFG4DqrdvYd+Aw23bswjG9QXWNkwFekqQNIxqd4MKXX/D2m69x7epltEWmpwghKCgooK6ujieffHLqdurKPLEnk0k6Ojr40Y9+RENDA+N3nda5VPcb4Jm681BRUcHhw4fp6OiYU7FSFIVAIMDRo0fZsWPHsiajGIZBZ2cnL7/8Mn//939PW1tb+pJlEULM/P0FBQVomrbgv+XuAO8TCU6an/DxgJf3hx3cHtfRDYNUKkUikSBx9xsCISA3F3PXLsjORrS0wF1v/h4kwE9zCp1a+yhPKJ2c+3KE66Hl/bdycnLYvXs3X//616mtrZ1zJ0SSNopEIkFnZyfnz59naGhoTvEhnaIo5OTmsWf/IfYfPEJWViB9yZomA7wkSRuKaZqEQyHefvNV3n37Dfp657aHpLNYLGzbto1Dhw5x4MCBjFc7w+Ewr776KqdPn6a3tzf94SV7kADP1Avanj175rQNuVwudu/ezZEjRx5oFKWmaVy9epW/+7u/46233rqvNynprFYrHo+HwsLCe46zvDvA2zBo7uviq+5+kroJpkk0FiORSNx7f4HPB4WFk4H+LpkI8CgKajJJcc8t/EN9dIzf+43IvQghCAaDnDx5kueee468vLz0JZL0SGtvb6ehoWHJ7TJWm419+w9x9PEnyCsoXPPtMvORAV6SpA1J13Vutd7kvXfe5LPTHxEJhxe91epyuaitreW5556jpKTkgaqdpmkSjUY5f/48P//5z+no6Lh3gFyiTAT4urq6mXGFQgg2b97MyZMnKSsry9gbl/HxcT7++GN+9rOfcfbs2SW94C7G5/PhcDgIBoMzc9qnpffAX+rt5VpHB9pUxf1ewX+G1wsFBZD2Iv+gAV5JpbANDmLt60OZmFjSRtiFCCHYsWMHTz/9NHv37r3vcaGStB4YhsHo6ChXrlzhxo0bTCxy2jFTfe4lpZs4dPQYtTt2YbM9nD1OmaD+z3/27+UceEmSNhxFUQjm5FK3dx/bd+wmNDxET3dX+rJZUqkUPT09tLS0EIvF8Pv9uFyuBds35mOaJpcuXeKnP/0pr776KoODg4u+eViK+ebAL8d0S8r0GxMhBIZhzEx+ydQccpvNRnV1NceOHSMvL4+Ojg5CoVD6smVJJBLE43G8Xu9MS8301+HuOfCmadIRCtHe10c8Hl/amya7HTyemTnx0xwqWBQY15b59bZasY2M4OjowNrbi1jCqNOlGhgY4MKFC7S1teF2u8nLy1uX1UVJWkgqlaKxsZFz587R2tq6pL0wObl5PP3Nb3PqG89SuqnsgQowa4EYCMsKvCRJG5tpmoRGRjh75jSvvvwLuru60LSFq7KqqlJYWMg3vvEN9uzZg9vtTl8yh2EY9Pf38/LLL3PmzJkHDq3pMl2BN02T7u5uRkZG2LlzJ//oH/2jjG+Y1HWd5uZmfvazn/HSSy8RCoUe+M2M1WqlpqYGTdMwTZOSkhJKSkoYGxuju7ubcx0dRAwDlhLeuXcF3mc1saswGF9igBcCy9gYtv5+LAMDiMUq/w8oEAjwzW9+k+PHj1NcXHzfb+wkaa3QNI3e3l7q6+vp7Oxc9O6ZEAKPx8vuPfs4/Nhx8vIL7vv5ca2RAV6SJGmKYRj0dHfxwXtv8/Ybry4pYKuqyvbt23nmmWeoqKi451SWkZERzp49y+nTp2lqalp0g9X9yMvLIysr674D8L0CfEdHB0y1EH3nO9/hmWeeoaSkJKMvhPF4nDNnzvC//+//O1euXEl/eNkURcFqtZKfn09ZWRmGYXDlyhUmJiaIZmWRsNkeOMArAlQgtYQvt5pIYI1EsLW1TVbc7/N7tFyKolBaWso3vvENnnzySbxeb/oSSVrzTNNkeHiYa9eu0dDQMPPmfCGqqlJTu4MTJ5+itHQz1gwWHtYC2UIjSZI0RQiBz++npnYH23fuIpGIMzQ0SGqB27OmaTIwMEBDQwOjo6NkZ2fjcrlmwm0sFuPatWv85V/+JR988MHMiaIrwTAMXC4XmqZhs9mW/fekt9AwNQYyEonAXbetv/rqK6LRKKWlpTgcjgeu7BqGwcDAAC0tLbS0tNDZ2Zm+ZNlM00TXdUZHRxkeHub27dskEglM00RzOtFVdekh+h4tNCaw2FsAIQS2cBhHa+tku8wiFcNMM02TSCTC1atXuXTpEn6/n/z8fNlWI60b0WiU5uZmTp8+TUdHx6LFD4vFQmFxCd/81q9z7MQp8tfpJtXFyAq8JEnSPUyMj3Ph/Bf8w89+zK3WlkX7padHLT777LMcOHAAj8fDBx98wH/5L/9l0RedTFEUZeawI4vFsqwXrsUq8HdTVZXa2lq+//3vs3v37vtuqwmHw1y9epXPPvuM8fFxrl+/zsWLF9OXZVQ8OzsjFfgFmSbW8XGsIyNYOzuX/netMI/Hw+/93u9x6tSp9IckaU3RNI3Ozk6++uqrec+kmI/P5+Pw0ePsOXCInGAOIoN3CdcaWYGXJEm6B5vNxuayLezZdwCPx0tX59z56HczTZNYLEZrayutra3Y7Xa6u7v59NNPYSr0Pmi1ejF3V579fj8ejwfDMJZUjV+sAn830zQZHBykvr6eO3fuUFBQgN/vX3JbTTQa5dq1a7z11ltcvXqVWCw289/s6enB7/fz+OOP80d/9Ec4nU56e3tJZGizp+l0oisKi39FptyjAj8v00QBHF1d2G/fRh0eXnqlfwUZU7PuR0dHqaiooK6uLn2JJK0Juq4zMDDAmTNnuHTpEsPDw4s+fzmdLmp37OSFF3+Duqnn65V+rn3YxKCswEuSJC1K01K03LzBW2+8xrkvPiccGklfMofNZsNqtfLVV1/B1K1du92OxWJZlRcXIQSqqhIMBnE6nffsz5+2nAr83YQQ5Obmzpzmmp+fn75khmEY9PT08Mknn9Dc3DzrpFnTNGlsbCQej/P7v//7nDx5Ep/PRzQa5aOPPuKv/uqvqK+vX9bptPMSAsNiIelwkHQ4MBf7XiyxAi8AW18ftu5ulGh0TQR30zTRNI1kMjlTwfzn//yf8/3vfz99qSQ9dBMTEzQ1NXHp0iUmJiYWDe6qqrKloopDRx5j67btuFyLDxN4VMgAL0mStAyxaJQrVy7xy5//hIbr1xacgmCaJqFQiIGBgZk/E0Jgs9mw2WzLam95UNMbOp1OZ/pDM+43wE8TQrB7926ee+45jh49OmvDpGEYhMNhvvzyS65evUo4be7+5LQID1u2bOHIkSNs2rRpVjV/Ovi/9NJL/PVf/zWDg4OLtjQtxhQCzeUi6fOha9q9g/wiAV7o+uQG1b4+1FAIlnCrfzXouk4qlSKVSs18rVVV5fd+7/f47d/+7fTlkvTQxGIxbt26RUNDA4ODgws+rzL1fJGdHeTgkcc4eOgoXp9/VYoia4kM8JIkSctkAqGREd57500++eh9brW2pC+ZkUgkGBkZYWxsbFbgVBQFu92O1WpdctvJgxJC4HA4KCgomKls3+1BA/w0u93OE088wXPPPceuXbtIpVJcuHCBixcvMjAwMCd4i6kDiA4dOsSmTZsW7KfXNI3Gxkb+n//n/+Gtt95a0qSgxZiqSspunwzyMLdffYEArxoG9lu3sAwNrfoG1XsxTZPk1AFVd3+tCwoKOHHiBC+++CIlJSWzPkaSHgbTNOnq6uLKlSvcuXNnSXfX3B4vu3bv4bFjT5BfULhqz59rjRiMxGWAlyRJug+aptHT3cWbr73MJx99wMjIcPoSmKoeT/eST/d6c1eLy3SrzWpVkBwOB36/n4KCglkhPj3AG4ZBV1cXXV0LH3B1L/n5+Tz55JM4HA5u3LgxJ7irqkpBQQGHDx9m+/btOJ3OJX8NJiYmuHDhAv/pP/0nrl69uuDehKUybDZSdjsJl2v2rfv0AC8ESjyObXgY6/AwSgbeRGTCdLtMIpGY9bV2Op1UV1fzgx/8gB07dmC3r9/TJ6VHw/TdyaamJhobGxkfH09fMofd7qCktJTjX3uK6q3bsG3wn2MZ4CVJkh5QKpXiyuV6XnvpH/jqqwsk77HZUtM0QqEQo6Ojs24RCyGwWq3Y7fZVbavJz8/HNE0CgcDMn00HeFVVuX37Nr29vXOC93JkZWWxffv2Ob2sgUCAvXv3sm/fPrKysu6rijYdAl566SV++ctfcvny5fQlyycEmttN0uEgZbdDKjUrwAvDwBoOY+vuRg2H10SfO1PtMolEAl3XZ32td+zYwVNPPcVTTz2Fz+db8hskSVop02Mhm5qaGBoaWtLzS35BEY8dO8Ge/QdxOpd/+vWjSAZ4SZKkDDBNk0g4zGenP+LlX/6c7q7OeV+YTNMkHo8TDocZHx+fNRpNUZSZ/vj7CbT3QwiB0+nE7/cTDAbZtm0bVquVixcv0tnZic/nw+fzpX/Yknm9Xnbu3Dnz/4UQVFVVcfLkSUpKSjJynLmmabS1tfGzn/2Ml19+mZ6envQly2aqKprDQcJuR8/OhoICLNEott5eLIODiCXc6l8N09Nl0ttlcnNzOXjwIN/73vcoKipa1TeGkjSfZDJJb28vV65coa2tbUljIbOyAuys28vho8fIy8tHkT/HM2SAlyRJyqDJvvEu3njlJT7+6D1Ghu/dVhOPxxkeHmZiYmLWY6qqzvTHr1alyeVyUVxcjMViYWBggOHhYYQQ5OXlZTTAq6pKTk4OL7zwAhUVFbPWPqhUKsW5c+f427/9Wz7++GNisVj6kmUzbDZSeXngcGDr6lrVU1QXYprmTHC/Owg5nU4OHz7Mb/3Wb1FdXb3o5CFJWg1DQ0NcunSJ1tbWmQPVFmKxWKis2soTT36D8i2VGXmj/6gRQzLAS5IkZZymaTQ1XOe9d9/mk4/eJxabvWF0mqZpjI2NEQqFZk0LEULMGjv5MKxEgE+lUrS2tuL1ejl16hTf+ta37ruFZj7TbTUffPABP/rRj/jqq6/mvROyLIoyd2PrQ2JOzfmfHgs5/fNisVgoLCzke9/7HsePH8fj8azamz9Jmo9hGExMTNDe3s7ly5cZHBxMXzKHqqps2lzO4aPHqKndviHmud8vGeAlSZJWUHRigi8+/4yXX/oHmpsa0h+Gu6qpo6OjhEKhOW01Vqt11cdOsoIBvqWlhXA4jMViYc+ePbzwwgscPXo0o9Vic2q6xV/8xV/w05/+NCObXB82wzBIJpNomjZnusypU6f47ne/SzAYzNibIUm6X7qu09rayuXLl+nv719Su4zP7+fw0WMcPPQYgUDgkT5FNRNkgJckSVphpmnS093F2c8/483XX6G7q3PeW8imaRKNRgmHw0xMTMwKaXdPq1nNgGa32ykqKsJms91XJXuhAD8tEAiwc+dOfud3foeqqqqM3HFIpVIMDAzwyiuv8Fd/9Vf09fWlL1k3DMOYOYzp7u+Bz+fjmWee4amnnmLLli1yuoz00GmaRjgc5vz587S3ty/pjbPD4WTHrjoOH32czWVbVr1QsV7JAC9JkrRKdF3nzu1WXnvlJT7+8L179mjrus74+DgjIyMk0ibarPZprkzdBQgGg2zevHnOPPvFLCXAT9u8eTMnT57k2WefXfA018UMDAxw/vx5rl+/Tl9fH5999llGNrautul2menpMtOEEOzcuZNf+7Vf47HHHsPhcKzaz4Ik3Us0GuXy5cs0NzczOjo6b5EiXXVNLQcOHqZ2xy4cjqWPkZVkgJckSVp10WiUi+e/4O03X6eh4RrRtE2s05LJJKOjo4TD4VkHnIiHcJqrqqp4vV4cDsf/v707fYrqQNsGfp1egG7WZkdUNsGwCMZAgyzdgIDRihNSqUpVUjM1+ZA/YP6hp2aeyZuZJO5r1EQTjXEBRRYbkEVANhWaXqAbej3vh9A8cBrsVrHZrl/VfPHcYIDDeJ1z7nPfSEhIgNPplJas6k0CPBb/nqysLHzxxRfQ6/Wv3Ry7nCiKmJ+fR3t7O+7evQuj0bg08WcrBnhfn7vb7V4RhLKzs9Hc3Iyqqiqkpqau+BiijeBwONDf34/Ozk5MT08HbJeRyWRITErGR6XlKCuvRNyyMbYUPAZ4IqINIcJiseDeH3fw3bf/xOTEuLRgyfz8/GvHToaHh4f0zpVKpYJGo0FcXNyKefaredMA7xMTE4Pq6mo0NTWhqKjotdtZRVFEb28vHj58uDTlwmerBXhfu4x0Uofvpd9PPvkEeXl5IbtwI3qdkZERGAwGDA8P+z0tXE1YWBg+KqtAtc63RZXn8dsSjFYGeCKijeLxeDAyPIQrly7g15s/w2I2r/ro2TfRwWg0+oU7uVyOiIiIkLbV+O7I+/63VpB/2wCPxScNiYmJ0Ov1+PTTT7Fnz54V/f9erxcvXrxAS0sLurq6/MZxYgsFeHFxi6qvz93381UqldBqtThx4gTKy8tfeyFDFAperxdWqxUdHR3o7e1dsc15LRERKuzZm4GKqhoUHShGWBjf13hXDPBERJuAw+HA095unDn5A+7f+2PNQOx7SWx2dnbFHS9hg7a5RkZGYvfu3XA6nau+fPouAd5HJpMtjUisrKxEXFwcLBYLOjs7cfv2bb8XfpfbCgHe1y4j/ZlnZ2fj6NGjaG5uRmRkZMguzojWYrPZMDg4iJ6eHrx48WLN3zsfQRCQnJKKuoYmFBaV8DxeRwzwRESbhCiKsFrMeNz2CN//51sMDz3zC3W+OqfTCZPJhNnZWb+2Gl+QD+W0Go1Gg5ycHFitVgiCsPQP+2oBvq+vDxaLZdlHBycqKgp5eXloaGjAxMQERkdHV/3+LLeZA7x3lS2qvkVXdXV1OHbsGHJychh4aMO53W5MTpwegywAAB/VSURBVE6itbUVExMTAX/vBEFAVHQ0Dn74Eap0tUhKSgnp/x/tBAzwRESbjOj14uXLF7jxy3WcO30SMzOrb3MVRRE2mw0mkwl2u31FW41CoViaHx+qACiXyxEZGYmEhATI5XIIgrAiwHs8HgwPD+PVq1ertgkFKzs7O+gXODdjgBcX5/5Lx0IKgoDGxkZ89dVXyMjICOkmXqLViKIIo9GIrq4uGAwGv5eqVyOXy5FfUITaI03YszeDbV/viTDDAE9EtCm5XE50Gww4f/Y0WlvvwzY3Jy0Blm1znZmZWXFnTFi2zdUXqENBqVQiPz8fLpcLKpUK+fn5MBqNGB4extDQEFJSUt5pZnlGRgbS09Olf7yqzRTgxWVbVJdPFVKpVNi7dy8+//xz1NTUvNPiLKL14Ls58OzZM7S1tcG8xrs5yykUCqSm7UL9kSbk7s9HdHS0tITWEQM8EdEmNzc3i5b793Dt6hV0tLetOcLR11ZjtVr95oZvxNhJuVyOpKQkxMbGYmBgAC6XCwqFAmlpaTsuwHsXt6i6XK4VQSguLg5ff/01dDodkpKS2GZAG87tdmNkZAQPHjwIaiwkAMTExKKyWoePSrVISOR5HAoM8EREW4AoipgxGnH50gVcPH8aMzMzq94RExfnoVssFr9lKjKZDOHh4SFtq5FSKpU7KsD7xkK6XK4VQSg2NhaHDx9Gc3MzCgoKQnZhRbQWj8eDqakptLW1YXR0NKjpMiqVGnkf5KO27gj2ZmTxPA4hBngioi3E6/ViYKAfF8+fwd07v8NkmpGWAMtGvVmtVr9/iDdim6vPTgnw4rKxkNI7mIWFhfj6669RXFyMqKioFceINoLNZkNPTw8eP34Mm8226s2B5eQKBXJyclFRWY0P8guhVqulJfSeCTOzjtf/lIiIaNNZmJ9Hb083/vvd/6Kzo33NJSoulwtWqxUWi2VF642vPz4iIiKkd80EQUBMTAzS0tJWzDt/E5s9wHs8nqXpMr6vTy6XIyUlBZ999hnq6+uRkpIS8osnIqn5+XkMDg7CYDBgamoqqOkyCQmJKD9cjfLDVYiOieF5vEEY4ImItrBZqxU3fr6Gqz9dQt/TXulhYPFusMPhWBo7uXzyiW+ba1hYWMj6VmUyGTIzM+F2uxETE7PmxcdaNmuAX20sJACkpqZCp9OhubkZu3fvDukFE9FqRFHE2NgYOjo6MDQ0tOKl6rVERUWj+OAh6GrrkZScwvN4gzHAExFtcR6PBxPjY7hw7gx+vfHzmmMnvV4vZmdnYbFYsLCwsBQyBUGAXC5HWFhYSEcXymQyxMbGQq1WIyoqKuBSGJ83DfB37tzB+Pi49NC68bXLOByOFV+DSqVCXl4evvnmGxQVFXGcHm04URRhMpnQ09OD7u5uzK0x2Wq58IgI7N69B7X1jcj7oOCd2t9o/TDAExFtEy6XC50dj3Hh7Gm0PLi35p1tj8eD2dlZGI3GNcdOrrZV9X2Ry+VITU1duogIdAERTIAXRREWiwUTExMYGBiAyWSSlqwLj8cDh8MBj8ez1C4jCAIKCwvR0NCAxsZGxMbGBvyaiN43u92Op0+foru7G9PT00FdMO9K343KKh0OlWqhUqt5Hm8igokBnohoW7FYLGh5cA9XLl3Ak66OVR+Pi5tsm6tv1GVmZiYiIiL8XrxdLlCAd7vdmJiYwMOHDzE3N/dWffaB+MZCut3uFUEoMTERer0eX375JZKTk9lmQBvO6XRicnISnZ2dePbsWVDBPS5Og+KDH6K6phaJSTyPNyMGeCKibUgURbx8MYkrly/gyqWLMBqnpSXAYhBdWFiA0WiEzWZbccx3RzyYu+LrRSaTQaPRICkpCW63e9W/d60A73uy8PjxY4yPj/tNf1kP4uIWVelYSJVKhYqKCnz55ZfIy8uDUqlc8XFEG2F6ehqPHz/GwMAAHA5HwItZhUKB3Lz9qG/4GNk5+0L6JI7eDAM8EdE25na78LS3B9euXsGNX67DLgnpPm63G3a7HUajEU6nc8U/9EqlEmFhYSEdO6lWqyGXy5Genu4X5KUBXhRFLCwsoLe3F0NDQ5idnV06tl7ENbao+hZT/fWvf4Ver0dUVFTIvkdEq/F6vbDZbBgZGUF7ezumpqakJX7kcjn2ZmShqkaPD/ILeR5vAYJpjgGeiGi7czgWcP/eXVw8dwaPHrZKDy9xOp2wWq0wmUx+21x9bTWhfJyuVCqRkZGByMjIpbaa5QHe4XBgfHwcjx49WvFi7nryjYWUtsukpqbi+PHj+Mtf/oKEhISQtRsRrcXj8WBgYADt7e14+fJlUE+h4jQaVFRWo7yiEhpNPASex1sCAzwR0Q4hiiKmpl7h91u/4tKF8xgbfb5mf7zdbofFYsHc3NyK0Lp8Wk2oAqtarUZYWBg0Gg3CwsKwZ88epKen4+XLl2hvb4fJZFrzhd134V3coup0Old8D2JiYnDs2DE0NTUhLy8vZN8HorW43W6YzWa0tLRgZGQECwsL0hI/KpUaB0oOorKqBhmZWZCF8MKc3p1gZoAnItpRfGMnf7pyCWfPnML8Gi+M+sZO+ra5Lm+rUSgUGzJ2MjIyEvv371+aqBHMHcY35WuX8U2X8REEAQcOHMDnn3+OqqoqREREhOxrJ1qL3W5He3s7ent7YbVaA/a5A8AHBYUor6hEQWERIiJUPI+3IAZ4IqIdym63o6O9DWdPn8STJ12v7Y83m80wm80r7thvVFtNREREUC/kvSlRFFdMl1n++XNzc3HixAlUVVUhNTV1xccRbQSHw4G+vj50dnYGNRZSJpMhKTkF2vLDKNNWIE6jkZbQFsIAT0S0w5nNZty7ewenfvgvhobWHjM3Pz8Ps9mMubk5v7GTYWFhCA8P37J38ryLW1SlL/BGR0fjyJEj+OKLL7hFlTaNkZERGAwGDA8PB9U+FhYejtKyctTo65CamsbzeBtggCciIni9XoyPjeLGL9dx/twZmE2mVe9we71ezM/Pw2g0Yn5+fkXNRoydfFfi4hZVp9O54qJEqVRCq9XixIkTKC8v5xZV2nBerxdWqxUdHR3o7e197a4EnwiVCnv2ZqCyqgYHiksQFsYtqtsFAzwRES1xu1zo63uKM6d+xK3fbq7Y1Lqcx+OBxWKBxWJZcQfQ11bjGzu5mfnGQkq/xuzsbBw9ehTNzc2IjIzcMhcjtH3ZbDYMDg6ip6cHL168WPMpmY8gCEhJScWRxqMoKi6BWs3zeLthgCciIj9zs7NoabmP77/7FkNDz/xCLjbhNtdgrTYWUi6XIyEhAY2Njfj000+xa9cuBh7acG63G5OTk2htbcXExMSqv4fLCYKA6OhoHCrVoqpah6TklE33+0frgwGeiIhWJXq9ePHyBW78fB2/3vwFgwP90hJg2dhJk8kEm83mN61GqVSGdOzkWsTFLarSsZCCIKCxsRFfffUVMjIy2C5DG04URRiNRnR1dcFgMPi9VL0apVKJgx9+hMpqHfbs5Xm83THAExHRa7ndLgwNDeH7/3yLB/fuYm5uTloCLN7Znpubg9lsxvz8/NKfC4IAuVyOiIgIyOXykN/Z9o2FlG5RValU2Lt3Lz7//HPU1NQgJiZmxccRhZooirDZbHj27Bna2tpgNpuDCu4pqWloaPoYBQVFiFCppCW0DQkWm/P1ZwYREdHiNtc/7vyOny5fQvvjNjidq0+/cDqdsFgssFqtKx75C4Kw9JJrqKZg+NplXC7XiiAUFxeHr7/+GjqdDklJSRv+dIDI7XZjZGQEDx48wPT0dFA7DmJjY1Gtq8NHpVokJCbyPN5BGOCJiChooihixmjEjV+u4cL5sxgbG4O4ygt1oihiYWFhKcgvb1kJxdjJtbaoxsbGoqKiAp999hkKCgpCdiFBtBaPx4OpqSm0tbVhdHQ0qOkyarUa+/MLUFvXgIzMLJ7HOxADPBERvTGv14uJ8TGc+vF73L79G4zT09ISYLHO11YjDSa+thqFQrFuQX6tsZAAUFhYiL///e8oKSlBVFTUimNEG8Fms6GnpwePHz/2e39kNQqFAjm5eaiq1qGoqBhK9rnvWAzwRET01hYWFtDbY8B33/4vOtofr7lUxuVywWq1wmKxrGhnEQQBCoViqT/+bYmLW1Sl7TJyuRzJycn47LPP0NDQgOTk5HW7WCB6W/Pz8xgcHER3dzdevXoV1HSZhIREVFRV43BlNaKjY3ge73AM8ERE9M6sVgt++/UGLl+8gN6ebulhYNkUGLPZDLPZ7NdW87ZjJ71e79ILqss/Z2pqKnQ6HZqbm7lFlTYFURQxNjaGjo4ODA0NrXipei1R0dEoOXgI+tp6JKek8jwmAIBgZYAnIqJ1IIoiRkef487tW7h44RwmJsZXbQnwer2w2+2YmZnBwsLCitDtGzsZzDZXX7uMw+FY8TlUKhXy8vLwzTffoKioiOP0aMOJogiTyYSenh50d3evOclpuYiICGTn7END48fIyMxCeDi3qNL/YYAnIqJ15Xa70W3owtkzp3Hn91trttV4PB7Mzs5iZmYGTqdz6c99bTXh4eFrbnP1eDxwOBzweDwr2nEKCwvR0NCAxsZGxMbGBrwIIHrf7HY7nj59iu7ubkxPTwfcogoA6el7UFWjQ2mpFiq1mucx+RGsdgZ4IiJafxaLBa0P7uPy5YvoeNy2aruAuLjN1Wq1wmw2r7rNdfnYybXaZRITE6HX6/Hll18iOTmZbQa04ZxOJyYnJ5faZYIJ7nFxGhz88BCq9bVISuJ5TGtjgCciovdGFEWYTSZcvHAOP12+hPHxMWkJsFg3Pz8Ps9kMq9W64phMJlsaOelyuVaEfJVKhYqKCnz11VfIzc2FUqlc8bFEG2Fqagrt7e0YGBiAw+FYtZVsOYVCiYLCItQfaUBmdjYUCp7H9HoM8ERE9N55PB709z3F1SuXce3qFdhsNmkJsFhns9kwMzPjF3yWv9yqUCiQlpaGv/3tb9DpdIiKimKbAW0or9cLm82GkZERtLe3Y2pqSlriRy6XIyMzC9U6PYqKiqGOjJSWEK2KAZ6IiELG4VjAvbt/4MK5s3jY2iI9vMTtdsNsNmN2dnaph94X4FNTU3Hs2DF8+umnSEhIeOOpNUTrzePxYGBgAO3t7Xj58qXfDoLVxGk0OFxZjYrKKmg08TyP6Y0wwBMRUUiJogij0Yg/fr+F06dOYmx0FG63/xxsURThcDgwMzODubk5yGQyZGVl4R//+AcOHjzIwEMbzneh2dLSgpGRESwsLEhL/ERGRqGouBhV1TpuUaW3xgBPREQbwuv1YmxsFNd+uoJLF87DZJqRlgDLtrkCQFRUFEpKSnD8+HHk5OSw5502jNlsRldXF/r7+2G1WgP2uQNAfkEhdPo67P8g/8/xpmz7orckzDLAExHRBlpYWEBPTzfOnTmNB/fvwWZ7/YxsQRCg0WhQWlqK2tpaTp2hkHI4HOjv70dbWxtmZmYCBneZTIbk5BRoKw5DW34YGo1GWkL0xhjgiYhoU5ibm8P9e3fxw/ffoe/p04Bj92QyGeLj43Hs2DGUlZUhOjpaWkK0rkZGRmAwGDA8PLzmfoPlwsPDUaYth05fj9S0NF5o0roRZu0uBngiItoURNGLifFxXL92FWfPnILZbAp4h1OtViMzMxNHjhxBYWEhN1bSuvJ6vZiZmYHBYEBvby/sdru0xE+ESoW9ezNwpKEJefsX22WI1hEDPBERbToulwt9fb24eOE87v1xBzMzRmmJn/DwcFRXV6OhoQHJycl8yZXemc1mw+DgIFpbWzE3NxfwqZAgCEhJTUVD0zEUF5dArY7keFN6L4S5eQZ4IiLafEQRmJ+3o+3RQ/zrn/+DwYF+uFz+02qWk8vlSE1NhVarRWVlJRISEhig6I253W5MTk6itbUVExMTAc87QRAQHR2D0jItanR6JCWn8AKS3isGeCIi2tT+HDs5jSuXLuLmzRsY6O+TlviRyWTIyclBTU0NKioqOK2GguIbcdrV1QWDwQC32x2whUupVOLDQx+hukaPvRmZbJehkGCAJyKiLcHlcuH5yDDOnjmF27duBdVWExYWhtLSUuh0OmRnZzPI06pEUYTNZsOTJ0/Q09MDi8USVHBPTUtDU9MxFBQdgEqlkpYQvTcM8EREtKU4nU60P27DqZM/4NHD1oDTQP5sb4hGeXk5amtrsWvXLmkJ7WButxsjIyN48OABpqamAva5A0BsbCx0+jqUlpUjITGR7TIUcgzwRES05YiiCLPZjFu/3cQP//0PxsZGA94xFQQBOTk5qK+vR2FhIWJiYqQltIN4PB5MT0/j0aNHGB0dDWq6jFqtxgf5Bairb0BmVjbHQtKGYYAnIqItSxRFjI+N4eyZU7jxy8+Ynp6SlvgJCwtDQUEB6uvrkZ+fD4VCIS2hbc5qtaKjowO9vb2w2WwBL/4UCgX25eahukaPogPF7HOnDccAT0REW57L5UK34QmuXb2Cn69fw/z8vLTET2xsLPLz89Hc3IzExETeTd0B5ufnMTg4iCdPnmByclJ62M+fy8ISUFldjcrKGkTHxHCqEW0KDPBERLRt2GxzuPP7bZw5fRKGJ0+kh1eVnp6Ow4cPo7a2FpGRkdLDtA2IooixsTF0dHRgaGgIbrdbWuInKjoaBz88hNq6I0hJSeUFHm0qgm2BAZ6IiLYPURQxNjqK33+/hYsXzmP0+fOALRJKpRJ79+7FJ598gvz8fG5z3Sa8Xi9MJhN6e3thMBhgs9mkJX4iIiKQs28fGps+RmZWNs8F2pQY4ImIaFvyeDwYGOjHmVOncPPGz0G9pBgTE4ODBw+iqqoKeXl50sO0hdjtdnR3d6OzsxOzs7NBTZdJ370bNTo9SsvKoVar2S5DmxYDPBERbWt2ux0P7t3FxYsX8Ohha8D2CUEQEB8fj7KyMjQ2NkKj0TDIbSFOpxOTk5NL7TLBBPe4uDgc/PAQ9LX1SEpOZrsMbXoM8EREtO2JogizyYTz587ipyuXMTY2Ki3xI5fLUVBQgPLychQXFyM6OlpaQpvM1NQU2tvbMTAwAIfDEVTrVGHRAdQf+XMsJBd90VbBAE9ERDuGx+PB8NAQLl08j+vXrga1cVOtViM3NxfHjx9HdnY2x05uMl6vFzabDd3d3TAYDLBYLNISP3K5HJlZWajR1eJAcQnUarW0hGhTE+wM8EREtMM4HA50dxtw8sfv8cedO3C5XNISPxEREThy5Aiqq6uRnJzM7ZubgMfjQX9/Pzo6OvDy5Ut4PB5piR+NRoPKqmpUVlVDo4nnz5G2JAZ4IiLasUwmE9oePcT/+/bfGBwcCNgfL5fLkZaWhqamJnz44YeIjIxkf/wGcLvdMJvNaGlpwcjICBYWFqQlfqKionDgQAmqa3TIys6CTMY+d9q6GOCJiGhHE0URE+PjuHbtKs6eOQ2jcVpa4kehUCAnJwcnTpxAXl4ee6dDyGw248mTJ+jr64PVag3YAgUABQWF0NfV44MP8hEWFg5ec9FWJ9gd7sBnPhER0TbncrnwpKsLZ8+cwr27d2GzzUlL/MTHxyM/Px9NTU1IT0/n9JL3yOFwoK+vD48fP8bMzEzA4C6TyZCckoKKikqUH66ERqORlhBtWQzwREREy8zNzeHe3T9w5dIltLe3weFwSEtWEAQBCQkJOH78OEpLSzmt5j0YGRmBwWDA8PBwwJ8HAIRHRECrLYe+rh5pabt4YUXbDgM8ERGRhCiKMBqNuHjhPE6f/BEmU+A7vmq1GpmZmaiurkZJCSebvCvfFlWDwYCenp6gFnFFqFTIzMzCkcYm7N//AcLCwqQlRNsCAzwREdEavF4v+vqe4sypU7h39w6MRqO0xE9YWBi0Wi1qamqwb98+Tjl5CzabDYODg2htbcXc3FzAZUyCICA1NQ2NRz9GcclBvlxM2x4DPBERUQB2ux2dHe34z3ffoquzM6g2jsTERNTU1KC8vBzJyckMlEFwu92YnJxEa2srJiYmAo73FAQB0dExKNVqodPXIjk5hRdMtCMI8wzwREREAYmiCKvViuvXruLKlUvo7emRlvjxjZ2sra1FRUUFIiMjpSW0rGWpq6sLBoMBbrc7YMuSUqnEoUOlqNHrkZGRyXYZ2lEY4ImIiN6Ax+PB2Ngozp05g+vXr2JmZkZa4ufPsHkIdXV1yM7O5tjJRaIowmaz4cmTJ+jp6QlqM65SqURa2i4c/fgYCosOQKVSSUuItj0GeCIiorfgcrnQ9ugRTp78AQ9bW+FwvH6Z0J/tHtEoLy9HbW0tdu3aJS3ZUVwuF54/f44HDx5gamoqYJ87AMTGxUGvr0OZVovExCS2y9COxQBPRET0lkRRhNlsxoMH93Hxwnl0drQH3OYqCALS0tKg1WpRV1eH6OjoHdUf7/F4MD09jUePHmF0dDSo6TLqyEjkf1CA+oYGZGVlcywk7XgM8ERERO9IFEW8ePECFy+cw6WLFzA1NSUt8SOXy1FQUIDa2loUFxdDoVBIS7Ydq9WKjo4O9Pb2wmazBWyXUSgUyM3bD31tHQoLi9jnTrRIWHAywBMREa0Hl8uFboMBV69ewfVr12Cz2aQlfmJjY5Gfn4/m5mYkJiZuy7vL8/PzePbsGbq6ujA5OSk97EcmkyExMRGVVdWorq5BdEzMjnpKQRQIAzwREdE6W1hYwB9/3MH5s2fR0vJAenhV6enp0Gq1qKqqQkJCgvTwluT1ejE+Po6Ojg4MDQ0FbC8CgOjoaHxUWoampqPQxMdvywsaonfFAE9ERPQeiKKIV69e4debN3Hu7GmMjIwEbBmRy+XYvXs3GhsbUVpaivDwcGnJluDbotrb2wuDwRDUk4iIiAjk7NuHox8fQ1ZW9pb92olCgQGeiIjoPfJ4PBjo78epUydx45efg3ppMzo6GocOHUJlZSXy8vKkhzc1u92O7u5udHZ2YnZ2NqjpMrt374FOr0eZthxqtZrtMkQBMMATERGFgN1uR1vbI5z68Ud0dnYEFeQTEhJQVlYGvV6PlJSUTR1snU4nJicnl9plggnuSUlJqDhcidIyLZKTUyCXcywkUTCEBaeHAZ6IiChEzGYz7ty5jf/+5zsMPXsWMOjKZDIkJSXhxIkTKC4uRnR0tLRkw01NTaG9vR0DAwNwOBwBW4WUyjAUHTiAIw2NyM7O2RETeIjWEwM8ERFRiHk8HoyOPse5s2dw7epPMJvNAUOvWq1Gbm4ujh8/jszMzA0fqej1emG322EwGGAwGGCxWKQlfuRyObKysqHT16K45CDUarW0hIiCwABPRES0QZxOJ3p7unH69Cn8evMGnE6ntMRPREQEKisr0djYiOTk5A3ZRurxeNDf34+Ojg68fPkSHo9HWuInOSUFFRWHcbiyCvHx8RCE0P93E20XgsPFAE9ERLSRZmdncf/+PXz77//Fs8FBuFwuackKcrkcqampOHz4MPR6PaKioqQl74Xb7YbZbEZLSwtGRkawsLAgLfETFRWFA8UlqK8/gr0ZGRtywUG03TDAExERbQKiKGJifALXrl3FzZu/oL+vT1riRy6XY9++fThx4gTy8vKgVCqlJevGbDbjyZMn6Ovrg9VqDdjyAwAFhYWoqzuC/Px8hIWHb+qXcIm2EgZ4IiKiTcTlcmFo6Bm+/fe/8ced34OaoR4fH4/8/HzodDrk5OSs6/Ijh8OB/v5+tLW1YWZmJmBwVyqVSExMRMXhShyurIJGo5GWENE7YoAnIiLahBwOB27fvoWLFy6g/XEbHA6HtGQFQRAQHx+P6upq6HQ6xMfHS0ve2MjICAwGA4aHhwP+/QAQGRmJGp0elVXVSE5OXtcLCSL6PwzwREREm5QoijAajfj5+jWcPn0KY6OjAe+AC4KA/fv3Q6fToaSk5I0nvfi2qBoMBvT09AQ1r16lUiErKwtNRz9Gbt7+DZ+QQ7TdCU4GeCIiok3N6/VibGwMP3z/X/z226+YmpqSlvgJCwuDVquFVqtFfn5+ULPWbTYbBgYG8PDhQ8zNzQWcUS8IAtLS0nD042MoKTmIyMhI9rkThQADPBER0RaxsLCA7m4D/vWvf+JxW+C2GgCIi4tDbW0tKioqkJycvGrAdjgcePXqFVpbWzE+Pg632y0tWUEQBMTExECnq0X54ufldBmi0GGAJyIi2mIsFguuXv0JVy5fQk9Pj/SwH7lcjrS0tKUgHxkZCSze2TcajXj48CEGBwfhdrsDtugolUp89FEp9PpaZGZlvdfJN0S0OgZ4IiKiLejPba6juH3rFs6ePY3x8XFpiR+lUomMjAwcP34cOTk56O7uRk9PDywWS1DBPS1tF44dO44DBw4gQqWSlhBRiDDAExERbWFujxttjx7h5Mkfcf/+fTiCWK6k0WiQm5sLp9MZsM8dAHbtSoe2XIsybTmSkpIg4xZVog0luNwM8ERERFudxWLB/Xv3cOHCebS1tb22j913Jz7QhJqoqCgUFhXh44+PIT09nWMhiTYJBngiIqJtQhRFmEwmnD17BpcvXcLo6Ki0BAgiwCuVSuTm5aGurg5FRQc4FpJok2GAJyIi2mY8Hg+ePn2Ky5cv4fKlS37bXNcK8DKZDImJiaiqrkFNTQ1iYmJWnVpDRBuLAZ6IiGibWlhYwJ07d3Du7Fm0tDxYelF1tQAfHR2NsjItmo4eRXx8PNtliDYxBngiIqJtbmpqCrdv38KPP/yA58+fQxCEpQAfoVJhX84+HDt+HFlZWQgPD5d+OBFtMoLL7WWAJyIi2ua8Xi+eP3+Oy5cu4qefriAmJga5eXmo1ddBW66FWs0tqkRbBQM8ERHRDjI/P4/e3h4YjUYUFhYhJSUZMhnbZYi2EsHtYYAnIiLaabxeL2QyznMn2or4m0tERLQDMbwTbV387SUiIiIi2kL+P72s7Xy87kDdAAAAAElFTkSuQmCC;" parent="1" vertex="1">
                    <mxGeometry x="100" y="-1050" width="491.96" height="350" as="geometry"/>
                </mxCell>
                <mxCell id="3" value="&lt;font style=&quot;font-size: 19px;&quot;&gt;&lt;b&gt;Cube_02&lt;/b&gt;&lt;/font&gt;" style="text;html=1;align=center;verticalAlign=middle;whiteSpace=wrap;rounded=0;" parent="1" vertex="1">
                    <mxGeometry x="410" y="-810" width="120" height="50" as="geometry"/>
                </mxCell>
                <mxCell id="6" value="&lt;font style=&quot;font-size: 19px;&quot;&gt;&lt;b&gt;Bin&lt;/b&gt;&lt;/font&gt;&lt;b style=&quot;font-size: 19px; background-color: transparent;&quot;&gt;_00&lt;/b&gt;" style="text;html=1;align=center;verticalAlign=middle;whiteSpace=wrap;rounded=0;" parent="1" vertex="1">
                    <mxGeometry x="100" y="-930" width="120" height="50" as="geometry"/>
                </mxCell>
            </root>
        </mxGraphModel>
    </diagram>
</mxfile>